<svg width="42" height="42" viewBox="0 0 42 42" fill="none" xmlns="http://www.w3.org/2000/svg">
<g clip-path="url(#clip0_53_1075)">
<path fill-rule="evenodd" clip-rule="evenodd" d="M4.0425 21.28C5.7925 22.61 7.035 21.3675 5.6875 19.8975L5.5475 19.7575C5.2604 19.4822 4.95648 19.2251 4.6375 18.9875C4.305 18.7425 3.955 18.5325 3.605 18.3225C2.75839 17.8464 1.86754 17.4538 0.945 17.15C0.789517 17.0734 0.60998 17.0617 0.445885 17.1175C0.281791 17.1733 0.146581 17.292 0.0699997 17.4475C-0.00658161 17.603 -0.0182608 17.7825 0.0375312 17.9466C0.0933233 18.1107 0.212016 18.2459 0.3675 18.3225C1.12 18.83 1.75 19.4775 2.4675 20.0725C2.92755 20.4815 3.41266 20.8614 3.92 21.21L4.0425 21.28Z" fill="white"/>
<path fill-rule="evenodd" clip-rule="evenodd" d="M21 30.8175C20.942 30.655 20.8218 30.5223 20.6659 30.4484C20.51 30.3746 20.3312 30.3657 20.1687 30.4237C20.0063 30.4817 19.8736 30.6019 19.7997 30.7578C19.7259 30.9137 19.717 31.0925 19.775 31.255C19.8724 31.7655 19.763 32.2938 19.471 32.7237C19.1789 33.1537 18.728 33.45 18.2175 33.5475C17.9089 33.5558 17.6028 33.4898 17.325 33.355C17.0259 33.2405 16.7523 33.068 16.52 32.8475C16.3649 32.6865 16.2189 32.5171 16.0825 32.34C16.0026 32.2163 15.9434 32.0803 15.9075 31.9375C15.8364 31.6045 15.8861 31.2572 16.0475 30.9575C16.17 30.835 16.2575 30.7125 16.3625 30.59C16.5076 30.3863 16.6921 30.2137 16.905 30.0825C17.2898 29.8303 17.7399 29.6959 18.2 29.6959C18.6601 29.6959 19.1102 29.8303 19.495 30.0825C19.6066 30.1746 19.7487 30.2215 19.8933 30.2138C20.0378 30.2062 20.1742 30.1445 20.2754 30.0411C20.3766 29.9377 20.4353 29.8 20.4399 29.6553C20.4445 29.5107 20.3945 29.3696 20.3 29.26C19.8699 28.8193 19.3312 28.4998 18.7382 28.3339C18.1451 28.168 17.5188 28.1615 16.9225 28.315C16.9188 28.0423 16.8775 27.7714 16.8 27.51C16.7406 27.3462 16.6193 27.2124 16.4622 27.1371C16.3052 27.0618 16.1248 27.0512 15.96 27.1075C15.8775 27.1349 15.8014 27.1787 15.7362 27.2362C15.671 27.2937 15.6181 27.3637 15.5805 27.4421C15.5429 27.5205 15.5215 27.6056 15.5176 27.6924C15.5136 27.7793 15.5272 27.866 15.5575 27.9475C15.6538 28.2432 15.6538 28.5618 15.5575 28.8575C15.0185 29.1666 14.5716 29.6135 14.2625 30.1525C14.1927 30.16 14.1223 30.16 14.0525 30.1525C13.7491 30.1653 13.4475 30.099 13.1775 29.96C12.8408 29.8817 12.5246 29.7326 12.25 29.5225C12.0923 29.3688 11.9515 29.1987 11.83 29.015C11.7382 28.8959 11.6726 28.7587 11.6375 28.6125C11.581 28.2436 11.644 27.8663 11.8172 27.5358C11.9903 27.2052 12.2646 26.9386 12.6 26.775C12.9832 26.5184 13.4339 26.3814 13.895 26.3814C14.3561 26.3814 14.8068 26.5184 15.19 26.775C15.3014 26.8817 15.4506 26.9399 15.6049 26.9366C15.7591 26.9333 15.9057 26.8689 16.0125 26.7575C16.1192 26.6461 16.1774 26.4969 16.1741 26.3426C16.1708 26.1884 16.1064 26.0417 15.995 25.935C15.6402 25.5586 15.202 25.2708 14.7157 25.0945C14.2294 24.9182 13.7086 24.8584 13.195 24.92C13.2574 24.4314 13.1848 23.9351 12.985 23.485C12.927 23.3225 12.8068 23.1898 12.6509 23.1159C12.495 23.0421 12.3162 23.0332 12.1537 23.0912C11.9913 23.1492 11.8586 23.2694 11.7847 23.4253C11.7109 23.5812 11.702 23.76 11.76 23.9225C11.8203 24.1794 11.8218 24.4467 11.7642 24.7043C11.7066 24.9619 11.5915 25.2032 11.4275 25.41C11.0868 25.5912 10.7744 25.8211 10.5 26.0925C10.3992 26.1434 10.2937 26.1844 10.185 26.215C9.88282 26.2151 9.58424 26.1494 9.31 26.0225C9.01087 25.908 8.7373 25.7355 8.505 25.515C8.34507 25.3585 8.19871 25.1887 8.0675 25.0075C7.97702 24.8831 7.91707 24.7393 7.8925 24.5875C7.81998 24.213 7.87982 23.8251 8.06177 23.4899C8.24373 23.1547 8.5365 22.8931 8.89 22.75C9.27482 22.4978 9.7249 22.3634 10.185 22.3634C10.6451 22.3634 11.0952 22.4978 11.48 22.75C11.5931 22.8163 11.7253 22.8422 11.855 22.8234C11.9848 22.8046 12.1042 22.7422 12.1938 22.6465C12.2834 22.5509 12.3377 22.4275 12.348 22.2969C12.3582 22.1662 12.3236 22.0359 12.25 21.9275C11.6973 21.4347 11.0203 21.1025 10.2923 20.9668C9.56438 20.831 8.81317 20.897 8.12 21.1575C7.38986 21.3938 6.76885 21.8844 6.37 22.54C5.86614 23.2449 5.64166 24.1116 5.74 24.9725C5.80168 25.3409 5.92597 25.696 6.1075 26.0225C6.35571 26.4118 6.64945 26.7702 6.9825 27.09C7.49186 27.5281 8.09744 27.8399 8.75 28C9.01698 28.0819 9.29344 28.129 9.5725 28.14C9.53735 28.4247 9.53735 28.7127 9.5725 28.9975C9.63735 29.3621 9.76779 29.7119 9.9575 30.03C10.1943 30.4326 10.4892 30.7982 10.8325 31.115C11.34 31.546 11.9382 31.8571 12.5825 32.025C12.9983 32.1386 13.4295 32.1858 13.86 32.165C13.8686 32.2113 13.8686 32.2587 13.86 32.305C13.92 32.6764 14.0507 33.0328 14.245 33.355C14.4822 33.7522 14.7771 34.1119 15.12 34.4225C15.6205 34.8639 16.2212 35.1763 16.87 35.3325C17.5107 35.5144 18.1893 35.5144 18.83 35.3325C19.2988 35.1877 19.7339 34.9506 20.1096 34.635C20.4853 34.3194 20.794 33.9318 21.0175 33.495C21.2103 33.0745 21.3086 32.6169 21.3056 32.1543C21.3026 31.6917 21.1982 31.2354 21 30.8175Z" fill="white"/>
<path fill-rule="evenodd" clip-rule="evenodd" d="M18.9 11.1125C19.1381 11.1581 19.3721 11.2224 19.6 11.305C20.8075 11.795 21.4725 10.5175 20.5975 9.9575C20.1619 9.697 19.6901 9.50239 19.1975 9.38C18.1046 9.14452 16.9781 9.10894 15.8725 9.275C14.8962 9.34103 13.9155 9.29406 12.95 9.135L9.3625 7.7875C8.53378 7.43884 7.67188 7.17499 6.79 7C6.71526 7.00623 6.64262 7.0279 6.57668 7.06362C6.51073 7.09935 6.45291 7.14836 6.40686 7.20756C6.36082 7.26676 6.32755 7.33487 6.30915 7.40758C6.29076 7.48029 6.28764 7.55602 6.3 7.63C6.31177 7.76063 6.36902 7.88299 6.46176 7.97574C6.55451 8.06848 6.67687 8.12573 6.8075 8.1375C6.8075 8.1375 7.0175 8.2425 7.21 8.3475C8.295 8.9075 10.5875 10.3425 12.145 11.13C12.7848 11.4953 13.4944 11.7219 14.2275 11.795L16.205 11.3925C17.0848 11.168 17.9928 11.0737 18.9 11.1125Z" fill="white"/>
<path fill-rule="evenodd" clip-rule="evenodd" d="M41.86 6.77249C41.7692 6.62201 41.6225 6.5136 41.4519 6.47097C41.2814 6.42834 41.101 6.45495 40.95 6.54499L37.835 8.29499C37.2769 8.61501 36.6912 8.88442 36.085 9.09999C35.729 9.21443 35.3563 9.26769 34.9825 9.25749C34.3968 9.24857 33.8122 9.20181 33.2325 9.11749C32.7175 9.02871 32.2088 8.90594 31.71 8.74999C30.975 8.50499 30.275 8.18999 29.54 7.97999C28.9729 7.80821 28.3825 7.72556 27.79 7.73499C27.3176 7.75701 26.8513 7.85144 26.4075 8.01499C25.7883 8.22091 25.1997 8.50934 24.6575 8.87249C24.22 9.13499 20.195 12.8625 19.81 13.265C19.1358 13.9036 18.5476 14.6272 18.06 15.4175C17.7236 16.0121 17.5318 16.6775 17.5 17.36C17.4607 17.7591 17.5128 18.1618 17.6523 18.5378C17.7918 18.9138 18.015 19.2531 18.305 19.53C18.7166 19.8554 19.1961 20.0842 19.708 20.1993C20.22 20.3144 20.7512 20.3129 21.2625 20.195C22.166 20.0143 23.0125 19.618 23.73 19.04C24.445 18.4713 25.1122 17.845 25.725 17.1675C26.6163 17.542 27.5614 17.7724 28.525 17.85C28.9785 17.9024 29.4365 17.9024 29.89 17.85C30.3397 17.7849 30.7801 17.6674 31.2025 17.5C32.1681 17.094 33.0427 16.499 33.775 15.75C33.839 15.708 33.8937 15.6533 33.9358 15.5892C33.9778 15.5252 34.0063 15.4533 34.0194 15.3778C34.0325 15.3024 34.03 15.225 34.0121 15.1506C33.9941 15.0761 33.9611 15.0062 33.915 14.945C33.8714 14.8829 33.8159 14.83 33.7518 14.7894C33.6877 14.7488 33.6163 14.7212 33.5415 14.7082C33.4668 14.6952 33.3902 14.697 33.3161 14.7136C33.2421 14.7303 33.172 14.7613 33.11 14.805C32.305 15.1463 31.4572 15.3759 30.59 15.4875L29.0675 15.75C28.7175 15.75 28.4025 15.8725 28.0525 15.89C27.505 15.9338 26.955 15.9338 26.4075 15.89C26.4246 15.827 26.4246 15.7605 26.4075 15.6975C26.3553 15.6435 26.2927 15.6006 26.2236 15.5713C26.1544 15.542 26.0801 15.5268 26.005 15.5268C25.9299 15.5268 25.8556 15.542 25.7864 15.5713C25.7173 15.6006 25.6547 15.6435 25.6025 15.6975C24.7761 16.5182 23.8867 17.273 22.9425 17.955C22.3782 18.3435 21.731 18.5951 21.0525 18.69C20.5829 18.7667 20.1011 18.6802 19.6875 18.445C19.523 18.3551 19.3916 18.2148 19.3129 18.0447C19.2341 17.8745 19.2121 17.6836 19.25 17.5C19.3234 17.0995 19.4783 16.7183 19.705 16.38C20.1408 15.7696 20.6458 15.2117 21.21 14.7175C22.0675 13.86 22.96 12.9675 23.87 12.11C24.4428 11.5828 25.0573 11.1029 25.7075 10.675C26.0457 10.4466 26.4029 10.2475 26.775 10.08C27.4643 9.77745 28.2369 9.72182 28.9625 9.92249C29.68 10.08 30.3625 10.3425 31.08 10.5525C31.7071 10.7086 32.3446 10.8197 32.9875 10.885C33.617 10.9198 34.248 10.9198 34.8775 10.885C35.4392 10.8687 35.9946 10.7623 36.5225 10.57C37.217 10.2791 37.8846 9.92779 38.5175 9.51999L41.545 7.61249C41.6958 7.54025 41.8128 7.41246 41.8715 7.25589C41.9303 7.09931 41.9261 6.92609 41.86 6.77249Z" fill="white"/>
<path fill-rule="evenodd" clip-rule="evenodd" d="M32.497 24.5002C32.39 24.194 32.2613 23.8958 32.112 23.6077C31.6171 22.7584 31.0302 21.9662 30.362 21.2452L28.4895 19.1102C28.3945 19.0001 28.2615 18.9299 28.117 18.9136C27.9725 18.8972 27.8271 18.9361 27.71 19.0223C27.5928 19.1085 27.5125 19.2357 27.4851 19.3785C27.4577 19.5214 27.4851 19.6693 27.562 19.7927L28.9445 22.2777C29.3995 23.0041 29.7974 23.7647 30.1345 24.5527C30.3477 24.9943 30.4894 25.4668 30.5545 25.9527C30.6102 26.2588 30.6 26.5732 30.5246 26.8749C30.4491 27.1767 30.3102 27.4589 30.117 27.7027C29.8717 27.9821 29.5582 28.1931 29.207 28.3152C29.1812 28.2496 29.152 28.1853 29.1195 28.1227C28.7504 27.5739 28.3409 27.0533 27.8945 26.5652L25.3745 23.7127C25.3263 23.6415 25.2645 23.5804 25.1926 23.5331C25.1208 23.4857 25.0403 23.453 24.9558 23.4368C24.7851 23.4039 24.6084 23.4403 24.4645 23.5377C24.3207 23.6352 24.2214 23.7858 24.1886 23.9565C24.1557 24.1271 24.1921 24.3038 24.2895 24.4477L26.2495 27.7902C26.5828 28.2585 26.8924 28.7433 27.177 29.2427C27.3284 29.5008 27.446 29.7772 27.527 30.0652C27.6243 30.2655 27.653 30.4922 27.6087 30.7104C27.5644 30.9286 27.4497 31.1262 27.282 31.2727C27.0318 31.4798 26.7288 31.6131 26.407 31.6577C26.407 31.6577 26.407 31.5527 26.407 31.5002C26.2213 31.103 25.9924 30.7274 25.7245 30.3802C25.3045 29.8727 24.902 29.3827 24.447 28.9102C23.992 28.4377 23.572 27.9827 23.0995 27.5452C23.0036 27.428 22.8655 27.3531 22.7149 27.3368C22.5644 27.3204 22.4134 27.3638 22.2945 27.4577C22.1761 27.5567 22.1008 27.6978 22.0845 27.8513C22.0682 28.0047 22.1121 28.1586 22.207 28.2802C22.487 28.7002 22.732 29.1027 22.977 29.5402C23.222 29.9777 23.6595 30.8177 23.9745 31.4827L24.4645 32.6727L24.2195 33.0927C24.1014 33.2818 23.9457 33.4446 23.7621 33.5711C23.5785 33.6975 23.3708 33.7849 23.152 33.8277C22.7293 33.9402 22.2798 33.8902 21.892 33.6877C21.8197 33.6428 21.7392 33.6126 21.6551 33.5988C21.5711 33.5851 21.4851 33.588 21.4022 33.6076C21.3193 33.6271 21.2411 33.6627 21.172 33.7125C21.1029 33.7623 21.0443 33.8253 20.9995 33.8977C20.9079 34.0466 20.8786 34.2255 20.9179 34.3958C20.9572 34.5661 21.062 34.7141 21.2095 34.8077C21.772 35.2953 22.4953 35.5572 23.2395 35.5427C23.7244 35.5552 24.2066 35.4667 24.6554 35.2829C25.1043 35.0992 25.5101 34.8241 25.847 34.4752C26.1025 34.2125 26.315 33.9114 26.477 33.5827C26.5305 33.4119 26.5656 33.2359 26.582 33.0577C27.1843 33.0997 27.7871 32.9851 28.332 32.7252C28.8471 32.4369 29.26 31.996 29.5139 31.4631C29.7677 30.9303 29.8501 30.3318 29.7495 29.7502C30.3966 29.6289 31.0002 29.3392 31.4995 28.9102C31.8983 28.547 32.2199 28.1073 32.4454 27.6172C32.6709 27.1272 32.7956 26.5969 32.812 26.0577C32.7719 25.5275 32.6661 25.0044 32.497 24.5002Z" fill="white"/>
<path fill-rule="evenodd" clip-rule="evenodd" d="M41.9995 22.3477C41.9791 22.2649 41.9424 22.1869 41.8917 22.1182C41.841 22.0496 41.7772 21.9916 41.704 21.9477C41.6309 21.9038 41.5497 21.8748 41.4653 21.8624C41.3808 21.8499 41.2948 21.8543 41.212 21.8752C40.1445 21.9977 39.112 22.0327 38.0795 22.2077C37.3769 22.3206 36.6858 22.4963 36.0145 22.7327C35.2428 23.0238 34.5085 23.4056 33.827 23.8702C32.392 24.4652 33.2495 25.6202 34.597 25.2352L36.2245 24.9027L37.4495 24.6052L38.657 24.2202C39.6195 23.8877 40.5645 23.5202 41.527 23.1352C41.6099 23.1148 41.6879 23.0781 41.7565 23.0274C41.8252 22.9767 41.8831 22.9129 41.927 22.8397C41.971 22.7666 42 22.6854 42.0124 22.601C42.0248 22.5165 42.0205 22.4305 41.9995 22.3477Z" fill="white"/>
</g>
<defs>
<clipPath id="clip0_53_1075">
<rect width="42" height="42" fill="white"/>
</clipPath>
</defs>
</svg>
