<svg width="48" height="48" viewBox="0 0 48 48" fill="none" xmlns="http://www.w3.org/2000/svg">
<path fill-rule="evenodd" clip-rule="evenodd" d="M30.5581 13.2557C28.7267 12.1841 26.6585 11.5829 24.5381 11.5057C22.426 11.487 20.3371 11.9464 18.4279 12.8495C16.5186 13.7527 14.8384 15.0761 13.5131 16.7207C12.1524 18.3794 11.3079 20.4006 11.0839 22.5343C10.86 24.668 11.2665 26.8206 12.2531 28.7257C13.0764 30.401 14.3181 31.8356 15.8581 32.8907C18.1059 34.3759 20.6496 35.3552 23.3131 35.7607C23.3954 35.789 23.4828 35.7994 23.5695 35.7913C23.6561 35.7831 23.7401 35.7566 23.8157 35.7135C23.8913 35.6704 23.9568 35.6117 24.008 35.5412C24.0591 35.4708 24.0946 35.3902 24.1122 35.305C24.1297 35.2197 24.1289 35.1317 24.1097 35.0468C24.0906 34.9619 24.0536 34.882 24.0012 34.8125C23.9487 34.7431 23.8821 34.6855 23.8057 34.6438C23.7293 34.6021 23.6449 34.5772 23.5581 34.5707C21.5185 34.1613 19.5611 33.4162 17.7656 32.3657C16.0394 31.346 14.6703 29.818 13.8456 27.9907C13.1065 26.3848 12.8456 24.6 13.0938 22.8498C13.3421 21.0995 14.0891 19.4577 15.2456 18.1207C16.38 16.76 17.8055 15.6715 19.4169 14.9355C21.0283 14.1994 22.7844 13.8347 24.5556 13.8682C26.2657 13.9257 27.9358 14.4003 29.4206 15.2507C30.9084 16.0924 32.1232 17.3436 32.9206 18.8557C33.721 20.3597 34.1856 22.0195 34.2823 23.7204C34.3789 25.4214 34.1054 27.1232 33.4806 28.7082C32.8286 30.2748 31.7689 31.6383 30.4118 32.6569C29.0546 33.6756 27.4495 34.3122 25.7631 34.5007C25.6732 34.5115 25.5863 34.54 25.5075 34.5847C25.4287 34.6294 25.3596 34.6893 25.3043 34.761C25.2489 34.8327 25.2083 34.9147 25.1849 35.0022C25.1616 35.0897 25.1558 35.1809 25.1681 35.2707C25.1789 35.3606 25.2074 35.4475 25.2521 35.5263C25.2968 35.605 25.3567 35.6741 25.4284 35.7295C25.5001 35.7849 25.5821 35.8254 25.6696 35.8488C25.7571 35.8722 25.8483 35.8779 25.9381 35.8657C27.9246 35.733 29.8379 35.0639 31.4743 33.9299C33.1107 32.7958 34.4089 31.2391 35.2306 29.4257C36.0167 27.5996 36.3987 25.6251 36.3504 23.6375C36.3021 21.65 35.8246 19.6964 34.9506 17.9107C33.9824 15.9564 32.453 14.3355 30.5581 13.2557Z" fill="white"/>
<path fill-rule="evenodd" clip-rule="evenodd" d="M26.2006 29.4431C26.7028 29.3352 27.1778 29.126 27.5965 28.8283C28.0152 28.5306 28.3688 28.1507 28.6358 27.7118C28.9027 27.2729 29.0774 26.7842 29.1492 26.2755C29.2209 25.7668 29.1882 25.2488 29.0531 24.7531C28.9374 24.2753 28.6965 23.8369 28.3551 23.4832C28.0136 23.1294 27.584 22.8731 27.1106 22.7406C26.3561 22.5509 25.5738 22.4976 24.8006 22.5831V20.2381C25.5452 20.244 26.2818 20.3925 26.9706 20.6756C27.0427 20.7254 27.1247 20.759 27.211 20.7744C27.2973 20.7897 27.3859 20.7863 27.4708 20.7645C27.5556 20.7426 27.6348 20.7028 27.703 20.6477C27.7712 20.5927 27.8267 20.5236 27.8659 20.4452C27.9051 20.3668 27.927 20.2809 27.9302 20.1933C27.9334 20.1058 27.9177 20.0185 27.8842 19.9375C27.8508 19.8565 27.8003 19.7836 27.7363 19.7238C27.6723 19.6639 27.5962 19.6185 27.5131 19.5906C26.6572 19.1278 25.7168 18.8421 24.7481 18.7506V16.0556C24.7628 15.8958 24.7142 15.7366 24.6128 15.6122C24.5113 15.4879 24.3651 15.4083 24.2056 15.3906C24.0438 15.3756 23.8825 15.4237 23.7553 15.5248C23.6281 15.6259 23.5449 15.7722 23.5231 15.9331C23.3481 16.8431 23.2256 17.7881 23.0506 18.7156C22.6795 18.7388 22.3108 18.7914 21.9481 18.8731C21.545 18.9483 21.161 19.1033 20.8186 19.3289C20.4762 19.5544 20.1823 19.8461 19.9541 20.1868C19.7259 20.5274 19.568 20.9102 19.4897 21.3127C19.4114 21.7152 19.4142 22.1293 19.4981 22.5306C19.5536 23.0191 19.7479 23.4815 20.0581 23.863C20.3682 24.2445 20.7812 24.5291 21.2481 24.6831C21.681 24.8352 22.1367 24.9122 22.5956 24.9106V25.7681C22.5956 26.5381 22.7531 27.2906 22.8231 28.0606C21.805 28.0672 20.8138 27.7347 20.0056 27.1156C19.9398 27.0479 19.8611 26.9942 19.7741 26.9577C19.6871 26.9212 19.5936 26.9026 19.4992 26.9032C19.4048 26.9037 19.3115 26.9234 19.225 26.9609C19.1384 26.9984 19.0603 27.053 18.9953 27.1215C18.9304 27.19 18.88 27.2709 18.8471 27.3593C18.8142 27.4478 18.7996 27.542 18.804 27.6363C18.8085 27.7305 18.832 27.8229 18.8731 27.9079C18.9141 27.9928 18.972 28.0686 19.0431 28.1306C20.1399 29.0879 21.5266 29.6488 22.9806 29.7231C22.9806 30.1606 23.0681 30.6156 23.1206 31.0706C23.1227 31.1611 23.1432 31.2502 23.1809 31.3324C23.2186 31.4146 23.2727 31.4883 23.3399 31.5489C23.407 31.6095 23.4859 31.6558 23.5715 31.6849C23.6572 31.714 23.7479 31.7253 23.8381 31.7181C23.9292 31.7159 24.019 31.6955 24.1022 31.658C24.1853 31.6205 24.2601 31.5667 24.322 31.4998C24.384 31.4329 24.432 31.3543 24.4631 31.2685C24.4942 31.1828 24.5078 31.0917 24.5031 31.0006V29.7756C25.0797 29.7297 25.6492 29.6181 26.2006 29.4431ZM26.2006 24.9106C26.4806 24.9106 26.7431 25.0506 26.8306 25.3656C27.3031 26.8181 26.0256 27.6056 24.5906 27.9206C24.5906 27.2031 24.5906 26.4856 24.7131 25.7506V24.8931H25.0631C25.448 24.8711 25.834 24.8769 26.2181 24.9106H26.2006ZM21.4931 22.1106C21.2656 21.1831 21.8781 20.6931 22.7006 20.3606C22.7006 20.6231 22.5956 20.8506 22.5606 21.1131C22.5256 21.3756 22.5606 22.0756 22.5606 22.5656C22.4328 22.5832 22.3033 22.5832 22.1756 22.5656C22.0302 22.573 21.8864 22.5325 21.7663 22.4503C21.6462 22.3681 21.5563 22.2488 21.5106 22.1106H21.4931Z" fill="white"/>
<path fill-rule="evenodd" clip-rule="evenodd" d="M42.1781 12.3287C42.1781 12.3287 41.8981 11.1912 41.4256 11.0687C38.8881 10.3162 36.2631 9.65121 33.7781 8.79371C32.135 8.24986 30.5376 7.57693 29.0006 6.78121C28.393 6.47989 27.8082 6.13481 27.2506 5.74871C26.73 5.35885 26.2333 4.93809 25.7631 4.48871C25.5706 4.33121 24.9406 3.54371 24.5906 3.29871C24.3608 3.12833 24.0881 3.02532 23.8031 3.00121C23.5273 2.98524 23.253 3.05229 23.0156 3.19371C22.6259 3.46904 22.2573 3.77323 21.9131 4.10371L18.4131 6.23871C16.5843 7.3325 14.6908 8.3143 12.7431 9.17871C7.3706 11.5587 5.9181 11.6112 5.8481 12.3287C5.08695 16.9155 4.96328 21.5855 5.4806 26.2062C5.75396 28.2195 6.26502 30.1933 7.0031 32.0862C7.68019 33.7957 8.58051 35.408 9.6806 36.8812C11.3609 39.0335 13.463 40.82 15.8581 42.1312C16.785 42.6941 17.7566 43.18 18.7631 43.5837C20.2495 44.1485 21.769 44.6218 23.3131 45.0012H24.6081C26.1522 44.6218 27.6717 44.1485 29.1581 43.5837C30.1803 43.2051 31.1695 42.7427 32.1156 42.2012C34.5107 40.89 36.6128 39.1035 38.2931 36.9512C39.3932 35.478 40.2935 33.8657 40.9706 32.1562C41.7087 30.2633 42.2197 28.2895 42.4931 26.2762C43.0343 21.6349 42.9283 16.9409 42.1781 12.3287ZM40.4281 25.8387C40.094 27.6818 39.5781 29.4873 38.8881 31.2287C38.2827 32.7495 37.5016 34.1943 36.5606 35.5337C35.1586 37.5614 33.3755 39.297 31.3106 40.6437C30.2558 41.3236 29.1432 41.9092 27.9856 42.3937C26.8131 42.8837 25.5881 43.3037 24.3806 43.6887C24.2073 43.7236 24.0289 43.7236 23.8556 43.6887C22.6481 43.3037 21.4231 42.8837 20.2506 42.3937C19.093 41.9092 17.9803 41.3236 16.9256 40.6437C14.8607 39.297 13.0776 37.5614 11.6756 35.5337C10.7346 34.1943 9.9535 32.7495 9.3481 31.2287C8.65807 29.4873 8.14222 27.6818 7.8081 25.8387C7.06038 21.5177 6.86047 17.1197 7.2131 12.7487C9.7156 12.0137 12.2356 11.2437 14.7031 10.2987C16.3285 9.69573 17.923 9.01238 19.4806 8.25121C20.2331 7.84871 21.0031 7.46371 21.7556 7.02621C22.5081 6.58871 22.7706 6.41371 23.2606 6.06371C23.3474 5.98639 23.4239 5.89816 23.4881 5.80121C23.7506 6.02871 24.1181 6.23871 24.2056 6.32621C24.7594 6.82325 25.3439 7.28499 25.9556 7.70871C26.5969 8.13273 27.2697 8.50715 27.9681 8.82871C29.6704 9.54648 31.4256 10.1316 33.2181 10.5787C35.7731 11.2787 38.4681 11.7862 40.9706 12.3287C41.3524 16.8389 41.1524 21.3795 40.3756 25.8387H40.4281Z" fill="white"/>
</svg>
