<svg width="402" height="144" viewBox="0 0 402 144" fill="none" xmlns="http://www.w3.org/2000/svg">
<g filter="url(#filter0_d_459_1232)">
<rect x="20" y="17" width="362" height="104" rx="24" fill="#2F3579"/>
<g clip-path="url(#clip0_459_1232)">
<path d="M165 61.2176C165.543 62.3756 166.271 63.3013 167.182 63.9964C168.094 64.6915 169.102 65.2198 170.206 65.5845C171.311 65.9477 172.465 66.1307 173.669 66.1307C175.509 66.1307 177.208 65.7586 178.763 65.0145V61.3679C177.693 62.3279 176.187 62.8072 174.245 62.8072C173.459 62.8072 172.702 62.6956 171.974 62.4723C171.247 62.2491 170.585 61.9231 169.992 61.493C169.398 61.0628 168.926 60.4883 168.575 59.7694C168.223 59.0505 168.048 58.2275 168.048 57.3017C168.048 55.3505 168.654 53.874 169.867 52.8738C171.079 51.8736 172.539 51.3735 174.245 51.3735C175.985 51.3735 177.449 51.829 178.637 52.7384V49.1856C177.131 48.4414 175.458 48.0693 173.618 48.0693C172.413 48.0693 171.259 48.2554 170.155 48.6275C169.051 48.9996 168.051 49.5503 167.157 50.2766C166.262 51.0044 165.542 51.9763 164.998 53.1908C164.455 54.4068 164.182 55.7746 164.182 57.2958C164.184 58.7529 164.456 60.0597 165 61.2176Z" fill="white"/>
<path d="M206.664 56.8257C206.664 55.949 206.638 55.1557 206.589 54.4443L214.77 65.7812H218.309V48.4164H214.544V57.3719C214.544 58.2486 214.57 59.0419 214.619 59.7533L206.438 48.4164H202.9V65.7812H206.665V56.8257H206.664Z" fill="white"/>
<path d="M222.512 55.5112C222.99 56.2226 223.583 56.7644 224.294 57.1365C225.005 57.5086 225.774 57.8554 226.602 58.1784C227.43 58.5013 228.2 58.7737 228.911 58.997C229.622 59.2202 230.216 59.5179 230.692 59.89C231.17 60.2621 231.408 60.6967 231.408 61.1923C231.408 62.3011 230.312 62.8548 228.12 62.8548C225.845 62.8548 223.77 62.2431 221.896 61.0197V64.5665C223.786 65.6083 225.953 66.1292 228.396 66.1292C229.366 66.1292 230.245 66.0429 231.03 65.8688C231.816 65.6946 232.536 65.4178 233.189 65.0383C233.842 64.6587 234.348 64.1289 234.707 63.4502C235.066 62.773 235.246 61.9618 235.246 61.0197C235.246 60.0611 235.008 59.2172 234.53 58.4894C234.053 57.7616 233.46 57.2124 232.749 56.8403C232.038 56.4682 231.268 56.1214 230.441 55.7985C229.613 55.4755 228.843 55.212 228.132 55.0051C227.421 54.7983 226.827 54.5214 226.351 54.1746C225.873 53.8278 225.635 53.4215 225.635 52.9586C225.635 51.9168 226.589 51.3795 228.496 51.3467C230.62 51.314 232.427 51.826 233.917 52.8842V49.4089C232.327 48.5158 230.429 48.0693 228.221 48.0693C226.379 48.0693 224.849 48.4905 223.628 49.3345C222.406 50.1784 221.795 51.4018 221.795 53.0063C221.797 53.9648 222.035 54.7998 222.512 55.5112Z" fill="white"/>
<path d="M249.779 59.058C249.779 61.5391 248.457 62.7789 245.813 62.7789C243.186 62.7789 241.873 61.5391 241.873 59.058V48.4161H238.108V59.2574C238.108 60.2502 238.25 61.1432 238.535 61.9365C238.819 62.7298 239.204 63.3832 239.689 63.8967C240.174 64.4102 240.752 64.8388 241.421 65.1871C242.09 65.5339 242.789 65.778 243.517 65.9194C244.244 66.0593 245.009 66.1307 245.813 66.1307C246.616 66.1307 247.382 66.0608 248.11 65.9194C248.837 65.7795 249.536 65.5354 250.205 65.1871C250.875 64.8403 251.451 64.4102 251.938 63.8967C252.423 63.3847 252.807 62.7313 253.092 61.9365C253.376 61.1432 253.518 60.2502 253.518 59.2574V48.4161H249.779V59.058Z" fill="white"/>
<path d="M267.119 57.4463L261.097 48.4164H257.609V65.7812H261.374V55.0649L266.016 62.0603H268.199L272.841 55.0902V65.7827H276.606V48.4164H273.118L267.119 57.4463Z" fill="white"/>
<path d="M280.872 65.7812H293.395V62.5068H284.636V58.637H292.491V55.3879H284.636V51.6908H293.244V48.4164H280.871V65.7812H280.872Z" fill="white"/>
<path d="M300.649 59.7041H303.41L308.152 65.7811H312.493L307.248 59.2322C309.808 58.4226 311.088 56.702 311.088 54.0721C311.088 53.0138 310.89 52.1044 310.498 51.3439C310.104 50.5833 309.561 49.9954 308.866 49.5831C308.172 49.1694 307.435 48.8717 306.658 48.6901C305.88 48.5085 305.031 48.4177 304.11 48.4177H296.883V65.7826H300.648V59.7041H300.649ZM304.288 51.6907C305.158 51.6907 305.869 51.8886 306.422 52.286C306.974 52.6834 307.249 53.3026 307.249 54.1465C307.249 54.974 306.969 55.5902 306.408 55.995C305.847 56.3999 305.14 56.6023 304.287 56.6023H300.648V51.6907H304.288Z" fill="white"/>
<path d="M168.125 84.6461H176.156L177.436 87.8952H181.325L174.172 70.5304H170.107L162.93 87.8952H166.819L168.125 84.6461ZM172.14 73.979C172.223 74.4255 172.349 74.8809 172.515 75.3438L174.975 81.5697H169.303L171.737 75.3438C171.906 74.9464 172.039 74.491 172.14 73.979Z" fill="white"/>
<path d="M179.644 73.879H185.039V87.895H188.778V73.879H194.174V70.5302H179.644V73.879Z" fill="white"/>
<path d="M194.827 73.8792H200.222V87.8952H203.961V73.8792H209.357V70.5304H194.825V73.8792H194.827Z" fill="white"/>
<path d="M234.432 81.8167H237.192L241.935 87.8937H246.276L241.03 81.3449C243.59 80.5352 244.87 78.8147 244.87 76.1847C244.87 75.1265 244.674 74.2171 244.28 73.4565C243.887 72.696 243.343 72.1081 242.649 71.6958C241.954 71.282 241.217 70.9843 240.44 70.8028C239.662 70.6212 238.813 70.5304 237.893 70.5304H230.665V87.8952H234.43V81.8167H234.432ZM238.071 73.8048C238.94 73.8048 239.652 74.0028 240.204 74.4002C240.756 74.7976 241.032 75.4167 241.032 76.2606C241.032 77.0882 240.752 77.7043 240.19 78.1092C239.629 78.514 238.923 78.7164 238.069 78.7164H234.43V73.8048H238.071Z" fill="white"/>
<path d="M252.148 78.9395C252.148 78.0628 252.123 77.2695 252.073 76.5581L260.254 87.895H263.793V70.5302H260.028V79.4857C260.028 80.3623 260.054 81.1556 260.103 81.8671L251.922 70.5302H248.383V87.895H252.148V78.9395Z" fill="white"/>
<path d="M267.557 87.8952H280.08V84.6208H271.321V80.751H279.175V77.5019H271.321V73.8063H279.928V70.5319H267.556V87.8952H267.557Z" fill="white"/>
<path d="M291.876 81.7422L298.727 70.5288H294.486L289.994 78.3189L285.501 70.5288H281.26L288.136 81.7422V87.8936H291.876V81.7422Z" fill="white"/>
<path d="M299.895 77.6253C300.372 78.3367 300.965 78.8785 301.676 79.2506C302.387 79.6227 303.157 79.9695 303.984 80.2924C304.812 80.6154 305.582 80.8878 306.293 81.1111C307.004 81.3343 307.598 81.632 308.074 82.0041C308.552 82.3762 308.79 82.8108 308.79 83.3064C308.79 84.4152 307.694 84.9689 305.502 84.9689C303.227 84.9689 301.152 84.3572 299.278 83.1337V86.6805C301.169 87.7224 303.335 88.2433 305.778 88.2433C306.748 88.2433 307.627 88.157 308.413 87.9829C309.198 87.8087 309.918 87.5319 310.571 87.1524C311.224 86.7728 311.73 86.243 312.089 85.5643C312.448 84.8871 312.628 84.0759 312.628 83.1337C312.628 82.1752 312.39 81.3313 311.912 80.6035C311.435 79.8757 310.842 79.3265 310.131 78.9544C309.42 78.5823 308.651 78.2355 307.823 77.9125C306.995 77.5896 306.225 77.3261 305.514 77.1192C304.803 76.9124 304.209 76.6355 303.733 76.2887C303.255 75.9419 303.017 75.5356 303.017 75.0727C303.017 74.0309 303.971 73.4936 305.878 73.4608C308.002 73.4281 309.809 73.9401 311.299 74.9983V71.5259C309.709 70.6329 307.811 70.1864 305.603 70.1864C303.761 70.1864 302.231 70.6076 301.01 71.4515C299.788 72.2954 299.177 73.5189 299.177 75.1233C299.179 76.0789 299.419 76.9138 299.895 77.6253Z" fill="white"/>
<path fill-rule="evenodd" clip-rule="evenodd" d="M224.47 88.2092C221.92 90.1768 219.641 91.1428 219.652 91.183C219.64 91.1398 217.378 90.214 214.807 88.23C210.855 85.1789 211.143 81.5577 211.143 81.5577C211.143 81.5577 211.143 73.5919 211.143 70.2862C215.816 68.006 223.464 68.009 228.132 70.2847C228.132 73.586 228.132 81.5443 228.132 81.5443C228.132 81.5443 228.421 85.161 224.47 88.2092ZM224.68 81.4341C224.68 81.4341 224.68 74.4909 224.68 72.5471C221.912 71.2075 217.373 71.206 214.601 72.5486C214.601 74.4939 214.601 81.4431 214.601 81.4431C214.601 81.4431 214.43 83.5744 216.774 85.3709C218.298 86.5393 219.641 87.084 219.649 87.1093C219.641 87.0855 220.994 86.5169 222.506 85.3575C224.852 83.5625 224.68 81.4341 224.68 81.4341Z" fill="#44B64B"/>
<path fill-rule="evenodd" clip-rule="evenodd" d="M191.092 60.085C187.308 60.085 184.239 57.0502 184.239 53.3084C184.239 49.5667 187.306 46.5319 191.092 46.5319C194.878 46.5319 197.945 49.5652 197.945 53.3084C197.945 57.0517 194.876 60.085 191.092 60.085ZM191.016 50.0147C189.176 50.0147 187.683 51.4896 187.683 53.3099C187.683 55.1302 189.176 56.6052 191.016 56.6052C192.856 56.6052 194.348 55.1302 194.348 53.3099C194.348 51.4896 192.857 50.0147 191.016 50.0147Z" fill="#44B64B"/>
<path d="M198.246 66.5192C197.931 66.5192 197.612 66.4329 197.327 66.2543C195.468 65.0829 193.312 64.4653 191.092 64.4653C188.902 64.4653 186.77 65.0695 184.928 66.2111C184.13 66.7067 183.074 66.4701 182.571 65.6857C182.068 64.8999 182.308 63.8625 183.106 63.3668C185.495 61.8859 188.257 61.103 191.094 61.103C193.968 61.103 196.76 61.9053 199.172 63.4234C199.967 63.9235 200.199 64.9639 199.69 65.7453C199.36 66.2453 198.809 66.5192 198.246 66.5192Z" fill="#44B64B"/>
<path fill-rule="evenodd" clip-rule="evenodd" d="M108.414 55.1516C108.414 51.6912 108.414 48.4748 108.414 46.787C101.759 43.4828 90.8552 43.4798 84.192 46.79C84.192 51.5885 84.192 68.7196 84.192 68.7196C84.192 68.7196 83.7804 73.9751 89.4166 78.4045C93.0798 81.2845 96.3073 82.63 96.3238 82.691C96.3088 82.6359 99.1651 81.3991 102.52 78.8897C103.867 81.4184 105.789 83.5914 108.114 85.2376C108.045 85.2927 107.978 85.3477 107.909 85.4028C101.78 90.2549 96.3013 92.6378 96.3298 92.736C96.3013 92.6318 90.8627 90.3457 84.6875 85.4549C75.186 77.9297 75.8792 69.0039 75.8792 69.0039C75.8792 69.0039 75.8792 49.3633 75.8792 41.2145C87.1112 35.5929 105.493 35.5989 116.708 41.21C116.708 43.9442 116.708 47.9732 116.708 52.1198C113.656 52.4398 110.828 53.5144 108.414 55.1516Z" fill="white"/>
<path fill-rule="evenodd" clip-rule="evenodd" d="M118.563 86.0071C109.835 86.0071 102.759 78.9359 102.759 70.214C102.759 61.4922 109.834 54.4209 118.563 54.4209C127.292 54.4209 134.367 61.4922 134.367 70.214C134.367 78.9359 127.292 86.0071 118.563 86.0071ZM118.391 62.5355C114.147 62.5355 110.707 65.9736 110.707 70.214C110.707 74.4544 114.147 77.8925 118.391 77.8925C122.635 77.8925 126.075 74.4544 126.075 70.214C126.073 65.9722 122.633 62.5355 118.391 62.5355Z" fill="#44B64B"/>
<path d="M135.062 100.999C134.334 100.999 133.599 100.8 132.941 100.38C128.653 97.6521 123.682 96.2098 118.563 96.2098C113.513 96.2098 108.596 97.6164 104.346 100.279C102.505 101.433 100.071 100.883 98.9108 99.0526C97.7506 97.2219 98.303 94.8018 100.144 93.6484C105.653 90.1968 112.023 88.3721 118.563 88.3721C125.191 88.3721 131.631 90.2415 137.189 93.7793C139.023 94.9462 139.557 97.3693 138.384 99.1911C137.632 100.361 136.36 100.999 135.062 100.999Z" fill="#44B64B"/>
</g>
</g>
<defs>
<filter id="filter0_d_459_1232" x="0" y="0" width="402" height="144" filterUnits="userSpaceOnUse" color-interpolation-filters="sRGB">
<feFlood flood-opacity="0" result="BackgroundImageFix"/>
<feColorMatrix in="SourceAlpha" type="matrix" values="0 0 0 0 0 0 0 0 0 0 0 0 0 0 0 0 0 0 127 0" result="hardAlpha"/>
<feOffset dy="3"/>
<feGaussianBlur stdDeviation="10"/>
<feComposite in2="hardAlpha" operator="out"/>
<feColorMatrix type="matrix" values="0 0 0 0 0.0352941 0 0 0 0 0.121569 0 0 0 0 0.266667 0 0 0 0.15 0"/>
<feBlend mode="normal" in2="BackgroundImageFix" result="effect1_dropShadow_459_1232"/>
<feBlend mode="normal" in="SourceGraphic" in2="effect1_dropShadow_459_1232" result="shape"/>
</filter>
<clipPath id="clip0_459_1232">
<rect width="250" height="64" fill="white" transform="translate(76 37)"/>
</clipPath>
</defs>
</svg>
