<svg width="1157" height="353" viewBox="0 0 1157 353" fill="none" xmlns="http://www.w3.org/2000/svg">
<circle cx="15.5" cy="15.5" r="11.25" fill="#DF4A53" stroke="#FCD0C7" stroke-width="7.5"/>
<circle cx="568" cy="329.5" r="11.25" fill="#DF4A53" stroke="#FCD0C7" stroke-width="7.5"/>
<circle cx="1120.5" cy="15.5" r="11.25" fill="#DF4A53" stroke="#FCD0C7" stroke-width="7.5"/>
<path d="M235.668 325.884C253.975 333.312 269.38 336.851 293.294 339.208C317.242 340.634 321.114 341.214 348.399 337.345C356.832 335.836 365.41 333.892 372.786 330.546C389.061 322.978 403.295 316.395 410.925 312.762C413.697 311.442 415.859 310.433 417.788 309.547L417.817 309.534C423.87 307.635 428.109 305.397 441.164 307.889C448.354 309.701 453.829 313.146 457.729 317.521C459.619 319.726 461.255 322.25 461.524 325.223C461.976 328.337 459.08 330.989 456.061 331.327C453.528 331.819 451.205 329.924 450.056 327.724C448.049 324.425 447.879 317.199 453.156 312.417C458.272 307.582 466.378 305.797 474.283 305.432C490.223 304.823 505.944 308.95 514.131 311.002C530.716 315.268 548.778 322.402 559.655 326.951C562.959 328.327 565.643 329.488 567.72 330.402C568.601 330.79 569.006 330.986 568.999 331.003C568.999 331.003 568.999 331.003 568.999 331.003C568.99 331.025 568.341 330.768 567.206 330.286C561.745 327.965 553.69 324.64 544.179 321.183C526.057 314.991 524.247 313.431 499.05 308.031C486.354 305.778 475.979 304.925 465.47 307.126C460.312 308.333 454.813 310.484 451.47 315.431C449.851 317.879 449.014 321.024 449.579 324.221C450.064 327.211 452.319 331.147 455.928 330.616C456.203 330.565 456.466 330.506 456.718 330.439C459.682 329.836 461.321 327.066 460.69 324.546C460.204 322.035 458.785 319.951 457.295 318.198C454.234 314.703 450.592 312.367 446.762 310.663C439.094 307.418 429.862 306.069 418.201 310.51L418.232 310.496C412.727 313.059 406.378 315.998 398.784 319.489C388.09 324.405 380.032 328.149 373.171 331.367C354.381 338.537 343.237 340.743 312.111 341.519C268.693 343.141 216.222 322.317 197.168 304.361C190.353 298.853 183.236 292.044 176.538 283.879C164.093 267.989 148.153 248.242 147.346 223.241C147.54 218.043 148.784 212.021 153.517 208.351C154.717 207.489 156.151 206.851 157.742 206.897C159.332 206.907 160.926 207.953 161.59 209.411C162.902 212.317 162.049 215.487 161.036 218.208L160.963 218.34C141.01 242.168 103.197 238.277 77.3572 227.633C71.0092 225.14 64.3953 222.044 57.7569 218.452C23.047 199.358 14.603 151.337 11.4296 130.764C8.15129 104.571 8.08794 98.0562 8.39289 72.6537C8.78237 58.1044 10.4519 37.9036 14.1685 21.3199C16.1963 13.0155 15.7279 14.8645 13.9364 23.2945C11.5135 35.6417 10.4871 45.9708 10.0023 52.4057C9.17928 65.3679 8.91156 70.8402 8.81267 87.1679C8.91844 103.532 9.92262 111.183 10.8798 120.645C12.9714 129.82 8.21698 130.952 24.3021 176.586C32.9528 197.192 45.6065 210.904 58.2706 217.497C72.99 225.354 84.6493 229.395 94.1276 231.756C107.993 235.614 142.257 239.468 160.045 217.666L159.974 217.796C160.867 215.462 161.448 212.991 160.894 210.793C160.414 208.491 157.982 207.487 155.951 208.335C145.895 213.131 147.305 231.132 153.13 244.595C158.939 258.79 168.458 272.086 177.477 283.109C184.786 292.038 192.334 298.893 197.838 303.317C217.36 317.871 217.812 317.588 235.668 325.884Z" fill="#DF4A53"/>
<path d="M970.839 257.942C981.801 239.349 992.363 223.955 1016.6 212.035C1022.47 209.429 1027.46 208.111 1031.88 207.335C1045.53 204.472 1053.5 202.551 1073.25 190.613C1098.7 174.504 1119.84 149.604 1119.74 135.702C1119.7 131.397 1116.94 129.206 1114.36 128.465C1111.64 127.648 1108.63 127.284 1105.93 129.448C1103.29 131.599 1101.79 136.473 1103.34 142.679C1108.74 160.854 1126.42 161.595 1139.37 155.221C1140.19 154.849 1140.99 154.409 1141.77 153.897C1160.47 144.693 1157.22 88.4278 1151.51 71.2686C1147.22 52.9975 1138.49 33.0157 1129.67 23.4252C1127.05 20.4365 1124.64 18.3323 1122.69 16.8827C1121.87 16.2764 1121.49 16.0151 1121.5 15.9972C1121.5 15.9972 1121.5 15.9972 1121.5 15.9972C1121.51 15.9812 1122.13 16.3445 1123.19 17.1357C1128.39 20.9325 1134.76 28.38 1140.03 38.3898C1149 57.4778 1150.09 59.8229 1155.15 87.8357C1157.01 101.104 1157.37 112.065 1156.2 123.293C1154.56 133.878 1153.37 148.082 1139.67 155.867C1137.83 156.709 1136.08 157.401 1134.07 158.035C1121.38 162.264 1110.56 157.769 1105.62 149.881C1103.09 145.973 1101.5 141.308 1101.94 136.073C1102.2 133.504 1103.07 130.625 1105.45 128.635C1107.85 126.606 1111.44 126.449 1114.66 127.475C1118.46 128.313 1121.36 132.61 1120.72 137.065C1120.33 141.411 1118.41 145.804 1115.87 150.228C1102.99 170.307 1091.81 178.112 1081.61 186.131C1070.97 193.556 1060.02 201.658 1037 207.716C1035.4 208.096 1033.77 208.437 1032.13 208.734C996.179 215.086 969.956 253.882 962.069 281.663C959.524 290.44 955.113 297.345 951.14 302.366C933.592 325.065 894.783 342.584 854.29 338.214C839.501 336.681 823.617 332.052 809.204 323.5C798.12 316.505 784.746 308.598 782.029 294.173C779.855 278.196 807.971 272.169 810.075 288.914C810.368 290.88 810.222 292.889 809.764 294.77C787.239 336.43 718.105 348.842 690.768 351.98C689.827 352.072 688.911 352.154 688.02 352.228C661.304 353.631 653.633 352.64 627.025 348.1C611.235 345.117 589.846 339.055 572.568 331.915C563.878 328.2 565.861 329.046 574.664 332.555C587.55 337.535 598.507 340.79 605.373 342.574C619.214 345.991 625.103 347.413 642.852 350.144C660.675 352.544 669.199 352.236 679.641 351.993C682.798 351.879 684.985 351.764 687.96 351.535C694.704 350.592 706.351 351.321 741.792 340.013C780.882 325.994 809.082 309.297 808.891 289.091C808.298 284.341 804.745 281.155 800.984 280.376C797.561 279.556 792.91 280.043 788.863 282.705C784.761 285.228 782.022 290.81 783.664 296.384C787.104 307.68 798.704 315.759 809.79 322.51C817.83 327.289 826.459 330.887 834.761 333.254C866.298 346.894 935.994 327.05 950.082 301.716C957.05 292.748 959.278 286.441 960.874 281.32C963.101 274.193 964.875 269.059 970.839 257.942Z" fill="#DF4A53"/>
</svg>
