<svg width="375" height="96" viewBox="0 0 375 96" fill="none" xmlns="http://www.w3.org/2000/svg">
<path d="M85.2696 82.5273C90.6007 85.0237 95.236 85.9301 102.292 86.8545C109.397 87.5012 110.537 87.8479 118.688 86.8496C121.646 86.3816 124.649 85.7589 127.1 84.6616C131.511 82.6224 135.316 80.8854 137.406 79.8388C138.672 79.2043 139.523 78.8281 140.357 78.476L140.384 78.4645C141.81 78.0376 143.241 77.4635 146.563 77.8527C148.953 78.2324 150.793 79.2521 152.144 80.6089C152.801 81.2969 153.387 82.081 153.585 83.103C153.677 83.6025 153.614 84.2202 153.235 84.6768C152.863 85.1317 152.32 85.3343 151.8 85.4237C151.213 85.5351 150.617 85.2447 150.249 84.8393C149.341 83.9376 148.944 81.6621 150.368 79.9664C151.755 78.2651 154.286 77.6126 156.611 77.454C161.407 77.1641 166.131 78.398 168.607 78.9643C173.645 80.1621 178.983 82.4311 182.232 83.8298C183.216 84.2522 184.013 84.6142 184.629 84.9024C184.89 85.0247 185.006 85.0957 184.999 85.1127C184.999 85.1127 184.999 85.1127 184.999 85.1127C184.99 85.1339 184.789 85.0715 184.449 84.9284C182.811 84.2406 180.396 83.2678 177.522 82.2842C172.066 80.5382 171.564 79.9451 164.009 78.4257C160.34 77.827 157.284 77.6509 154.319 78.3798C152.875 78.765 151.378 79.4548 150.567 80.8138C150.172 81.4835 149.991 82.3148 150.16 83.1452C150.301 83.9356 150.935 84.8542 151.667 84.7185C151.95 84.6676 152.196 84.587 152.408 84.4517C152.992 84.1003 152.974 83.3481 152.703 82.7163C152.439 82.0862 152.002 81.5449 151.544 81.0942C150.612 80.193 149.557 79.6023 148.462 79.1955C146.272 78.4219 143.81 78.2384 140.758 79.4128L140.789 79.3993C138.944 80.2649 136.769 81.2617 134.06 82.4686C131.4 83.6536 129.29 84.6209 127.482 85.472C120.992 87.8733 117.842 88.618 107.837 88.7191C94.6992 88.9888 79.102 81.878 73.6614 76.1394C72.1621 74.7939 70.6496 73.2494 69.1657 71.443C65.311 66.2552 59.0178 59.5295 60.9866 50.5629C61.4568 49.4578 62.2886 48.005 64.1005 48.0322C65.055 48.0894 65.6639 49.1119 65.6729 49.8395C65.7272 50.6018 65.5458 51.2595 65.2998 51.914L65.2281 52.0453C57.5605 58.8979 45.7268 57.8913 36.6098 55.5613C33.6352 54.7545 30.4653 53.6112 27.3007 52.1503C17.6299 47.9846 10.2001 39.0015 7.45706 33.789C3.75073 26.7842 3.16701 24.8788 1.19806 17.5286C0.146061 13.273 -0.59618 7.24673 -0.549943 2.15324C-0.517373 -0.408633 -0.447174 0.174326 -0.3559 2.74523C-0.196335 6.50279 0.123034 9.57862 0.497301 11.4798C1.29229 15.2673 1.63772 16.8636 2.8742 21.5685C4.21208 26.2558 5.4573 28.2393 6.67543 30.7784C8.25394 33.0399 6.71349 34.2475 16.9444 44.3691C20.7286 47.659 24.4383 49.7462 27.726 51.2071C33.9164 53.923 38.4233 54.8974 41.9066 55.4458C46.6233 56.1888 58.2463 57.1757 64.3084 51.373L64.2371 51.5037C64.4384 50.9745 64.5542 50.4762 64.5361 50.0257C64.4926 49.2996 64.1404 48.9795 63.4197 49.308C62.7303 49.6492 62.1715 50.5421 61.9104 51.524C61.3615 53.5376 61.7853 56.0445 62.587 58.331C64.2682 63.0523 67.3568 67.3035 70.1065 70.6751C71.6944 72.6088 73.2295 74.1123 74.4572 75.1967C80.0419 79.7522 80.1035 79.7738 85.2696 82.5273Z" fill="#DF4A53"/>
<path d="M299.839 65.9999C302.817 60.459 306.06 56.0245 313.217 52.6657C315.761 51.5684 317.673 51.1508 319.387 50.8758C322.402 50.3562 324.871 49.9259 329.994 47.6124C337.603 44.1187 345.641 37.7851 344.569 34.3301C344.312 33.8657 343.829 33.6396 343.352 33.485C342.333 33.182 341.497 33.089 340.741 33.6124C340.004 34.1074 339.577 35.6928 340.743 37.4758C343.507 41.0354 347.243 41.0593 350.793 40.7584C351.464 40.6814 352.162 40.538 352.888 40.3243C357.996 39.7003 368.547 28.5597 370.634 23.5419C373.247 18.8424 375.311 12.9682 375.401 9.23916C375.46 8.09635 375.414 7.18548 375.35 6.49261C375.322 6.20067 375.318 6.06558 375.337 6.06247C375.337 6.06247 375.337 6.06247 375.337 6.06247C375.359 6.0592 375.417 6.26154 375.463 6.6393C375.701 8.47181 375.636 11.2744 374.874 14.464C373.184 20.3135 372.85 21.0046 368.427 27.9176C363.56 34.2099 360.396 39.1329 350.888 41.4752C350.781 41.4882 350.675 41.5004 350.569 41.5116C346.578 41.9047 343.601 41.2204 341.325 39.3648C340.235 38.4249 339.233 37.1215 339.138 35.3031C339.101 34.4314 339.426 33.2956 340.41 32.6805C341.382 32.0698 342.585 32.1448 343.659 32.4778C344.603 32.6903 345.877 33.7439 345.719 35.0989C345.624 36.3657 344.974 37.4004 344.224 38.4103C334.366 47.8138 332.543 48.649 319.631 52.2275C319.538 52.2447 319.445 52.2626 319.351 52.281C310.281 53.7594 301.531 62.0523 299.357 70.2491C298.193 74.1625 295.836 76.9281 293.984 78.7289C288.06 84.5871 276.596 88.9665 264.891 86.8387C261.245 86.1854 257.425 84.885 253.869 82.7804C250.615 80.7011 246.635 78.4862 245.683 73.9101C244.932 68.6828 253.936 66.6249 254.747 72.1989C254.93 73.442 254.565 74.6499 254.027 75.6469C245.812 86.7478 226.708 90.3872 218.601 91.0429C218.577 91.0448 218.552 91.0466 218.528 91.0484C210.216 91.4061 208.133 91.0532 200.227 89.7197C195.674 88.8592 189.53 87.0776 184.582 84.9359C182.099 83.8258 182.697 84.0178 185.232 85.002C188.953 86.402 192.082 87.3686 194.076 87.8181C198.083 88.6713 199.771 89.0273 204.844 89.9256C209.936 90.7313 212.395 90.4771 215.374 90.4659C216.51 90.4457 217.208 90.4425 218.469 90.3645C220.497 90.1514 224.18 90.1603 233.207 87.31C245.563 83.0488 253.759 77.6458 253.546 72.3774C253.444 71.7032 253.157 71.1596 252.744 70.7905C251.616 69.3922 246.77 70.0793 246.877 73.5888C247.233 76.999 251.09 79.7556 254.451 81.7983C256.135 82.8004 257.886 83.6118 259.599 84.227C268.297 88.7113 288.304 84.3395 293.099 77.8696C296.827 73.9691 297.289 72.3708 298.228 69.9254C298.573 68.8581 299.024 67.6283 299.839 65.9999Z" fill="#DF4A53"/>
<circle cx="190" cy="86" r="7.5" fill="#DF4A53" stroke="#FCD0C7" stroke-width="5"/>
</svg>
