<svg width="48" height="48" viewBox="0 0 48 48" fill="none" xmlns="http://www.w3.org/2000/svg">
<path fill-rule="evenodd" clip-rule="evenodd" d="M28.6947 22.6517C28.4421 22.2519 28.0856 21.9284 27.6633 21.7157C27.241 21.503 26.7688 21.4091 26.2972 21.4442C25.7434 21.4733 25.1988 21.5977 24.6872 21.8117C24.5822 21.5492 24.4947 21.2692 24.4072 20.9892L24.0922 20.2367C24.5716 20.1109 25.0671 20.0578 25.5622 20.0792C25.7362 20.1042 25.913 20.0594 26.054 19.9544C26.195 19.8495 26.2888 19.693 26.3147 19.5192C26.3298 19.4307 26.3272 19.3401 26.3072 19.2526C26.2872 19.1651 26.2501 19.0824 26.1981 19.0093C26.1461 18.9361 26.0801 18.8739 26.004 18.8263C25.928 18.7787 25.8432 18.7465 25.7547 18.7317C25.0188 18.6106 24.2681 18.6106 23.5322 18.7317C23.2522 18.0142 22.9372 17.2792 22.6747 16.5617C22.6331 16.3935 22.5276 16.2482 22.3805 16.1567C22.2334 16.0652 22.0564 16.0347 21.8872 16.0717C21.8028 16.0902 21.7229 16.1254 21.6523 16.1753C21.5817 16.2252 21.5218 16.2887 21.4761 16.3621C21.4305 16.4355 21.3999 16.5173 21.3864 16.6026C21.3728 16.688 21.3765 16.7752 21.3972 16.8592C21.4847 17.6642 21.6422 18.4867 21.7472 19.2917C21.3801 19.3939 21.0229 19.5286 20.6797 19.6942C20.3429 19.886 20.0478 20.1433 19.8119 20.4509C19.576 20.7585 19.4041 21.1102 19.3062 21.4853C19.2084 21.8604 19.1866 22.2513 19.2421 22.6349C19.2977 23.0186 19.4295 23.3872 19.6297 23.7192C19.8286 24.1403 20.1395 24.4986 20.5284 24.7548C20.9173 25.011 21.3693 25.1552 21.8347 25.1717C22.2826 25.162 22.726 25.0793 23.1472 24.9267L23.3572 25.4692C23.6022 26.0467 23.8997 26.5892 24.1622 27.2192C23.3341 27.5425 22.4203 27.5734 21.5722 27.3067C21.4838 27.2658 21.3882 27.2428 21.2909 27.2392C21.1936 27.2355 21.0965 27.2513 21.0054 27.2855C20.9142 27.3197 20.8307 27.3716 20.7598 27.4384C20.6889 27.5051 20.6319 27.5852 20.5922 27.6742C20.5485 27.7634 20.5234 27.8606 20.5183 27.9598C20.5132 28.059 20.5283 28.1583 20.5626 28.2515C20.597 28.3448 20.6499 28.4301 20.7181 28.5023C20.7864 28.5745 20.8686 28.6321 20.9597 28.6717C22.2272 29.1966 23.6376 29.2646 24.9497 28.8642L25.4222 29.8267C25.4588 29.9187 25.5133 30.0026 25.5824 30.0736C25.6515 30.1445 25.7339 30.2012 25.825 30.2402C25.916 30.2792 26.0139 30.2999 26.113 30.301C26.212 30.3021 26.3103 30.2836 26.4022 30.2467C26.4987 30.2108 26.5866 30.155 26.6601 30.083C26.7337 30.011 26.7913 29.9244 26.8293 29.8287C26.8672 29.733 26.8846 29.6304 26.8804 29.5276C26.8762 29.4247 26.8504 29.3239 26.8047 29.2317L26.5422 28.2342C26.9222 28.0712 27.2855 27.872 27.6272 27.6392C28.0362 27.392 28.3902 27.0637 28.6675 26.6745C28.9447 26.2853 29.1394 25.8435 29.2394 25.3762C29.3394 24.909 29.3427 24.4262 29.249 23.9576C29.1553 23.489 28.9667 23.0446 28.6947 22.6517ZM21.5897 22.6517C21.1697 22.0392 21.4847 21.5142 22.0097 21.1292C22.0097 21.3042 22.0097 21.4792 22.0972 21.6542C22.1847 21.8292 22.2722 22.3367 22.3772 22.6867L22.0622 22.7917C21.8872 22.8267 21.7122 22.8442 21.5897 22.6692V22.6517ZM25.9997 26.3092C25.8772 25.7842 25.7372 25.2767 25.5972 24.7692L25.4397 24.2092C25.6949 24.101 25.9582 24.0132 26.2272 23.9467C26.4022 23.9467 26.5772 23.9467 26.6822 24.0517C27.3297 24.9092 26.8047 25.7317 25.9997 26.3267V26.3092Z" fill="white"/>
<path fill-rule="evenodd" clip-rule="evenodd" d="M42.7822 19.6067C42.4096 18.5759 41.9832 17.5653 41.5047 16.5792C40.9729 15.5863 40.3888 14.6225 39.7547 13.6917C38.3064 11.5466 36.6664 9.53756 34.8547 7.68917C34.7957 7.625 34.724 7.57377 34.6442 7.53873C34.5644 7.50369 34.4781 7.4856 34.391 7.4856C34.3038 7.4856 34.2175 7.50369 34.1377 7.53873C34.0579 7.57377 33.9862 7.625 33.9272 7.68917C33.8197 7.7836 33.7511 7.91456 33.7347 8.05667C33.6108 7.96435 33.4605 7.91448 33.306 7.91448C33.1515 7.91448 33.0011 7.96435 32.8772 8.05667C31.1482 9.21401 29.3544 10.2716 27.5047 11.2242C26.3288 11.8317 25.0744 12.2734 23.7772 12.5367C21.0303 12.8548 18.2624 12.9543 15.4997 12.8342C14.2302 12.9016 12.9731 13.1189 11.7547 13.4817C10.4063 13.9403 9.13265 14.5948 7.97471 15.4242C6.32032 16.5953 4.82089 17.9713 3.51221 19.5192C3.45182 19.5945 3.40811 19.6819 3.38397 19.7754C3.35984 19.8689 3.35583 19.9665 3.37221 20.0617C3.2266 20.1305 3.11186 20.2511 3.05038 20.3999C2.9889 20.5488 2.9851 20.7152 3.03971 20.8667C3.70471 23.0892 4.26471 25.3992 5.01721 27.6742C5.63744 29.6244 6.41586 31.5207 7.34471 33.3442C8.41849 35.508 9.6589 37.5851 11.0547 39.5567C11.1391 39.6764 11.2582 39.7673 11.3958 39.8174C11.5335 39.8674 11.6831 39.8742 11.8247 39.8367C11.8129 39.9924 11.8563 40.1472 11.9472 40.2742C12.0596 40.4062 12.2179 40.4905 12.3902 40.51C12.5625 40.5295 12.7357 40.4827 12.8747 40.3792C14.5403 39.1636 16.2953 38.0755 18.1247 37.1242C19.853 36.1905 21.7299 35.5629 23.6722 35.2692C25.5776 34.961 27.5006 34.774 29.4297 34.7092C31.4622 34.6213 33.4827 34.3519 35.4672 33.9042C38.2093 33.281 40.7312 31.9263 42.7647 29.9842C42.9138 29.8554 43.0065 29.6734 43.0229 29.477C43.0392 29.2807 42.978 29.0858 42.8522 28.9342C42.7068 28.8001 42.5162 28.7257 42.3185 28.7257C42.1207 28.7257 41.9301 28.8001 41.7847 28.9342C39.8324 30.4925 37.5123 31.5229 35.0472 31.9267C33.1373 32.1657 31.2145 32.2884 29.2897 32.2942C27.2581 32.3343 25.2332 32.5391 23.2347 32.9067C21.4973 33.3069 19.8284 33.9614 18.2822 34.8492C16.1892 36.0848 14.2252 37.527 12.4197 39.1542C12.438 39.05 12.438 38.9434 12.4197 38.8392C11.2982 36.6889 10.3048 34.4742 9.44471 32.2067C8.84971 30.7192 8.28971 29.2142 7.69471 27.7442C6.64471 25.2592 5.45471 22.8442 4.36971 20.4817H4.52721C5.65986 19.3546 6.90942 18.3514 8.25471 17.4892C9.51774 16.6675 10.9158 16.0751 12.3847 15.7392C13.5353 15.4963 14.7088 15.3789 15.8847 15.3892H21.7647C22.6328 15.3147 23.4933 15.1684 24.3372 14.9517C25.8043 14.5606 27.2113 13.9719 28.5197 13.2017C30.3403 12.0175 32.0931 10.7322 33.7697 9.35167C33.8721 9.2578 33.9451 9.13621 33.9797 9.00167C35.3355 10.9775 36.5687 13.0347 37.6722 15.1617C38.1797 16.0892 38.6697 17.0167 39.1597 17.9617C39.6497 18.9067 40.1397 19.8342 40.6122 20.7967C41.7245 22.962 42.7006 25.1947 43.5347 27.4817C43.561 27.5771 43.6059 27.6664 43.6668 27.7445C43.7276 27.8226 43.8033 27.8879 43.8895 27.9367C43.9757 27.9854 44.0706 28.0167 44.1689 28.0287C44.2672 28.0408 44.3668 28.0333 44.4622 28.0067C44.6518 27.9499 44.8113 27.8207 44.9063 27.6471C45.0013 27.4735 45.0241 27.2694 44.9697 27.0792C44.4554 24.5304 43.7235 22.0304 42.7822 19.6067Z" fill="white"/>
<path fill-rule="evenodd" clip-rule="evenodd" d="M32.9472 27.5867C32.8518 27.5605 32.7521 27.5539 32.6541 27.5673C32.556 27.5806 32.4617 27.6136 32.3767 27.6643C32.2918 27.7149 32.2179 27.7822 32.1596 27.8621C32.1012 27.942 32.0596 28.0328 32.0372 28.1292C32.0108 28.2234 32.0035 28.3219 32.0158 28.419C32.028 28.5161 32.0595 28.6098 32.1084 28.6946C32.1573 28.7793 32.2226 28.8535 32.3005 28.9126C32.3785 28.9718 32.4674 29.0148 32.5622 29.0392C33.6303 29.3103 34.7491 29.3103 35.8172 29.0392C37.3356 28.6694 38.7918 28.0799 40.1397 27.2892C40.3768 27.0722 40.5497 26.7941 40.6392 26.4854C40.7287 26.1767 40.7315 25.8493 40.6472 25.5392C40.1962 23.2737 39.4305 21.0824 38.3722 19.0292C37.6036 17.4264 36.6711 15.9074 35.5897 14.4967C35.0337 13.6891 34.2379 13.0769 33.3147 12.7467C32.836 12.7034 32.3591 12.8477 31.9847 13.1492C30.7248 14.4455 29.1954 15.4492 27.5047 16.0892C27.4113 16.0972 27.3207 16.1249 27.2388 16.1704C27.1568 16.2159 27.0854 16.2782 27.0293 16.3533C26.9731 16.4283 26.9335 16.5143 26.9129 16.6058C26.8923 16.6972 26.8913 16.792 26.9099 16.8838C26.9286 16.9757 26.9664 17.0626 27.0209 17.1388C27.0755 17.215 27.1455 17.2788 27.2265 17.3261C27.3074 17.3733 27.3974 17.4029 27.4906 17.4129C27.5838 17.4229 27.6781 17.4131 27.7672 17.3842C28.6829 17.2258 29.5647 16.9121 30.3747 16.4567C31.3537 16.0783 32.2871 15.5911 33.1572 15.0042L33.2447 15.1267C33.7599 15.7944 34.2111 16.5092 34.5922 17.2617C35.4147 18.6792 36.3422 20.4292 36.9897 22.0217C37.4857 23.0822 37.9238 24.1688 38.3022 25.2767C38.3022 25.4517 38.4422 25.6442 38.4947 25.7842C37.5221 26.4364 36.4692 26.9599 35.3622 27.3417C34.5908 27.6261 33.76 27.7104 32.9472 27.5867Z" fill="white"/>
<path fill-rule="evenodd" clip-rule="evenodd" d="M12.0172 20.3767C12.9625 19.826 14.0003 19.4524 15.0797 19.2742C16.2325 19.0458 17.4153 19.0103 18.5797 19.1692C18.7532 19.195 18.9299 19.1531 19.0733 19.052C19.2167 18.951 19.3156 18.7987 19.3497 18.6267C19.3645 18.5366 19.3606 18.4444 19.3382 18.3559C19.3159 18.2674 19.2755 18.1845 19.2197 18.1122C19.1639 18.04 19.0938 17.98 19.0138 17.9361C18.9338 17.8921 18.8456 17.8651 18.7547 17.8567C17.4702 17.5625 16.148 17.4681 14.8347 17.5767C13.449 17.6607 12.0906 17.9988 10.8272 18.5742C10.1301 18.9847 9.49882 19.498 8.9547 20.0967C8.49641 20.5904 8.17122 21.1926 8.0097 21.8467C7.91322 22.2966 7.91322 22.7618 8.0097 23.2117C8.10534 23.7022 8.22803 24.1871 8.3772 24.6642C8.6222 25.4167 8.8497 26.2217 9.1297 26.9917C9.4097 27.7617 9.7247 28.5492 10.0747 29.3192L12.2797 33.7292C12.3916 33.9265 12.5592 34.0865 12.7615 34.1892C12.9638 34.2919 13.1918 34.3328 13.4172 34.3067C13.9072 34.1842 14.8172 33.2742 16.3572 32.5567C16.9132 32.2646 17.5002 32.0357 18.1072 31.8742C18.2138 31.8687 18.318 31.8405 18.4129 31.7916C18.5078 31.7428 18.5912 31.6743 18.6576 31.5907C18.724 31.5071 18.7718 31.4103 18.7979 31.3068C18.8241 31.2033 18.8279 31.0955 18.8091 30.9904C18.7903 30.8853 18.7494 30.7854 18.6891 30.6974C18.6288 30.6093 18.5504 30.5351 18.4592 30.4797C18.368 30.4242 18.266 30.3888 18.1601 30.3758C18.0541 30.3628 17.9466 30.3725 17.8447 30.4042C17.0661 30.5241 16.3032 30.7295 15.5697 31.0167C14.9007 31.3097 14.2618 31.6672 13.6622 32.0842L12.1922 28.4617L10.7047 24.0517C10.6172 23.7192 10.4947 23.4042 10.4072 23.0542C10.3726 22.8691 10.3726 22.6792 10.4072 22.4942C10.4949 22.1431 10.6763 21.8225 10.9322 21.5667C11.2534 21.1349 11.6168 20.7362 12.0172 20.3767Z" fill="white"/>
</svg>
