<svg width="42" height="42" viewBox="0 0 42 42" fill="none" xmlns="http://www.w3.org/2000/svg">
<g clip-path="url(#clip0_53_1091)">
<path fill-rule="evenodd" clip-rule="evenodd" d="M21.245 22.75C22.6008 23.001 23.9963 22.9352 25.3225 22.5575C27.1841 21.973 28.9521 21.1244 30.5725 20.0375C30.6426 19.9852 30.6986 19.9161 30.7353 19.8367C30.772 19.7572 30.7882 19.6698 30.7825 19.5825C31.2276 20.1038 31.7008 20.6003 32.2 21.07C32.4481 21.3099 32.7175 21.5266 33.005 21.7175C33.2851 21.9305 33.5838 22.1179 33.8975 22.2775C34.615 22.6975 35.35 23.03 36.1025 23.38C36.1642 23.4224 36.2338 23.452 36.3071 23.4671C36.3805 23.4821 36.4561 23.4823 36.5295 23.4676C36.6029 23.4529 36.6727 23.4237 36.7346 23.3816C36.7965 23.3395 36.8493 23.2854 36.89 23.2225C36.972 23.0937 37.0014 22.9384 36.9721 22.7885C36.9428 22.6387 36.857 22.5058 36.7325 22.4175C36.1025 21.8925 35.5425 21.3325 34.9825 20.8075C34.7315 20.578 34.4687 20.3619 34.195 20.16C33.915 19.9675 33.635 19.775 33.3375 19.6C33.04 19.425 32.3225 19.04 31.7975 18.795L31.99 18.6725C32.3272 18.4317 32.6381 18.156 32.9175 17.85C33.6724 17.0148 34.2233 16.016 34.5269 14.932C34.8306 13.8479 34.8787 12.7083 34.6675 11.6025C34.2787 9.41112 33.2211 7.39382 31.64 5.82749C30.2184 4.38452 28.384 3.4184 26.39 3.06249C24.3288 2.71681 22.212 3.12032 20.4225 4.19999C18.9403 5.04087 17.5998 6.10978 16.45 7.36749C15.6837 8.25924 15.0903 9.28592 14.7 10.395C14.305 11.646 14.1681 12.9642 14.2974 14.2697C14.4268 15.5751 14.8197 16.8408 15.4525 17.99C16.005 19.163 16.8113 20.1986 17.8131 21.0218C18.8149 21.845 19.9871 22.4353 21.245 22.75ZM16.415 11.06C16.8611 9.94724 17.5346 8.9399 18.3925 8.10249C19.3159 7.24138 20.3312 6.48434 21.42 5.84499C22.8171 4.97073 24.478 4.6175 26.11 4.84749C27.7713 5.09505 29.3167 5.84635 30.5375 6.99999C31.9343 8.28615 32.8845 9.98426 33.25 11.8475C33.466 12.7601 33.4645 13.7107 33.2456 14.6226C33.0268 15.5346 32.5966 16.3823 31.99 17.0975C31.71 17.4145 31.3927 17.6966 31.045 17.9375C30.6803 18.1936 30.3004 18.4273 29.9075 18.6375C29.7741 18.7083 29.6737 18.8286 29.6279 18.9725C29.5821 19.1164 29.5945 19.2726 29.6625 19.4075C28.1946 20.2856 26.6097 20.9514 24.955 21.385C23.8044 21.6588 22.6056 21.6588 21.455 21.385C20.4439 21.0596 19.5145 20.5209 18.7295 19.8054C17.9446 19.0899 17.3224 18.2142 16.905 17.2375C15.9333 15.3235 15.7572 13.1032 16.415 11.06Z" fill="white"/>
<path fill-rule="evenodd" clip-rule="evenodd" d="M20.4225 17.815L22.7675 18.1825H24.22C25.3575 18.1825 26.425 17.8675 27.5625 17.885C27.7104 17.9001 27.8584 17.8576 27.9758 17.7663C28.0931 17.6751 28.1707 17.5421 28.1925 17.395C28.2125 17.2443 28.1722 17.0918 28.0805 16.9706C27.9888 16.8494 27.853 16.7692 27.7025 16.7475C26.714 16.4783 25.6986 16.3198 24.675 16.275L25.9875 10.5C26.1328 9.84389 26.2206 9.17637 26.25 8.50501C26.2579 8.11552 26.1865 7.72849 26.04 7.36751C25.9789 7.20212 25.8728 7.0571 25.7337 6.94887C25.5945 6.84063 25.4278 6.77348 25.2525 6.755C24.5525 6.755 24.675 6.94751 23.59 8.03251L21.5425 10.2025C21.445 10.2907 21.3866 10.414 21.38 10.5453C21.3735 10.6765 21.4193 10.805 21.5075 10.9025C21.5957 11 21.719 11.0584 21.8503 11.065C21.9815 11.0715 22.11 11.0257 22.2075 10.9375L24.2375 9.4675C24.2375 9.7475 24.1325 10.01 24.0975 10.2375L23.7825 12.6875C23.6425 13.895 23.5375 15.1025 23.485 16.3275H22.715L20.3175 16.7475C20.2444 16.7439 20.1713 16.7562 20.1034 16.7835C20.0354 16.8108 19.9742 16.8525 19.9239 16.9057C19.8736 16.9589 19.8354 17.0224 19.8119 17.0917C19.7885 17.1611 19.7803 17.2347 19.7879 17.3075C19.7956 17.3803 19.8189 17.4506 19.8563 17.5136C19.8937 17.5765 19.9443 17.6307 20.0046 17.6722C20.0649 17.7138 20.1334 17.7418 20.2056 17.7544C20.2777 17.7669 20.3517 17.7637 20.4225 17.745V17.815Z" fill="white"/>
<path fill-rule="evenodd" clip-rule="evenodd" d="M3.79748 15.75C3.89475 15.841 4.023 15.8917 4.15623 15.8917C4.28946 15.8917 4.4177 15.841 4.51498 15.75C4.56154 15.7044 4.59853 15.6499 4.62379 15.5898C4.64904 15.5297 4.66205 15.4652 4.66205 15.4C4.66205 15.3348 4.64904 15.2703 4.62379 15.2102C4.59853 15.1501 4.56154 15.0956 4.51498 15.05C4.22853 14.5854 3.8878 14.1565 3.49998 13.7725C3.33304 13.608 3.14467 13.4667 2.93998 13.3525C2.74191 13.2343 2.53041 13.1403 2.30998 13.0725C1.79711 12.914 1.26936 12.8084 0.734977 12.7575C0.591075 12.7069 0.433022 12.7154 0.295319 12.781C0.157615 12.8465 0.0514423 12.9639 -2.34134e-05 13.1075C-0.0505652 13.2514 -0.0421287 13.4094 0.0234445 13.5471C0.0890178 13.6848 0.206403 13.791 0.349977 13.8425C0.769977 14.105 1.10248 14.4025 1.48748 14.6825C1.63523 14.8014 1.79336 14.9068 1.95998 14.9975L2.44998 15.2775C2.92248 15.47 3.34248 15.575 3.79748 15.75Z" fill="white"/>
<path fill-rule="evenodd" clip-rule="evenodd" d="M4.7075 9.97502C4.8849 10.3051 5.09603 10.6159 5.3375 10.9025C5.78786 11.3931 6.27968 11.8439 6.8075 12.25C6.89384 12.3334 7.00695 12.3835 7.12674 12.3914C7.24652 12.3993 7.36523 12.3645 7.46177 12.2931C7.55831 12.2218 7.62643 12.1185 7.65403 12.0017C7.68162 11.8849 7.66691 11.762 7.6125 11.655C7.385 11.0775 7.245 10.5 7 10.0275C6.89303 9.80134 6.75778 9.58965 6.5975 9.39752C6.45724 9.16516 6.29301 8.94814 6.1075 8.75002C5.66109 8.32773 5.16789 7.95783 4.6375 7.64752C4.58528 7.59354 4.52274 7.55061 4.45359 7.52129C4.38445 7.49198 4.31011 7.47687 4.235 7.47687C4.1599 7.47687 4.08556 7.49198 4.01641 7.52129C3.94727 7.55061 3.88472 7.59354 3.8325 7.64752C3.72774 7.75531 3.66913 7.8997 3.66913 8.05002C3.66913 8.20033 3.72774 8.34473 3.8325 8.45252C4.2175 9.01252 4.41 9.50252 4.7075 9.97502Z" fill="white"/>
<path fill-rule="evenodd" clip-rule="evenodd" d="M10.9725 10.5C10.9944 10.6163 11.0562 10.7212 11.1472 10.7968C11.2383 10.8723 11.3529 10.9136 11.4712 10.9136C11.5895 10.9136 11.7041 10.8723 11.7952 10.7968C11.8863 10.7212 11.9481 10.6163 11.97 10.5C12.0954 9.92224 12.1889 9.33802 12.25 8.74998C12.2761 8.52908 12.2761 8.30588 12.25 8.08498V7.40248C12.25 6.85998 12.04 6.36998 11.9525 5.80998C11.9531 5.67012 11.9014 5.5351 11.8074 5.43146C11.7135 5.32783 11.5842 5.26309 11.445 5.24998C11.37 5.24525 11.2948 5.25566 11.224 5.28058C11.1531 5.30551 11.088 5.34444 11.0324 5.39506C10.9769 5.44567 10.9322 5.50695 10.9008 5.57522C10.8695 5.6435 10.8522 5.71738 10.85 5.79248C10.71 6.35248 10.57 6.85998 10.465 7.41998C10.4476 7.65883 10.4476 7.89863 10.465 8.13748C10.4633 8.34219 10.475 8.54679 10.5 8.74998C10.6088 9.34538 10.7668 9.93073 10.9725 10.5Z" fill="white"/>
<path fill-rule="evenodd" clip-rule="evenodd" d="M7.26295 16.363C7.14197 16.8278 7.06002 17.302 7.01795 17.7805L6.47545 22.593C6.26545 24.343 6.09045 26.093 6.02045 27.843C5.95352 30.4774 6.05289 33.1135 6.31795 35.7355C6.32014 35.8014 6.3356 35.8662 6.36343 35.926C6.39126 35.9858 6.43087 36.0393 6.47989 36.0834C6.52891 36.1276 6.58634 36.1613 6.64872 36.1827C6.71111 36.2041 6.77717 36.2127 6.84295 36.208C6.90961 36.2057 6.97517 36.1903 7.03588 36.1627C7.09659 36.1351 7.15127 36.0958 7.19677 36.047C7.24228 35.9983 7.27773 35.941 7.3011 35.8785C7.32447 35.8161 7.33529 35.7496 7.33295 35.683C7.33295 33.933 7.33295 32.183 7.57795 30.5205C7.57795 29.488 7.78795 28.473 7.87545 27.4405C8.03295 25.9005 8.17295 24.3605 8.36545 22.838L8.59295 17.9555C8.59295 17.728 8.92545 16.993 8.59295 16.818C8.85745 16.6547 9.15783 16.5586 9.46795 16.538H11.638C11.7856 16.548 11.9315 16.5009 12.0455 16.4065C12.1595 16.312 12.2328 16.1774 12.2505 16.0305C12.2528 15.9555 12.24 15.8807 12.213 15.8108C12.1859 15.7408 12.145 15.677 12.0927 15.6231C12.0405 15.5692 11.978 15.5264 11.9089 15.4972C11.8398 15.468 11.7655 15.4529 11.6905 15.453C10.7948 15.3 9.88624 15.2356 8.97795 15.2605C8.51867 15.3177 8.08023 15.4859 7.70045 15.7505C7.49719 15.9068 7.34492 16.12 7.26295 16.363Z" fill="white"/>
<path fill-rule="evenodd" clip-rule="evenodd" d="M41.4574 37.9225L38.3074 37.66C38.4824 36.6975 38.6399 35.7875 38.7974 34.7725C38.9377 33.7921 39.0254 32.8048 39.0599 31.815C39.0204 31.5779 38.9111 31.358 38.7458 31.1834C38.5806 31.0088 38.367 30.8875 38.1324 30.835C37.4324 30.625 35.5774 30.3625 35.4024 30.3275C34.6467 30.1315 33.8816 29.9738 33.1099 29.855C32.9239 29.8347 32.7357 29.8572 32.5598 29.9209C32.3838 29.9846 32.2248 30.0878 32.0949 30.2225C31.8567 30.5197 31.7052 30.8771 31.6574 31.255C31.5791 31.8348 31.5498 32.4202 31.5699 33.005V37.1L27.3174 36.75H26.8449L27.2999 30.4325C27.3871 29.701 27.4163 28.9637 27.3874 28.2275C27.3765 27.7894 27.2689 27.3592 27.0724 26.9675C26.8052 26.5719 26.3993 26.2909 25.9349 26.18C24.9226 25.9662 23.8895 25.8664 22.8549 25.8825H21.4374C21.128 25.8708 20.8191 25.9183 20.5274 26.0225C20.3351 26.1055 20.1651 26.2328 20.0313 26.394C19.8975 26.5552 19.8037 26.7457 19.7574 26.95C19.5951 28.1093 19.5249 29.2796 19.5474 30.45L19.3549 36.575H17.4999L15.0499 36.75C15.0499 35.3675 15.2249 33.74 15.3299 32.025C15.3299 30.7825 15.4699 29.4875 15.5049 28.2275V21.84C15.5122 21.7742 15.506 21.7077 15.4868 21.6444C15.4676 21.581 15.4358 21.5223 15.3933 21.4716C15.3508 21.4209 15.2984 21.3793 15.2394 21.3494C15.1804 21.3195 15.116 21.3018 15.0499 21.2975C14.9832 21.2902 14.9157 21.2963 14.8514 21.3153C14.787 21.3343 14.7271 21.3658 14.675 21.4081C14.6229 21.4505 14.5797 21.5027 14.548 21.5618C14.5162 21.6209 14.4965 21.6857 14.4899 21.7525C14.2449 23.275 13.8949 25.2525 13.6674 27.3175C13.5799 28.105 13.5449 28.91 13.4924 29.7325C13.4399 30.555 13.4924 31.3425 13.4924 32.1475C13.4924 33.8975 13.6324 35.455 13.7724 36.8375C10.1324 37.1 6.49243 37.45 2.83493 37.415C2.71865 37.4369 2.61367 37.4987 2.53814 37.5898C2.4626 37.6808 2.42126 37.7954 2.42126 37.9138C2.42126 38.0321 2.4626 38.1467 2.53814 38.2377C2.61367 38.3288 2.71865 38.3906 2.83493 38.4125C4.68993 38.5525 6.54493 38.5875 8.39993 38.5875C10.9374 38.5 13.5099 38.5 16.0999 38.5H21.1749L41.3874 39.13C41.4701 39.1326 41.5523 39.1179 41.629 39.0869C41.7056 39.0559 41.775 39.0093 41.8326 38.9501C41.8902 38.8908 41.9349 38.8201 41.9637 38.7427C41.9925 38.6652 42.0048 38.5825 41.9999 38.5C42.0023 38.4265 41.9901 38.3532 41.9641 38.2843C41.9381 38.2155 41.8988 38.1525 41.8484 38.0988C41.798 38.0452 41.7375 38.002 41.6704 37.9718C41.6034 37.9415 41.531 37.9248 41.4574 37.9225ZM20.4574 36.505L21.2099 30.485C21.3127 29.601 21.4705 28.7243 21.6824 27.86H22.8899C24.9899 27.86 25.5674 27.685 25.6549 28.7V30.45V36.75C24.2024 36.75 22.7499 36.61 21.2274 36.5575L20.4574 36.505ZM33.2499 33.0925C33.2499 32.83 33.2499 32.41 33.3899 32.0075L35.1399 32.235C35.2624 32.235 36.5399 32.3925 37.3274 32.5325C37.3624 33.2262 37.3624 33.9213 37.3274 34.615C37.3274 35.595 37.1874 36.575 37.0999 37.5375L32.7774 37.1875L33.2499 33.0925Z" fill="white"/>
</g>
<defs>
<clipPath id="clip0_53_1091">
<rect width="42" height="42" fill="white"/>
</clipPath>
</defs>
</svg>
