<svg width="48" height="48" viewBox="0 0 48 48" fill="none" xmlns="http://www.w3.org/2000/svg">
<path fill-rule="evenodd" clip-rule="evenodd" d="M26.0573 36.9155C27.7699 36.8018 29.42 36.228 30.8337 35.2547C32.2475 34.2815 33.3723 32.9447 34.0898 31.3855C34.7747 29.8118 35.1106 28.1084 35.0743 26.3925C35.0381 24.6765 34.6306 22.9888 33.8798 21.4455C33.0583 19.7677 31.7621 18.3681 30.1523 17.4205C28.5543 16.4933 26.7491 15.9818 24.9023 15.933C23.0514 15.9027 21.2183 16.297 19.5437 17.0858C17.8691 17.8746 16.3976 19.0367 15.2423 20.483C14.421 21.5246 13.8219 22.7233 13.4817 24.0053C13.1415 25.2874 13.0675 26.6255 13.2642 27.9372C13.461 29.2489 13.9243 30.5064 14.6257 31.6322C15.3271 32.758 16.2516 33.7282 17.3423 34.483C19.2698 35.7317 21.4414 36.555 23.7123 36.898C23.804 36.9275 23.9009 36.9374 23.9967 36.9268C24.0924 36.9162 24.1849 36.8855 24.2679 36.8366C24.351 36.7877 24.4227 36.7218 24.4784 36.6432C24.5342 36.5646 24.5726 36.4751 24.5913 36.3806C24.61 36.286 24.6084 36.1886 24.5867 36.0947C24.565 36.0009 24.5237 35.9126 24.4654 35.8359C24.4072 35.7591 24.3334 35.6956 24.2488 35.6494C24.1642 35.6032 24.0708 35.5755 23.9748 35.568C22.2761 35.2211 20.6487 34.5879 19.1623 33.6955C17.7425 32.8601 16.622 31.5987 15.9598 30.0905C15.3642 28.772 15.1613 27.3097 15.3755 25.8789C15.5897 24.4481 16.2118 23.1093 17.1673 22.023C18.0977 20.9122 19.2633 20.022 20.5798 19.4167C21.8963 18.8114 23.3309 18.5062 24.7798 18.523C26.1981 18.563 27.5855 18.9474 28.8223 19.643C30.0531 20.2994 31.0634 21.3037 31.7273 22.5305C32.3968 23.7655 32.7905 25.131 32.8811 26.5328C32.9717 27.9347 32.7572 29.3396 32.2523 30.6505C31.7068 31.9552 30.8187 33.088 29.6819 33.9291C28.545 34.7701 27.2019 35.288 25.7948 35.428C25.6059 35.4681 25.439 35.5777 25.3271 35.7351C25.2153 35.8925 25.1667 36.0862 25.1909 36.2777C25.2151 36.4693 25.3104 36.6448 25.4579 36.7694C25.6054 36.894 25.7943 36.9586 25.9873 36.9505L26.0573 36.9155Z" fill="white"/>
<path fill-rule="evenodd" clip-rule="evenodd" d="M42.2276 25.1899C42.1381 25.1873 42.049 25.2034 41.966 25.237C41.883 25.2706 41.8079 25.3211 41.7454 25.3852C41.6829 25.4494 41.6344 25.5258 41.6029 25.6096C41.5714 25.6935 41.5577 25.783 41.5626 25.8724V36.8449C41.5609 37.8125 41.4789 38.7783 41.3176 39.7324C41.2186 40.2659 40.997 40.7692 40.6701 41.2024C40.4027 41.4004 40.0749 41.4994 39.7426 41.4824C38.8567 41.5359 37.9685 41.5359 37.0826 41.4824L25.7426 41.6049C22.2426 41.6049 18.8476 41.7624 15.4001 41.8324H11.0601C9.97573 41.8652 8.89206 41.7474 7.84009 41.4824C7.28643 41.2832 6.81318 40.9083 6.49259 40.4149C6.33628 40.0811 6.25846 39.7159 6.26509 39.3474V37.0024C6.14259 35.2524 6.05509 33.3449 6.02009 31.5249C5.98509 29.7049 6.02009 27.8849 6.02009 26.0649C6.03491 25.9794 6.03087 25.8917 6.00824 25.808C5.98561 25.7243 5.94495 25.6465 5.88909 25.5801C5.83324 25.5137 5.76356 25.4604 5.68492 25.4238C5.60627 25.3872 5.52058 25.3682 5.43384 25.3682C5.3471 25.3682 5.2614 25.3872 5.18276 25.4238C5.10412 25.4604 5.03443 25.5137 4.97858 25.5801C4.92273 25.6465 4.88207 25.7243 4.85944 25.808C4.83681 25.8917 4.83277 25.9794 4.84759 26.0649C4.67259 27.8149 4.58509 29.7574 4.55009 31.6124C4.51509 33.4674 4.55009 35.3049 4.55009 37.1599C4.55009 37.8074 4.44509 38.9974 4.55009 39.9424C4.5696 40.4812 4.71334 41.0082 4.97009 41.4824C5.52046 42.3025 6.32641 42.9177 7.26259 43.2324C8.48429 43.6337 9.75726 43.8577 11.0426 43.8974C12.5476 44.0024 14.0351 44.0549 15.5226 44.0549C19.0226 44.0549 22.3651 43.8274 25.7951 43.8974H29.2951C31.9376 43.7924 34.5451 43.5999 37.2226 43.5299C38.3286 43.632 39.4416 43.632 40.5476 43.5299C41.2288 43.4213 41.8491 43.0739 42.2976 42.5499C42.7967 41.8752 43.1213 41.0877 43.2426 40.2574C43.3519 39.1283 43.3519 37.9914 43.2426 36.8624L42.8576 25.8549C42.8599 25.7698 42.8455 25.6852 42.8151 25.6057C42.7847 25.5263 42.7389 25.4536 42.6804 25.3918C42.6219 25.3301 42.5518 25.2805 42.4741 25.2458C42.3964 25.2111 42.3126 25.1921 42.2276 25.1899Z" fill="white"/>
<path fill-rule="evenodd" clip-rule="evenodd" d="M44.8526 18.4874C44.3276 13.0274 44.4501 12.5899 43.6626 12.6249C42.1544 12.6364 40.6469 12.5604 39.1476 12.3974C36.3301 12.0999 33.5301 11.6274 30.7301 11.2774C30.7732 10.0739 30.5397 8.8765 30.0476 7.77736C29.3867 6.42324 28.3065 5.3185 26.9676 4.62736C25.7459 4.03399 24.3743 3.82063 23.0301 4.01486C21.7635 4.21032 20.5629 4.70859 19.5301 5.46736C18.5728 6.1156 17.7833 6.98199 17.2265 7.99516C16.6697 9.00833 16.3616 10.1393 16.3276 11.2949C12.0727 11.709 7.89973 12.7346 3.93758 14.3399C3.71008 15.3374 3.27258 17.5774 3.08008 19.3274C2.98324 20.1353 2.98324 20.9519 3.08008 21.7599C3.23406 22.4205 3.56708 23.026 4.04258 23.5099C4.65174 24.07 5.34953 24.5254 6.10758 24.8574C7.66508 25.5224 8.06757 25.8549 8.83757 26.0999C9.50494 26.3055 10.1906 26.4462 10.8851 26.5199C10.9702 26.5404 11.0586 26.5434 11.145 26.5287C11.2313 26.5141 11.3138 26.4821 11.3874 26.4346C11.461 26.3872 11.5243 26.3253 11.5733 26.2527C11.6223 26.1801 11.6561 26.0984 11.6726 26.0124C11.6932 25.9261 11.6964 25.8366 11.6819 25.7492C11.6675 25.6617 11.6357 25.578 11.5884 25.503C11.5411 25.428 11.4793 25.3632 11.4066 25.3124C11.3339 25.2616 11.2518 25.2259 11.1651 25.2074C10.5636 25.0593 9.97762 24.8542 9.41508 24.5949C8.73258 24.2624 8.40008 23.8774 7.01758 23.0199C6.59116 22.771 6.19227 22.4777 5.82758 22.1449C5.55018 21.9191 5.34863 21.6137 5.25008 21.2699C5.22166 20.7978 5.22166 20.3244 5.25008 19.8524C5.25008 19.0999 5.16258 18.2074 5.14508 17.3324C5.12758 16.4574 5.14508 15.6874 5.14508 15.0749C8.11703 14.3194 11.1413 13.7871 14.1926 13.4824C16.5376 13.2374 18.8826 13.1499 21.1926 13.0974C23.5026 13.0449 25.9001 13.0974 28.1926 13.0974C31.6926 13.0974 35.3151 13.7099 38.8851 13.8849C40.2725 13.9549 41.6626 13.9549 43.0501 13.8849L42.6651 18.3999V20.0099C42.4869 20.3426 42.2282 20.6254 41.9126 20.8324C41.2809 21.2572 40.6134 21.6261 39.9176 21.9349C38.9726 22.4074 38.4651 22.6699 37.9926 22.9674C37.5201 23.2649 37.0651 23.5799 36.2426 24.1749C36.1523 24.213 36.0713 24.2701 36.005 24.3423C35.9388 24.4145 35.8888 24.5001 35.8586 24.5933C35.8284 24.6865 35.8187 24.7852 35.83 24.8825C35.8413 24.9799 35.8735 25.0736 35.9242 25.1574C35.975 25.2412 36.0433 25.3131 36.1243 25.3682C36.2054 25.4233 36.2973 25.4602 36.394 25.4766C36.4906 25.493 36.5896 25.4883 36.6843 25.463C36.7789 25.4377 36.867 25.3923 36.9426 25.3299C37.8351 24.8749 38.2901 24.6299 38.7801 24.4199C39.2701 24.2099 39.7601 24.0524 40.6876 23.7549C41.5755 23.5239 42.4331 23.1891 43.2426 22.7574C43.8933 22.3257 44.4089 21.7191 44.7301 21.0074C44.8722 20.7163 44.9612 20.4022 44.9926 20.0799C44.9743 19.5469 44.9276 19.0153 44.8526 18.4874ZM21.1751 10.8749C19.9851 10.8749 18.7951 11.0674 17.6751 11.1899C17.8569 10.3531 18.2146 9.56459 18.7245 8.87667C19.2344 8.18875 19.8849 7.61717 20.6326 7.19986C21.4787 6.71018 22.4118 6.38926 23.3801 6.25486C24.3902 6.09448 25.4251 6.23262 26.3578 6.65232C27.2905 7.07202 28.0802 7.755 28.6301 8.61736C29.0021 9.39506 29.2106 10.2408 29.2426 11.1024C28.9451 11.1024 28.6476 11.1024 28.3676 10.9974C26.0051 10.8574 23.5901 10.7874 21.1751 10.8749Z" fill="white"/>
<path fill-rule="evenodd" clip-rule="evenodd" d="M23.5901 32.0324C24.2026 33.3449 24.3951 33.5024 24.7976 33.4674C25.4976 33.4674 25.7601 31.5249 25.7601 31.4899C25.7802 31.4035 25.7802 31.3137 25.7601 31.2274H26.0226C26.7552 30.9768 27.3753 30.4745 27.7726 29.8099C28.0628 29.2754 28.1557 28.6559 28.0351 28.0599C27.9712 27.6245 27.7912 27.2143 27.5141 26.8725C27.2369 26.5307 26.8728 26.2699 26.4601 26.1174C25.6078 25.8929 24.7333 25.7637 23.8526 25.7324C23.6776 25.7324 23.0826 25.7324 23.2576 25.5224L23.5201 24.8749C23.6466 24.648 23.8285 24.4568 24.0488 24.3191C24.2691 24.1814 24.5207 24.1017 24.7801 24.0874C25.4276 24.0912 26.0509 24.3343 26.5301 24.7699C26.6466 24.8781 26.7998 24.9383 26.9588 24.9383C27.1179 24.9383 27.271 24.8781 27.3876 24.7699C27.4987 24.6583 27.5611 24.5073 27.5611 24.3499C27.5611 24.1924 27.4987 24.0414 27.3876 23.9299C26.8332 23.3046 26.1001 22.8648 25.2876 22.6699C25.3853 22.539 25.4566 22.3904 25.4976 22.2324C25.5228 22.1289 25.5228 22.0208 25.4976 21.9174C24.9551 20.4474 24.5176 20.5699 24.5001 20.5524C24.0276 20.5524 23.3451 21.8124 23.3276 21.8474C23.3093 21.9574 23.3093 22.0698 23.3276 22.1799C23.3192 22.2847 23.3192 22.39 23.3276 22.4949C23.3276 22.6174 23.4326 22.6874 23.4676 22.7749C22.6333 23.1099 21.945 23.73 21.5251 24.5249C21.3642 24.8265 21.2801 25.163 21.2801 25.5049C21.2758 25.7956 21.3346 26.0839 21.4524 26.3497C21.5703 26.6156 21.7443 26.8527 21.9626 27.0449C22.4611 27.4653 23.0673 27.738 23.7126 27.8324H25.6026C25.7071 27.8412 25.806 27.8834 25.8848 27.9528C25.9635 28.0221 26.018 28.1148 26.0401 28.2174C26.0709 28.2893 26.0868 28.3667 26.0868 28.4449C26.0868 28.5231 26.0709 28.6005 26.0401 28.6724C25.8903 28.911 25.6786 29.1045 25.4276 29.2324C25.2211 29.3368 25.004 29.4189 24.7801 29.4774C24.5556 29.5296 24.3221 29.5296 24.0976 29.4774C23.5828 29.5837 23.047 29.4965 22.5926 29.2324C22.5307 29.1699 22.4571 29.1204 22.376 29.0865C22.2949 29.0527 22.2079 29.0353 22.1201 29.0353C22.0322 29.0353 21.9452 29.0527 21.8641 29.0865C21.783 29.1204 21.7094 29.1699 21.6476 29.2324C21.5295 29.3614 21.464 29.53 21.464 29.7049C21.464 29.8798 21.5295 30.0483 21.6476 30.1774C22.1316 30.7876 22.8012 31.2238 23.5551 31.4199C23.5468 31.5305 23.5468 31.6417 23.5551 31.7524C23.5572 31.8466 23.5689 31.9405 23.5901 32.0324Z" fill="white"/>
</svg>
