<svg width="42" height="42" viewBox="0 0 42 42" fill="none" xmlns="http://www.w3.org/2000/svg">
<g clip-path="url(#clip0_53_1053)">
<path fill-rule="evenodd" clip-rule="evenodd" d="M23.0647 33.9331C24.7773 33.8194 26.4274 33.2456 27.8412 32.2724C29.2549 31.2991 30.3798 29.9623 31.0972 28.4031C31.7821 26.8294 32.118 25.126 32.0818 23.4101C32.0455 21.6942 31.638 20.0065 30.8872 18.4631C30.0657 16.7853 28.7696 15.3858 27.1597 14.4381C25.5617 13.5109 23.7566 12.9994 21.9097 12.9506C20.0589 12.9203 18.2257 13.3147 16.5511 14.1034C14.8765 14.8922 13.405 16.0543 12.2497 17.5006C11.4285 18.5422 10.8293 19.7409 10.4891 21.023C10.1489 22.305 10.0749 23.6431 10.2716 24.9548C10.4684 26.2665 10.9317 27.524 11.6331 28.6498C12.3345 29.7756 13.259 30.7458 14.3497 31.5006C16.2772 32.7493 18.4488 33.5726 20.7197 33.9156C20.8114 33.9452 20.9083 33.955 21.0041 33.9444C21.0999 33.9338 21.1923 33.9031 21.2754 33.8542C21.3584 33.8053 21.4301 33.7394 21.4859 33.6608C21.5416 33.5822 21.5801 33.4927 21.5987 33.3982C21.6174 33.3037 21.6158 33.2062 21.5941 33.1124C21.5724 33.0185 21.5311 32.9303 21.4729 32.8535C21.4146 32.7767 21.3408 32.7132 21.2562 32.667C21.1716 32.6208 21.0783 32.5931 20.9822 32.5856C19.2835 32.2387 17.6561 31.6055 16.1697 30.7131C14.75 29.8777 13.6295 28.6164 12.9672 27.1081C12.3716 25.7896 12.1688 24.3274 12.3829 22.8965C12.5971 21.4657 13.2192 20.1269 14.1747 19.0406C15.1052 17.9298 16.2708 17.0396 17.5873 16.4344C18.9038 15.8291 20.3383 15.5238 21.7872 15.5406C23.2056 15.5806 24.5929 15.965 25.8297 16.6606C27.0605 17.3171 28.0708 18.3213 28.7347 19.5481C29.4042 20.7831 29.7979 22.1486 29.8885 23.5505C29.9792 24.9523 29.7646 26.3572 29.2597 27.6681C28.7142 28.9728 27.8261 30.1056 26.6893 30.9467C25.5525 31.7877 24.2094 32.3057 22.8022 32.4456C22.6133 32.4857 22.4464 32.5954 22.3346 32.7528C22.2227 32.9101 22.1741 33.1038 22.1983 33.2954C22.2225 33.4869 22.3178 33.6624 22.4653 33.787C22.6128 33.9116 22.8018 33.9762 22.9947 33.9681L23.0647 33.9331Z" fill="white"/>
<path fill-rule="evenodd" clip-rule="evenodd" d="M39.235 22.2075C39.1455 22.205 39.0564 22.221 38.9734 22.2546C38.8904 22.2883 38.8153 22.3387 38.7528 22.4029C38.6903 22.467 38.6418 22.5434 38.6103 22.6273C38.5789 22.7111 38.5651 22.8006 38.57 22.89V33.8625C38.5683 34.8301 38.4864 35.7959 38.325 36.75C38.2261 37.2836 38.0044 37.7868 37.6775 38.22C37.4102 38.418 37.0823 38.517 36.75 38.5C35.8642 38.5535 34.9759 38.5535 34.09 38.5L22.75 38.6225C19.25 38.6225 15.855 38.78 12.4075 38.85H8.06752C6.98316 38.8829 5.89949 38.7651 4.84752 38.5C4.29386 38.3008 3.82061 37.9259 3.50002 37.4325C3.34371 37.0987 3.26589 36.7335 3.27252 36.365V34.02C3.15002 32.27 3.06252 30.3625 3.02752 28.5425C2.99252 26.7225 3.02752 24.9025 3.02752 23.0825C3.04234 22.997 3.03829 22.9094 3.01566 22.8256C2.99304 22.7419 2.95237 22.6641 2.89652 22.5977C2.84067 22.5314 2.77098 22.478 2.69234 22.4414C2.6137 22.4048 2.52801 22.3858 2.44127 22.3858C2.35452 22.3858 2.26883 22.4048 2.19019 22.4414C2.11155 22.478 2.04186 22.5314 1.98601 22.5977C1.93016 22.6641 1.8895 22.7419 1.86687 22.8256C1.84424 22.9094 1.84019 22.997 1.85502 23.0825C1.68002 24.8325 1.59252 26.775 1.55752 28.63C1.52252 30.485 1.55752 32.3225 1.55752 34.1775C1.55752 34.825 1.45252 36.015 1.55752 36.96C1.57703 37.4988 1.72076 38.0259 1.97752 38.5C2.52789 39.3201 3.33384 39.9353 4.27002 40.25C5.49171 40.6514 6.76469 40.8753 8.05002 40.915C9.55502 41.02 11.0425 41.0725 12.53 41.0725C16.03 41.0725 19.3725 40.845 22.8025 40.915H26.3025C28.945 40.81 31.5525 40.6175 34.23 40.5475C35.336 40.6497 36.449 40.6497 37.555 40.5475C38.2362 40.439 38.8565 40.0916 39.305 39.5675C39.8041 38.8929 40.1287 38.1054 40.25 37.275C40.3593 36.146 40.3593 35.009 40.25 33.88L39.865 22.8725C39.8674 22.7875 39.8529 22.7028 39.8225 22.6234C39.7921 22.5439 39.7463 22.4712 39.6878 22.4095C39.6293 22.3477 39.5592 22.2981 39.4815 22.2634C39.4038 22.2288 39.3201 22.2098 39.235 22.2075Z" fill="white"/>
<path fill-rule="evenodd" clip-rule="evenodd" d="M41.86 15.505C41.335 10.045 41.4575 9.6075 40.67 9.6425C39.1619 9.65402 37.6543 9.57806 36.155 9.415C33.3375 9.1175 30.5375 8.645 27.7375 8.295C27.7806 7.0915 27.5471 5.89414 27.055 4.795C26.3941 3.44088 25.3139 2.33614 23.975 1.645C22.7533 1.05163 21.3817 0.838273 20.0375 1.0325C18.771 1.22796 17.5703 1.72623 16.5375 2.485C15.5803 3.13324 14.7907 3.99963 14.2339 5.0128C13.6772 6.02597 13.369 7.15692 13.335 8.3125C9.08011 8.72665 4.90717 9.75221 0.945006 11.3575C0.717506 12.355 0.280006 14.595 0.0875064 16.345C-0.00933239 17.1529 -0.00933239 17.9696 0.0875064 18.7775C0.241495 19.4382 0.574511 20.0437 1.05001 20.5275C1.65917 21.0877 2.35696 21.543 3.11501 21.875C4.67251 22.54 5.07501 22.8725 5.84501 23.1175C6.51237 23.3232 7.19806 23.4638 7.89251 23.5375C7.97765 23.558 8.06607 23.561 8.15242 23.5464C8.23876 23.5317 8.32124 23.4997 8.39486 23.4523C8.46847 23.4048 8.5317 23.3429 8.58071 23.2704C8.62973 23.1978 8.6635 23.116 8.68001 23.03C8.70064 22.9438 8.70382 22.8543 8.68936 22.7668C8.6749 22.6793 8.64309 22.5956 8.5958 22.5206C8.54852 22.4456 8.48671 22.3808 8.41401 22.3301C8.34132 22.2793 8.25921 22.2436 8.17251 22.225C7.57104 22.0769 6.98505 21.8718 6.42251 21.6125C5.74001 21.28 5.40751 20.895 4.02501 20.0375C3.59859 19.7886 3.1997 19.4953 2.83501 19.1625C2.55761 18.9367 2.35606 18.6313 2.25751 18.2875C2.22909 17.8154 2.22909 17.3421 2.25751 16.87C2.25751 16.1175 2.17001 15.225 2.15251 14.35C2.13501 13.475 2.15251 12.705 2.15251 12.0925C5.12446 11.337 8.14871 10.8047 11.2 10.5C13.545 10.255 15.89 10.1675 18.2 10.115C20.51 10.0625 22.9075 10.115 25.2 10.115C28.7 10.115 32.3225 10.7275 35.8925 10.9025C37.28 10.9726 38.6701 10.9726 40.0575 10.9025L39.6725 15.4175V17.0275C39.4944 17.3603 39.2357 17.6431 38.92 17.85C38.2883 18.2748 37.6208 18.6437 36.925 18.9525C35.98 19.425 35.4725 19.6875 35 19.985C34.5275 20.2825 34.0725 20.5975 33.25 21.1925C33.1597 21.2306 33.0787 21.2877 33.0124 21.3599C32.9462 21.4321 32.8963 21.5177 32.8661 21.611C32.8359 21.7042 32.8261 21.8028 32.8374 21.9002C32.8487 21.9975 32.8809 22.0912 32.9317 22.1751C32.9825 22.2589 33.0507 22.3307 33.1318 22.3858C33.2128 22.4409 33.3048 22.4779 33.4014 22.4942C33.498 22.5106 33.597 22.506 33.6917 22.4806C33.7864 22.4553 33.8745 22.4099 33.95 22.3475C34.8425 21.8925 35.2975 21.6475 35.7875 21.4375C36.2775 21.2275 36.7675 21.07 37.695 20.7725C38.5829 20.5416 39.4405 20.2068 40.25 19.775C40.9007 19.3433 41.4163 18.7367 41.7375 18.025C41.8797 17.734 41.9686 17.4199 42 17.0975C41.9817 16.5646 41.935 16.033 41.86 15.505ZM18.1825 7.8925C16.9925 7.8925 15.8025 8.085 14.6825 8.2075C14.8643 7.37074 15.2221 6.58223 15.732 5.89431C16.2419 5.20639 16.8923 4.63481 17.64 4.2175C18.4861 3.72782 19.4192 3.4069 20.3875 3.2725C21.3976 3.11212 22.4325 3.25026 23.3652 3.66996C24.2979 4.08966 25.0876 4.77264 25.6375 5.635C26.0096 6.4127 26.218 7.25849 26.25 8.12C25.9525 8.12 25.655 8.12 25.375 8.015C23.0125 7.875 20.5975 7.805 18.1825 7.8925Z" fill="white"/>
<path fill-rule="evenodd" clip-rule="evenodd" d="M20.5975 29.05C21.21 30.3625 21.4025 30.52 21.805 30.485C22.505 30.485 22.7675 28.5425 22.7675 28.5075C22.7877 28.4212 22.7877 28.3313 22.7675 28.245H23.03C23.7627 27.9944 24.3827 27.4922 24.78 26.8275C25.0703 26.2931 25.1632 25.6736 25.0425 25.0775C24.9786 24.6421 24.7987 24.232 24.5215 23.8902C24.2444 23.5484 23.8803 23.2875 23.4675 23.135C22.6153 22.9105 21.7407 22.7814 20.86 22.75C20.685 22.75 20.09 22.75 20.265 22.54L20.5275 21.8925C20.6541 21.6656 20.8359 21.4744 21.0563 21.3367C21.2766 21.1991 21.5281 21.1193 21.7875 21.105C22.4351 21.1089 23.0583 21.3519 23.5375 21.7875C23.654 21.8957 23.8072 21.9559 23.9663 21.9559C24.1253 21.9559 24.2785 21.8957 24.395 21.7875C24.5061 21.676 24.5686 21.525 24.5686 21.3675C24.5686 21.2101 24.5061 21.059 24.395 20.9475C23.8407 20.3222 23.1076 19.8824 22.295 19.6875C22.3927 19.5567 22.464 19.4081 22.505 19.25C22.5302 19.1465 22.5302 19.0385 22.505 18.935C21.9625 17.465 21.525 17.5875 21.5075 17.57C21.035 17.57 20.3525 18.83 20.335 18.865C20.3167 18.9751 20.3167 19.0874 20.335 19.1975C20.3266 19.3023 20.3266 19.4077 20.335 19.5125C20.335 19.635 20.44 19.705 20.475 19.7925C19.6408 20.1275 18.9525 20.7476 18.5325 21.5425C18.3717 21.8441 18.2875 22.1807 18.2875 22.5225C18.2833 22.8133 18.3421 23.1015 18.4599 23.3673C18.5777 23.6332 18.7517 23.8704 18.97 24.0625C19.4686 24.4829 20.0747 24.7557 20.72 24.85H22.61C22.7145 24.8589 22.8135 24.9011 22.8922 24.9704C22.971 25.0397 23.0254 25.1325 23.0475 25.235C23.0783 25.3069 23.0942 25.3843 23.0942 25.4625C23.0942 25.5407 23.0783 25.6181 23.0475 25.69C22.8977 25.9286 22.6861 26.1222 22.435 26.25C22.2285 26.3545 22.0114 26.4366 21.7875 26.495C21.563 26.5473 21.3295 26.5473 21.105 26.495C20.5903 26.6014 20.0544 26.5141 19.6 26.25C19.5382 26.1876 19.4646 26.138 19.3835 26.1042C19.3024 26.0704 19.2154 26.0529 19.1275 26.0529C19.0396 26.0529 18.9526 26.0704 18.8715 26.1042C18.7904 26.138 18.7168 26.1876 18.655 26.25C18.537 26.379 18.4715 26.5476 18.4715 26.7225C18.4715 26.8974 18.537 27.066 18.655 27.195C19.1391 27.8053 19.8086 28.2414 20.5625 28.4375C20.5543 28.5482 20.5543 28.6593 20.5625 28.77C20.5646 28.8643 20.5763 28.9581 20.5975 29.05Z" fill="white"/>
</g>
<defs>
<clipPath id="clip0_53_1053">
<rect width="42" height="42" fill="white"/>
</clipPath>
</defs>
</svg>
