<svg width="33" height="33" viewBox="0 0 33 33" fill="none" xmlns="http://www.w3.org/2000/svg">
<g clip-path="url(#clip0_53_1704)">
<path d="M27.814 5.18625C24.792 2.16431 20.7739 0.5 16.5002 0.5C12.9414 0.5 9.55322 1.6575 6.77341 3.79319L6.7866 3.2385C6.79879 2.72094 6.38941 2.29125 5.87154 2.279C5.35348 2.2675 4.92454 2.67619 4.91204 3.19406L4.85929 5.41794C4.84223 6.13962 5.37029 6.74531 6.08754 6.82688L8.54235 7.09931C9.01279 7.09931 9.4186 6.74581 9.47279 6.26725C9.53116 5.75288 9.16154 5.2885 8.64685 5.23012L8.06847 5.16444C10.4929 3.3545 13.4243 2.375 16.5002 2.375C20.2732 2.375 23.8203 3.84425 26.488 6.51219C29.156 9.17994 30.6252 12.7271 30.6252 16.5C30.6252 18.2744 30.3008 20.0044 29.6606 21.6416C29.4721 22.1238 29.7101 22.6675 30.1923 22.856C30.3044 22.8999 30.4199 22.9207 30.5334 22.9207C30.9081 22.9207 31.2621 22.6944 31.407 22.3242C32.1323 20.4685 32.5002 18.5091 32.5002 16.5C32.5002 12.2263 30.8359 8.20825 27.814 5.18625Z" fill="#DF4A53"/>
<path d="M26.9927 26.1885L24.5059 25.8975C23.9917 25.8375 23.5259 26.2056 23.4656 26.7198C23.4055 27.234 23.7737 27.6998 24.2878 27.7598L24.9465 27.837C22.5434 29.646 19.6072 30.625 16.5 30.625C12.7271 30.625 9.17994 29.1558 6.51219 26.4878C3.84425 23.8201 2.375 20.2729 2.375 16.5C2.375 14.1719 2.95312 11.8645 4.04713 9.82738C4.292 9.37131 4.12087 8.80294 3.66456 8.55806C3.2085 8.31294 2.63987 8.48406 2.395 8.94038C1.15525 11.2493 0.5 13.8633 0.5 16.5C0.5 20.7737 2.16431 24.7918 5.18625 27.8138C8.20819 30.8358 12.2263 32.5 16.5 32.5C20.0603 32.5 23.4248 31.3631 26.1687 29.2635L26.1594 29.7026C26.1487 30.2202 26.5593 30.649 27.0772 30.6597C27.0837 30.66 27.0906 30.66 27.0972 30.66C27.6057 30.66 28.0232 30.253 28.0342 29.742L28.0823 27.4397C28.0959 26.8006 27.6274 26.2625 26.9927 26.1885Z" fill="#DF4A53"/>
<path d="M16.9925 9.5C12.8525 9.5 9.5 12.86 9.5 17C9.5 21.14 12.8525 24.5 16.9925 24.5C21.14 24.5 24.5 21.14 24.5 17C24.5 12.86 21.14 9.5 16.9925 9.5ZM20 20C19.9306 20.0695 19.8482 20.1247 19.7575 20.1623C19.6667 20.2 19.5695 20.2193 19.4713 20.2193C19.373 20.2193 19.2758 20.2 19.185 20.1623C19.0943 20.1247 19.0119 20.0695 18.9425 20L16.475 17.5325C16.4041 17.463 16.3478 17.3802 16.3091 17.2888C16.2705 17.1974 16.2504 17.0992 16.25 17V14C16.25 13.5875 16.5875 13.25 17 13.25C17.4125 13.25 17.75 13.5875 17.75 14V16.6925L20 18.9425C20.2925 19.235 20.2925 19.7075 20 20Z" fill="#DF4A53"/>
</g>
<defs>
<clipPath id="clip0_53_1704">
<rect width="32" height="32" fill="white" transform="translate(0.5 0.5)"/>
</clipPath>
</defs>
</svg>
