<svg width="1158" height="409" viewBox="0 0 1158 409" fill="none" xmlns="http://www.w3.org/2000/svg">
<circle cx="15.5" cy="15.5" r="11.25" fill="#DF4A53" stroke="#FCD0C7" stroke-width="7.5"/>
<circle cx="1120.5" cy="15.5" r="11.25" fill="#DF4A53" stroke="#FCD0C7" stroke-width="7.5"/>
<path d="M220.981 368.838C238.952 379.85 254.853 385.949 280.043 390.685C305.429 394.213 309.542 394.998 338.809 391.908C350.893 390.135 363.094 387.427 372.765 382.39C386.511 374.955 398.214 368.636 404.947 364.917C410.726 361.724 413.946 360.031 417.793 358.003L417.819 357.989C421.801 356.389 426.767 354.105 436.185 354.972C445.16 356.108 451.761 360.374 456.388 365.537C458.671 368.171 460.576 371.148 461.314 374.64C461.654 376.365 461.651 378.313 460.723 379.991C459.813 381.688 457.962 382.737 456.065 383.117C455.248 383.291 454.427 383.198 453.657 382.871C449.585 381.02 447.246 373.662 449.809 366.719C452.293 359.479 460.696 354.82 468.927 353.671C485.869 351.253 502.715 356.405 511.423 358.765C529.291 363.908 547.879 372.433 559.286 377.947C562.717 379.603 565.508 381.003 567.669 382.105C568.586 382.573 569.007 382.806 568.999 382.822C568.999 382.822 568.999 382.822 568.999 382.822C568.988 382.843 568.312 382.528 567.131 381.943C561.444 379.131 553.103 375.118 543.069 370.889C524.031 363.415 522.23 361.41 495.349 355.295C482.906 353.063 471.824 352.369 461.757 356.18C456.824 358.131 452.174 361.76 450.282 367.312C449.345 370.042 449.102 373.166 449.833 376.206C450.526 379.077 452.511 382.961 455.914 382.424C457.784 382.047 459.635 380.957 460.357 379.079C461.97 373.461 458.098 368.606 455.169 365.335C451.963 361.973 448.37 359.653 444.588 358.047C437.013 354.922 428.258 354.347 418.228 358.883L418.262 358.866C411.317 362.645 403.041 367.119 392.409 372.818C384.904 376.842 378.652 380.211 373.191 383.172C348.024 393.487 337.146 395.37 299.91 394.526C253.006 393.974 200.786 361.516 184.842 338.686C182.021 335.325 179.317 331.842 176.524 327.887C163.288 307.18 140.242 277.994 150.213 244.479C151.145 242.695 152.315 241.046 153.997 239.805C155.588 238.581 158.261 237.846 160.142 239.407C163.534 242.802 162.207 247.645 161.042 251.521L160.983 251.645C139.547 282.844 91.3655 273.074 63.3005 255.196C61.4843 254.139 59.6308 253.019 57.7069 251.81C19.543 226.721 13.0104 164.432 10.2179 139.078C7.95707 110.982 7.95808 104.066 8.56105 76.9461C9.08733 61.33 10.779 39.8142 14.2549 22.0412C16.15 13.0876 15.7245 15.0888 14.0531 24.1349C11.7683 37.4766 10.7664 48.3478 10.269 55.3059C9.42276 69.0935 9.13447 74.9735 8.8075 92.4371C8.65073 109.912 9.42181 118.117 10.0612 128.259C11.5565 138.257 7.95492 138.762 19.8089 189.084C28.6574 221.153 43.1487 241.664 58.3175 250.833C66.6928 256.048 73.9052 259.702 80.2874 262.442C95.5019 270.484 141.205 279.894 160.018 251.037L159.959 251.161C160.43 249.734 160.746 248.48 160.944 247.112C161.166 245.477 161.222 243.702 160.621 242.068C160.075 240.442 158.475 239.274 156.672 239.782C153.049 240.844 150.758 245.118 149.608 249.402C147.343 258.061 148.874 268.419 151.68 277.833C157.59 297.241 168.646 314.53 177.518 327.187C180.519 331.432 183.246 334.875 185.693 337.782C203.187 356.985 203.711 356.875 220.981 368.838Z" fill="#DF4A53"/>
<path d="M976.368 287.152C988.357 267.718 999.451 250.328 1026.69 240.32C1028.48 239.766 1030.2 239.332 1031.85 238.991C1054.4 232.809 1060.29 230.158 1083.63 211.143C1095.71 200.421 1106.26 187.848 1113.07 175.727C1119.91 164.289 1122.9 149.324 1114.49 147.14C1114.44 147.122 1114.39 147.103 1114.34 147.085C1107.39 144.606 1104.17 149.52 1103.25 153.706C1102.41 158.114 1101.94 164.281 1107.13 173.008C1115.56 186.052 1129.87 183.609 1139.33 178.307C1143.17 176.265 1146.19 172.672 1148.51 168.355C1159.67 152.616 1156.44 96.0418 1150.72 76.9283C1146.42 57.3981 1138.2 35.7599 1129.6 24.8417C1127.06 21.4755 1124.66 19.028 1122.69 17.3318C1121.87 16.6249 1121.49 16.323 1121.5 16.3056C1121.5 16.3055 1121.5 16.3055 1121.5 16.3055C1121.52 16.2912 1122.14 16.7196 1123.2 17.6448C1128.43 22.1137 1134.55 30.515 1139.62 41.4712C1148.26 62.2108 1149.19 64.745 1154.46 94.6253C1156.81 124.01 1163.71 145.829 1143.52 176.202C1142.35 177.279 1141 178.248 1139.68 178.953C1127.46 185.867 1114.83 184.425 1108.1 175.763C1104.73 171.61 1102.4 166.268 1101.89 159.845C1101.69 156.661 1101.87 153.052 1103.72 149.66C1105.4 146.057 1110.47 144.305 1114.68 146.12C1120.24 147.696 1121.66 154.881 1120.18 160.64C1112.37 185.036 1100.76 194.706 1091.63 204.966C1081.67 214.578 1071.51 224.904 1048.38 235.311C1043.27 237.456 1037.83 239.248 1032.15 240.439C990.677 250.516 968.771 298.768 962.057 325.362C961.084 329.286 959.857 332.785 958.578 335.837C947.537 364.389 909.569 392.564 865.833 391.859C847.22 391.783 826.602 386.114 809.167 373.995C797.951 365.995 785.873 356.627 782.357 342.304C780.692 335.278 784.05 327.146 790.618 323.951C796.81 320.394 806.236 322.328 808.851 329.334C809.462 330.742 809.849 332.25 810.055 333.88C799.676 384.437 724.755 401.181 698.017 406.186C694.395 406.754 691.071 407.164 688.021 407.46C665.105 409.014 655.907 408.294 630.125 403.374C613.342 399.913 590.745 392.572 572.784 383.975C563.763 379.507 565.794 380.534 574.984 384.792C588.413 390.818 599.924 394.732 607.213 396.903C621.803 401.015 628.068 402.76 646.973 405.768C665.966 408.327 675.088 407.682 686.175 406.904C686.798 406.851 687.385 406.798 687.949 406.744C697.07 404.703 701.456 409.313 751.272 389.419C785.114 373.776 810.067 354.546 808.903 334.028C808.17 323.803 797.059 321.456 791.405 324.936C784.96 327.481 780.303 338.234 785.54 347.939C790.253 357.752 799.587 365.913 809.827 373.036C820.55 380.49 832.907 385.727 844.66 388.289C861.539 392.462 889.289 391.73 912.502 380.249C936.099 369.462 952.392 348.787 957.379 335.507C959.02 331.586 960.081 328.125 960.838 325.061C965.784 307.528 967.037 304.616 976.368 287.152Z" fill="#DF4A53"/>
</svg>
