<svg width="189" height="54" viewBox="0 0 189 54" fill="none" xmlns="http://www.w3.org/2000/svg">
<g filter="url(#filter0_in_478_2149)">
<rect x="0.519287" width="187.962" height="54" rx="27" fill="url(#paint0_linear_478_2149)"/>
<g clip-path="url(#clip0_478_2149)">
<path d="M75.808 22.8231C76.0901 23.4243 76.4679 23.905 76.9412 24.2659C77.4146 24.6268 77.9377 24.9012 78.5114 25.0905C79.085 25.2791 79.6843 25.3741 80.3092 25.3741C81.2645 25.3741 82.1468 25.1809 82.9544 24.7945V22.9011C82.3986 23.3996 81.6166 23.6484 80.6085 23.6484C80.2004 23.6484 79.8071 23.5905 79.4293 23.4746C79.0516 23.3586 78.708 23.1894 78.4002 22.9661C78.0916 22.7427 77.8468 22.4444 77.6641 22.0711C77.4815 21.6979 77.3905 21.2705 77.3905 20.7898C77.3905 19.7767 77.7053 19.01 78.3349 18.4907C78.9645 17.9714 79.7224 17.7117 80.6085 17.7117C81.5117 17.7117 82.2719 17.9482 82.8891 18.4204V16.5757C82.1071 16.1893 81.2381 15.9961 80.2828 15.9961C79.6571 15.9961 79.0578 16.0927 78.4849 16.2859C77.9113 16.4791 77.3921 16.765 76.928 17.1422C76.4632 17.5201 76.0893 18.0247 75.8072 18.6553C75.525 19.2867 75.3835 19.9969 75.3835 20.7867C75.3843 21.5433 75.5258 22.2218 75.808 22.8231Z" fill="white"/>
<path d="M97.4409 20.5426C97.4409 20.0875 97.4277 19.6755 97.4021 19.3061L101.65 25.1926H103.487V16.1763H101.533V20.8263C101.533 21.2814 101.546 21.6934 101.571 22.0628L97.3236 16.1763H95.4868V25.1926H97.4417V20.5426H97.4409Z" fill="white"/>
<path d="M105.67 19.8601C105.918 20.2295 106.226 20.5108 106.595 20.704C106.964 20.8972 107.364 21.0773 107.793 21.245C108.223 21.4127 108.623 21.5541 108.992 21.6701C109.361 21.786 109.67 21.9405 109.917 22.1337C110.165 22.3269 110.289 22.5526 110.289 22.8099C110.289 23.3857 109.72 23.6732 108.582 23.6732C107.4 23.6732 106.323 23.3555 105.35 22.7203V24.5619C106.331 25.1029 107.456 25.3734 108.725 25.3734C109.228 25.3734 109.685 25.3285 110.093 25.2381C110.501 25.1477 110.875 25.0039 111.214 24.8069C111.552 24.6098 111.815 24.3347 112.002 23.9823C112.188 23.6307 112.282 23.2095 112.282 22.7203C112.282 22.2226 112.158 21.7844 111.91 21.4065C111.662 21.0286 111.354 20.7435 110.985 20.5503C110.616 20.3571 110.216 20.177 109.786 20.0093C109.357 19.8416 108.957 19.7048 108.588 19.5974C108.219 19.49 107.91 19.3462 107.663 19.1662C107.415 18.9861 107.291 18.7751 107.291 18.5348C107.291 17.9938 107.786 17.7148 108.777 17.6978C109.88 17.6808 110.818 17.9467 111.591 18.4961V16.6916C110.766 16.2279 109.78 15.9961 108.634 15.9961C107.678 15.9961 106.883 16.2148 106.249 16.653C105.615 17.0912 105.298 17.7264 105.298 18.5595C105.298 19.0572 105.422 19.4907 105.67 19.8601Z" fill="white"/>
<path d="M119.828 21.7019C119.828 22.9901 119.141 23.6339 117.769 23.6339C116.404 23.6339 115.723 22.9901 115.723 21.7019V16.1763H113.768V21.8054C113.768 22.3209 113.842 22.7846 113.989 23.1965C114.137 23.6084 114.337 23.9476 114.589 24.2143C114.84 24.4809 115.141 24.7034 115.488 24.8843C115.835 25.0643 116.198 25.1911 116.576 25.2645C116.954 25.3371 117.351 25.3742 117.769 25.3742C118.185 25.3742 118.583 25.3379 118.961 25.2645C119.339 25.1919 119.702 25.0651 120.049 24.8843C120.397 24.7042 120.696 24.4809 120.948 24.2143C121.2 23.9484 121.4 23.6091 121.548 23.1965C121.695 22.7846 121.769 22.3209 121.769 21.8054V16.1763H119.828V21.7019Z" fill="white"/>
<path d="M128.832 20.8649L125.705 16.1763H123.894V25.1926H125.849V19.6284L128.259 23.2606H129.392L131.803 19.6415V25.1934H133.758V16.1763H131.947L128.832 20.8649Z" fill="white"/>
<path d="M135.973 25.1926H142.475V23.4924H137.927V21.4831H142.005V19.7961H137.927V17.8764H142.396V16.1763H135.972V25.1926H135.973Z" fill="white"/>
<path d="M146.241 22.0372H147.674L150.137 25.1926H152.391L149.667 21.7922C150.996 21.3718 151.661 20.4785 151.661 19.1129C151.661 18.5634 151.558 18.0912 151.355 17.6963C151.15 17.3014 150.868 16.9962 150.507 16.7821C150.147 16.5673 149.764 16.4127 149.361 16.3184C148.957 16.2241 148.516 16.177 148.038 16.177H144.285V25.1934H146.24V22.0372H146.241ZM148.13 17.8764C148.582 17.8764 148.951 17.9792 149.238 18.1855C149.525 18.3919 149.668 18.7134 149.668 19.1515C149.668 19.5812 149.523 19.9012 149.231 20.1114C148.94 20.3216 148.573 20.4267 148.13 20.4267H146.24V17.8764H148.13Z" fill="white"/>
<path d="M77.4301 34.988H81.6003L82.2649 36.675H84.2843L80.5704 27.6587H78.4592L74.7329 36.675H76.7523L77.4301 34.988ZM79.5148 29.4493C79.5583 29.6811 79.6236 29.9176 79.7099 30.158L80.987 33.3906H78.0418L79.3057 30.158C79.3935 29.9516 79.4627 29.7151 79.5148 29.4493Z" fill="white"/>
<path d="M83.4114 29.3975H86.2127V36.675H88.1544V29.3975H90.9558V27.6587H83.4114V29.3975Z" fill="white"/>
<path d="M91.2947 29.3975H94.0961V36.675H96.0378V29.3975H98.8391V27.6587H91.2939V29.3975H91.2947Z" fill="white"/>
<path d="M111.859 33.5189H113.292L115.755 36.6743H118.009L115.285 33.2739C116.614 32.8535 117.279 31.9601 117.279 30.5946C117.279 30.0451 117.177 29.5729 116.973 29.178C116.768 28.7831 116.486 28.4779 116.125 28.2638C115.765 28.049 115.382 27.8944 114.979 27.8001C114.575 27.7058 114.134 27.6587 113.656 27.6587H109.903V36.675H111.858V33.5189H111.859ZM113.748 29.3589C114.2 29.3589 114.569 29.4617 114.856 29.668C115.143 29.8743 115.286 30.1958 115.286 30.634C115.286 31.0637 115.14 31.3836 114.849 31.5938C114.558 31.804 114.191 31.9091 113.748 31.9091H111.858V29.3589H113.748Z" fill="white"/>
<path d="M121.058 32.0251C121.058 31.5699 121.045 31.158 121.019 30.7886L125.267 36.675H127.104V27.6587H125.15V32.3087C125.15 32.7639 125.163 33.1758 125.188 33.5452L120.941 27.6587H119.103V36.675H121.058V32.0251Z" fill="white"/>
<path d="M129.059 36.675H135.561V34.9748H131.013V32.9655H135.091V31.2785H131.013V29.3596H135.482V27.6594H129.058V36.675H129.059Z" fill="white"/>
<path d="M141.686 33.4803L145.244 27.658H143.041L140.709 31.7028L138.376 27.658H136.174L139.744 33.4803V36.6743H141.686V33.4803Z" fill="white"/>
<path d="M145.849 31.3427C146.097 31.7121 146.405 31.9934 146.774 32.1866C147.143 32.3798 147.543 32.5599 147.972 32.7276C148.402 32.8953 148.802 33.0367 149.171 33.1526C149.54 33.2686 149.849 33.4231 150.096 33.6163C150.344 33.8095 150.468 34.0352 150.468 34.2925C150.468 34.8683 149.899 35.1558 148.761 35.1558C147.579 35.1558 146.502 34.8381 145.529 34.2029V36.0445C146.51 36.5855 147.635 36.8559 148.904 36.8559C149.407 36.8559 149.864 36.8111 150.272 36.7207C150.68 36.6303 151.054 36.4865 151.393 36.2895C151.731 36.0924 151.994 35.8173 152.181 35.4649C152.367 35.1133 152.461 34.6921 152.461 34.2029C152.461 33.7052 152.337 33.267 152.089 32.8891C151.841 32.5112 151.533 32.226 151.164 32.0328C150.795 31.8396 150.395 31.6596 149.965 31.4919C149.536 31.3242 149.136 31.1874 148.767 31.08C148.398 30.9725 148.089 30.8288 147.842 30.6487C147.594 30.4687 147.47 30.2577 147.47 30.0174C147.47 29.4764 147.965 29.1974 148.956 29.1804C150.059 29.1634 150.997 29.4292 151.77 29.9787V28.1758C150.945 27.7121 149.959 27.4802 148.813 27.4802C147.857 27.4802 147.062 27.6989 146.428 28.1371C145.794 28.5753 145.477 29.2105 145.477 30.0436C145.477 30.5398 145.602 30.9733 145.849 31.3427Z" fill="white"/>
<path fill-rule="evenodd" clip-rule="evenodd" d="M106.687 36.8382C105.362 37.8598 104.179 38.3614 104.184 38.3822C104.178 38.3598 103.004 37.8791 101.669 36.849C99.6171 35.2647 99.7663 33.3845 99.7663 33.3845C99.7663 33.3845 99.7663 29.2484 99.7663 27.532C102.193 26.3481 106.164 26.3496 108.588 27.5312C108.588 29.2453 108.588 33.3775 108.588 33.3775C108.588 33.3775 108.738 35.2555 106.687 36.8382ZM106.795 33.3203C106.795 33.3203 106.795 29.7152 106.795 28.7059C105.358 28.0104 103.001 28.0096 101.562 28.7067C101.562 29.7167 101.562 33.325 101.562 33.325C101.562 33.325 101.473 34.4316 102.69 35.3644C103.482 35.9711 104.179 36.2539 104.183 36.2671C104.179 36.2547 104.882 35.9595 105.667 35.3575C106.885 34.4255 106.795 33.3203 106.795 33.3203Z" fill="white"/>
<path fill-rule="evenodd" clip-rule="evenodd" d="M89.3553 22.2352C87.3903 22.2352 85.7969 20.6594 85.7969 18.7166C85.7969 16.7738 87.3895 15.198 89.3553 15.198C91.3211 15.198 92.9138 16.773 92.9138 18.7166C92.9138 20.6602 91.3203 22.2352 89.3553 22.2352ZM89.3157 17.0064C88.3604 17.0064 87.5854 17.7722 87.5854 18.7174C87.5854 19.6625 88.3604 20.4284 89.3157 20.4284C90.271 20.4284 91.0459 19.6625 91.0459 18.7174C91.0459 17.7722 90.2717 17.0064 89.3157 17.0064Z" fill="white"/>
<path d="M93.0704 25.5762C92.9064 25.5762 92.7408 25.5313 92.5931 25.4386C91.6277 24.8304 90.5084 24.5097 89.3557 24.5097C88.2185 24.5097 87.1116 24.8234 86.1548 25.4162C85.7405 25.6735 85.1925 25.5507 84.9313 25.1434C84.6702 24.7353 84.7945 24.1967 85.2088 23.9394C86.4494 23.1704 87.8835 22.7639 89.3565 22.7639C90.8489 22.7639 92.2985 23.1805 93.5507 23.9687C93.9635 24.2284 94.0839 24.7686 93.8197 25.1743C93.6487 25.434 93.3626 25.5762 93.0704 25.5762Z" fill="white"/>
<path fill-rule="evenodd" clip-rule="evenodd" d="M46.4261 19.8096C46.4261 18.0129 46.4261 16.3428 46.4261 15.4665C42.971 13.7508 37.3092 13.7493 33.8495 15.468C33.8495 17.9595 33.8495 26.8546 33.8495 26.8546C33.8495 26.8546 33.6357 29.5834 36.5622 31.8832C38.4643 33.3786 40.1401 34.0772 40.1486 34.1089C40.1409 34.0803 41.6239 33.4381 43.3659 32.1352C44.0654 33.4482 45.0635 34.5765 46.2706 35.4312C46.2348 35.4598 46.1999 35.4884 46.1641 35.517C42.9819 38.0363 40.137 39.2736 40.1518 39.3246C40.137 39.2705 37.3131 38.0835 34.1068 35.544C29.1733 31.6367 29.5332 27.0022 29.5332 27.0022C29.5332 27.0022 29.5332 16.8042 29.5332 12.5731C35.3652 9.65417 44.9096 9.65726 50.733 12.5708C50.733 13.9904 50.733 16.0824 50.733 18.2354C49.1481 18.4016 47.6798 18.9596 46.4261 19.8096Z" fill="white"/>
<path fill-rule="evenodd" clip-rule="evenodd" d="M51.6959 35.8307C47.1642 35.8307 43.49 32.1591 43.49 27.6304C43.49 23.1018 47.1635 19.4302 51.6959 19.4302C56.2282 19.4302 59.9017 23.1018 59.9017 27.6304C59.9017 32.1591 56.2282 35.8307 51.6959 35.8307ZM51.6065 23.6435C49.4028 23.6435 47.6166 25.4287 47.6166 27.6304C47.6166 29.8322 49.4028 31.6174 51.6065 31.6174C53.8101 31.6174 55.5963 29.8322 55.5963 27.6304C55.5955 25.4279 53.8093 23.6435 51.6065 23.6435Z" fill="white"/>
<path d="M60.1922 43.7811C59.8145 43.7811 59.4328 43.6776 59.0908 43.4596C56.8646 42.0431 54.2833 41.2942 51.6257 41.2942C49.0031 41.2942 46.4505 42.0245 44.2438 43.4071C43.2877 44.006 42.0238 43.7208 41.4214 42.7703C40.819 41.8197 41.1058 40.5631 42.0619 39.9642C44.9223 38.1721 48.2297 37.2246 51.6257 37.2246C55.0668 37.2246 58.4107 38.1953 61.2968 40.0322C62.2489 40.6381 62.5264 41.8962 61.917 42.8422C61.5268 43.4496 60.8661 43.7811 60.1922 43.7811Z" fill="white"/>
</g>
</g>
<defs>
<filter id="filter0_in_478_2149" x="0.519287" y="0" width="187.961" height="62.8269" filterUnits="userSpaceOnUse" color-interpolation-filters="sRGB">
<feFlood flood-opacity="0" result="BackgroundImageFix"/>
<feBlend mode="normal" in="SourceGraphic" in2="BackgroundImageFix" result="shape"/>
<feColorMatrix in="SourceAlpha" type="matrix" values="0 0 0 0 0 0 0 0 0 0 0 0 0 0 0 0 0 0 127 0" result="hardAlpha"/>
<feMorphology radius="1.55769" operator="erode" in="SourceAlpha" result="effect1_innerShadow_478_2149"/>
<feOffset dy="8.82692"/>
<feGaussianBlur stdDeviation="7.39904"/>
<feComposite in2="hardAlpha" operator="arithmetic" k2="-1" k3="1"/>
<feColorMatrix type="matrix" values="0 0 0 0 0.528846 0 0 0 0 0.162722 0 0 0 0 0.186092 0 0 0 0.31 0"/>
<feBlend mode="normal" in2="shape" result="effect1_innerShadow_478_2149"/>
<feTurbulence type="fractalNoise" baseFrequency="1.203703761100769 1.203703761100769" stitchTiles="stitch" numOctaves="3" result="noise" seed="3160" />
<feComponentTransfer in="noise" result="coloredNoise1">
<feFuncR type="linear" slope="2" intercept="-0.5" />
<feFuncG type="linear" slope="2" intercept="-0.5" />
<feFuncB type="linear" slope="2" intercept="-0.5" />
<feFuncA type="discrete" tableValues="1 1 1 1 1 1 1 1 1 1 1 1 1 1 1 1 1 1 1 1 1 1 1 1 1 1 1 1 1 1 1 1 1 1 1 1 1 1 1 1 1 1 1 1 1 1 1 1 1 1 1 0 0 0 0 0 0 0 0 0 0 0 0 0 0 0 0 0 0 0 0 0 0 0 0 0 0 0 0 0 0 0 0 0 0 0 0 0 0 0 0 0 0 0 0 0 0 0 0 0 "/>
</feComponentTransfer>
<feComposite operator="in" in2="effect1_innerShadow_478_2149" in="coloredNoise1" result="noise1Clipped" />
<feComponentTransfer in="noise1Clipped" result="color1">
<feFuncA type="table" tableValues="0 0.1" />
</feComponentTransfer>
<feMerge result="effect2_noise_478_2149">
<feMergeNode in="effect1_innerShadow_478_2149" />
<feMergeNode in="color1" />
</feMerge>
</filter>
<linearGradient id="paint0_linear_478_2149" x1="100.343" y1="126" x2="85.6781" y2="-4.24685" gradientUnits="userSpaceOnUse">
<stop stop-color="white"/>
<stop offset="1" stop-color="#D8132A"/>
</linearGradient>
<clipPath id="clip0_478_2149">
<rect width="129.808" height="33.2308" fill="white" transform="translate(29.5962 10.3845)"/>
</clipPath>
</defs>
</svg>
