<svg width="128" height="36" viewBox="0 0 128 36" fill="none" xmlns="http://www.w3.org/2000/svg">
<path d="M9 1V21.5" stroke="#DF4A53" stroke-width="4"/>
<path d="M16 11V31.5" stroke="#2F3C8A" stroke-width="4"/>
<path d="M2 11V31.5" stroke="#2F3C8A" stroke-width="4"/>
<path d="M9 25V35" stroke="#2F3C8A" stroke-width="4"/>
<path d="M39.688 17.36C40.664 17.568 41.448 18.056 42.04 18.824C42.632 19.576 42.928 20.44 42.928 21.416C42.928 22.824 42.432 23.944 41.44 24.776C40.464 25.592 39.096 26 37.336 26H29.488V9.152H37.072C38.784 9.152 40.12 9.544 41.08 10.328C42.056 11.112 42.544 12.176 42.544 13.52C42.544 14.512 42.28 15.336 41.752 15.992C41.24 16.648 40.552 17.104 39.688 17.36ZM33.592 15.968H36.28C36.952 15.968 37.464 15.824 37.816 15.536C38.184 15.232 38.368 14.792 38.368 14.216C38.368 13.64 38.184 13.2 37.816 12.896C37.464 12.592 36.952 12.44 36.28 12.44H33.592V15.968ZM36.616 22.688C37.304 22.688 37.832 22.536 38.2 22.232C38.584 21.912 38.776 21.456 38.776 20.864C38.776 20.272 38.576 19.808 38.176 19.472C37.792 19.136 37.256 18.968 36.568 18.968H33.592V22.688H36.616ZM47.3723 11.216C46.6523 11.216 46.0603 11.008 45.5963 10.592C45.1483 10.16 44.9243 9.632 44.9243 9.008C44.9243 8.368 45.1483 7.84 45.5963 7.424C46.0603 6.992 46.6523 6.776 47.3723 6.776C48.0763 6.776 48.6523 6.992 49.1003 7.424C49.5643 7.84 49.7963 8.368 49.7963 9.008C49.7963 9.632 49.5643 10.16 49.1003 10.592C48.6523 11.008 48.0763 11.216 47.3723 11.216ZM49.4123 12.608V26H45.3083V12.608H49.4123ZM56.2264 22.616H62.0344V26H51.6424V22.736L57.2104 15.992H51.6904V12.608H61.9144V15.872L56.2264 22.616ZM68.3967 12.44V15.848H73.8927V19.016H68.3967V22.712H74.6127V26H64.2927V9.152H74.6127V12.44H68.3967ZM85.4371 12.464C87.0051 12.464 88.2531 12.976 89.1811 14C90.1251 15.008 90.5971 16.4 90.5971 18.176V26H86.5171V18.728C86.5171 17.832 86.2851 17.136 85.8211 16.64C85.3571 16.144 84.7331 15.896 83.9491 15.896C83.1651 15.896 82.5411 16.144 82.0771 16.64C81.6131 17.136 81.3811 17.832 81.3811 18.728V26H77.2771V12.608H81.3811V14.384C81.7971 13.792 82.3571 13.328 83.0611 12.992C83.7651 12.64 84.5571 12.464 85.4371 12.464ZM100.913 22.52V26H98.8249C97.3369 26 96.1769 25.64 95.3449 24.92C94.5129 24.184 94.0969 22.992 94.0969 21.344V16.016H92.4649V12.608H94.0969V9.344H98.2009V12.608H100.889V16.016H98.2009V21.392C98.2009 21.792 98.2969 22.08 98.4889 22.256C98.6809 22.432 99.0009 22.52 99.4489 22.52H100.913ZM107.303 14.84C107.783 14.104 108.383 13.528 109.103 13.112C109.823 12.68 110.623 12.464 111.503 12.464V16.808H110.375C109.351 16.808 108.583 17.032 108.071 17.48C107.559 17.912 107.303 18.68 107.303 19.784V26H103.199V12.608H107.303V14.84ZM127.145 12.608L118.745 32.36H114.329L117.401 25.544L111.953 12.608H116.537L119.633 20.984L122.705 12.608H127.145Z" fill="#091F44"/>
</svg>
