<svg width="42" height="42" viewBox="0 0 42 42" fill="none" xmlns="http://www.w3.org/2000/svg">
<g clip-path="url(#clip0_53_1064)">
<path fill-rule="evenodd" clip-rule="evenodd" d="M42 37.0825C41.755 35.3325 39.515 33.4425 38.4125 32.6725L37.24 31.85C36.05 30.9575 36.4875 30.555 35.7875 30.555C35.7875 28.805 36.015 27.1775 36.015 25.655V23.555C36.015 22.8725 35.875 22.155 35.77 21.455C35.525 19.9325 35.1925 18.3925 34.7725 16.6075C34.7465 16.429 34.6509 16.2681 34.5066 16.1599C34.3623 16.0517 34.1811 16.005 34.0025 16.03C33.9147 16.0428 33.8303 16.0729 33.7544 16.1188C33.6784 16.1646 33.6124 16.2252 33.5602 16.297C33.508 16.3687 33.4707 16.4502 33.4505 16.5366C33.4303 16.623 33.4276 16.7126 33.4425 16.8C33.565 18.655 33.565 20.3 33.635 21.7875C33.635 22.9075 33.635 23.9925 33.8275 25.095C34.02 26.845 34.3525 28.595 34.6675 30.59H31.29C29.19 30.5025 27.0725 30.275 24.9725 30.135C23.5375 30.0475 22.12 29.995 20.7025 29.96C18.9525 29.96 17.29 29.96 15.5925 30.1525C13.055 30.345 10.5525 30.6775 8.01498 30.9925C7.85718 30.9925 7.70584 31.0552 7.59426 31.1668C7.48267 31.2784 7.41998 31.4297 7.41998 31.5875C7.41998 31.7453 7.48267 31.8967 7.59426 32.0082C7.70584 32.1198 7.85718 32.1825 8.01498 32.1825H13.055C15.5575 32.1825 18.0425 32.1825 20.5625 32.3225C22.0675 32.3225 23.5725 32.41 25.095 32.445C26.6175 32.48 28.14 32.445 29.6625 32.445C31.4125 32.445 33.2675 32.305 35.035 32.13L36.3475 33.1625L37.52 34.0725C38.1545 34.5311 38.7409 35.053 39.27 35.63L32.0425 35H24.9025C21.4025 35 17.78 35.21 14.2275 35.21C11.2875 35.315 8.31248 35.7175 5.35498 35.8225H2.20498C2.52595 35.0225 2.96224 34.2737 3.49998 33.6L4.68998 32.5325L6.43998 31.3775C6.57922 31.3032 6.68326 31.1767 6.7292 31.0257C6.77515 30.8748 6.75924 30.7117 6.68498 30.5725C6.61959 30.4694 6.52406 30.3889 6.41136 30.3419C6.29866 30.295 6.17424 30.2838 6.05498 30.31L6.29998 27.09C6.42248 25.4975 6.61498 23.9225 6.73748 22.3125C6.85998 20.7025 6.99998 19.1275 6.99998 17.5C6.80748 13.405 6.64998 15.33 8.74998 14.98L12.8975 14.2275C13.06 14.1772 13.1978 14.0681 13.284 13.9215C13.3703 13.7749 13.3986 13.6013 13.3636 13.4349C13.3286 13.2685 13.2326 13.1211 13.0946 13.0217C12.9566 12.9223 12.7864 12.878 12.6175 12.8975L8.57498 13.2475C8.25998 13.2475 6.82498 13.125 6.12498 13.2475C5.94308 13.2683 5.76722 13.3256 5.60788 13.4157C5.44854 13.5059 5.30897 13.6273 5.19748 13.7725C5.00515 14.0989 4.88575 14.4631 4.84748 14.84C4.72498 15.68 4.84748 16.9925 4.84748 17.465C4.84748 19.075 4.67248 20.685 4.65498 22.2775C4.63748 23.87 4.65498 25.4975 4.77748 27.1075L4.93498 31.01L4.07748 31.535L2.65998 32.69C1.49671 33.8138 0.630785 35.2089 0.139984 36.75C-0.0817996 37.3739 -0.0941533 38.0532 0.104795 38.6847C0.303742 39.3163 0.703148 39.8658 1.24248 40.25C1.82856 40.6372 2.49103 40.8938 3.18498 41.0025C4.07761 41.1267 4.97929 41.1736 5.87998 41.1425L11.62 41.3875C16.625 41.3875 21.63 41.685 26.6175 41.7025C28.7875 41.7025 30.9575 41.7025 33.1275 41.475L36.75 40.915L38.99 40.3375L40.4775 39.7075C40.9951 39.5127 41.4294 39.1449 41.7069 38.6665C41.9844 38.1881 42.0879 37.6285 42 37.0825ZM39.69 38.15L38.465 38.605L36.4175 39.06L33.0575 39.375H28.805C23.0825 39.375 17.36 39.025 11.6375 39.0775H5.86248C5.05901 39.1476 4.25096 39.1476 3.44748 39.0775C3.01173 39.0225 2.59023 38.8859 2.20498 38.675C1.93529 38.4833 1.73723 38.2071 1.64214 37.8901C1.54706 37.5732 1.56037 37.2335 1.67998 36.925C1.67998 36.925 1.67998 36.8375 1.67998 36.8025C2.8862 36.9778 4.10158 37.083 5.31998 37.1175C8.25998 37.2225 11.2525 37.1175 14.175 37.1175H21.35C24.85 37.03 28.4725 36.785 32.025 36.6625H40.0225H40.1275C40.2266 36.7821 40.2942 36.9247 40.3239 37.0772C40.3536 37.2297 40.3445 37.3872 40.2975 37.5353C40.2504 37.6834 40.1669 37.8173 40.0547 37.9247C39.9424 38.0321 39.805 38.1096 39.655 38.15H39.69Z" fill="white"/>
<path fill-rule="evenodd" clip-rule="evenodd" d="M16.4675 12.25C17.0765 12.8144 17.7387 13.3184 18.445 13.755C18.5125 13.8155 18.5914 13.862 18.6771 13.8917C18.7627 13.9214 18.8535 13.9337 18.9439 13.928C19.0344 13.9222 19.1229 13.8985 19.2041 13.8582C19.2853 13.8178 19.3576 13.7618 19.4169 13.6932C19.4762 13.6246 19.5213 13.5448 19.5494 13.4587C19.5775 13.3725 19.5882 13.2815 19.5808 13.1912C19.5734 13.1008 19.5481 13.0128 19.5063 12.9323C19.4645 12.8519 19.4072 12.7805 19.3375 12.7225C18.8654 12.302 18.4266 11.8457 18.025 11.3575C17.8564 11.1449 17.7476 10.8912 17.71 10.6225L18.0075 10.1675C18.3238 9.68449 18.7495 9.2828 19.25 8.995C19.8302 8.65018 20.4626 8.40195 21.1225 8.26L21.875 8.1375C21.875 8.1375 21.735 8.3125 21.6825 8.4175C20.8863 9.76895 20.2965 11.2318 19.9325 12.7575C19.7735 13.3453 19.7705 13.9644 19.924 14.5536C20.0774 15.1429 20.382 15.6819 20.8075 16.1175L22.155 17.5C22.6003 17.956 23.1616 18.2817 23.7784 18.4421C24.3952 18.6024 25.044 18.5913 25.655 18.41C27.1932 17.9996 28.6618 17.3627 30.0125 16.52C30.1525 16.52 30.275 16.3275 30.415 16.2575L30.2575 17.15C30.1155 17.8099 29.8673 18.4423 29.5225 19.0225C29.2283 19.5485 28.8147 19.998 28.315 20.335L27.86 20.6325C27.5913 20.5949 27.3376 20.4861 27.125 20.3175C26.6409 19.9113 26.1849 19.4728 25.76 19.005C25.6406 18.8718 25.4737 18.7908 25.2952 18.7795C25.1167 18.7681 24.9408 18.8273 24.8055 18.9443C24.6702 19.0612 24.5862 19.2267 24.5716 19.4049C24.557 19.5832 24.613 19.7601 24.7275 19.8975C25.1641 20.6038 25.6681 21.266 26.2325 21.875C26.5762 22.2066 26.9973 22.4472 27.4575 22.575C27.7804 22.6451 28.1146 22.6451 28.4375 22.575C28.8333 22.4949 29.2122 22.3468 29.5575 22.1375C30.3774 21.6499 31.049 20.9481 31.5 20.1075C31.8042 19.2729 31.9467 18.3879 31.92 17.5L31.78 15.75C31.7714 15.6452 31.7714 15.5398 31.78 15.435C32.9349 14.6266 33.9817 13.6739 34.895 12.6C36.3081 10.8689 37.2647 8.81118 37.6775 6.615C37.8101 5.6512 37.8101 4.67379 37.6775 3.71C37.651 2.83365 37.3235 1.99318 36.75 1.33C36.1315 0.79558 35.3595 0.470877 34.545 0.402496C33.5855 0.334181 32.6212 0.387098 31.675 0.559996C29.5033 1.04227 27.4838 2.05201 25.795 3.5C24.7142 4.43773 23.7559 5.50781 22.9425 6.685H22.75L21 6.475C20.0643 6.46898 19.1367 6.64738 18.27 7C17.3905 7.44603 16.6605 8.13948 16.17 8.995C15.9704 9.3307 15.8285 9.69743 15.75 10.08C15.6797 10.397 15.6797 10.7255 15.75 11.0425C15.8918 11.4954 16.1375 11.9089 16.4675 12.25ZM26.9675 4.97C28.4546 3.82636 30.1954 3.05799 32.0425 2.73C32.6548 2.62432 33.2766 2.58326 33.8975 2.6075C34.3273 2.57166 34.757 2.67604 35.1225 2.905C35.3677 3.28351 35.4786 3.7334 35.4375 4.1825C35.4794 4.8196 35.4501 5.4594 35.35 6.09C35.0913 7.94295 34.369 9.7006 33.25 11.2C32.0877 12.7334 30.6519 14.0386 29.015 15.05C27.8412 15.8565 26.556 16.4873 25.2 16.9225C24.8485 17.0506 24.4694 17.0841 24.1008 17.0196C23.7323 16.9551 23.3871 16.7949 23.1 16.555L21.6825 15.2075C21.4306 14.906 21.2624 14.5436 21.1948 14.1565C21.1273 13.7695 21.1627 13.3715 21.2975 13.0025C21.7364 11.647 22.3796 10.3664 23.205 9.205C24.2165 7.58906 25.5084 6.16673 27.02 5.005L26.9675 4.97Z" fill="white"/>
<path fill-rule="evenodd" clip-rule="evenodd" d="M14.2799 19.04C14.4455 19.1604 14.6284 19.2548 14.8224 19.32L14.6824 19.5125C13.9943 20.3445 13.4069 21.255 12.9324 22.225C12.6897 22.8433 12.6409 23.5208 12.7924 24.1675C12.8508 24.3473 12.9531 24.5097 13.0899 24.64C13.222 24.7747 13.3839 24.8766 13.5624 24.9375C14.278 25.1659 15.0504 25.1412 15.7499 24.8675C16.7146 24.3933 17.6193 23.8058 18.4449 23.1175L18.6374 22.9775C18.7059 23.1756 18.8 23.3639 18.9174 23.5375C19.099 23.9042 19.4148 24.187 19.7993 24.3271C20.1838 24.4672 20.6075 24.4539 20.9824 24.29C21.7241 23.9027 22.2881 23.2446 22.5574 22.4525C22.7479 21.89 22.8194 21.2941 22.7674 20.7025C22.7046 19.9437 22.5935 19.1897 22.4349 18.445C22.4246 18.3561 22.3959 18.2704 22.3508 18.1932C22.3056 18.1159 22.245 18.0489 22.1726 17.9963C22.1003 17.9437 22.0178 17.9066 21.9304 17.8875C21.8431 17.8683 21.7527 17.8675 21.6649 17.885C21.5773 17.8957 21.4927 17.9239 21.416 17.9677C21.3394 18.0115 21.2722 18.0701 21.2184 18.1402C21.1647 18.2102 21.1254 18.2903 21.1029 18.3757C21.0804 18.461 21.0752 18.55 21.0874 18.6375C21.1853 19.3275 21.238 20.0231 21.2449 20.72C21.2478 21.1091 21.1766 21.4951 21.0349 21.8575C21.0349 22.015 20.6499 22.155 20.4749 22.3125L20.3874 21.1575C20.306 20.8722 20.1146 20.6309 19.8555 20.4865C19.5963 20.3422 19.2904 20.3065 19.0049 20.3875L18.5149 20.5625L17.2374 21.2975C16.8174 21.56 16.2049 21.9975 15.4874 22.3475H15.3999C15.7213 21.7438 16.0777 21.1595 16.4674 20.5975L17.1849 19.285C17.2559 19.1324 17.3144 18.9744 17.3599 18.8125C17.3681 18.7603 17.3681 18.7072 17.3599 18.655C17.396 18.52 17.4028 18.3788 17.3798 18.241C17.3568 18.1031 17.3046 17.9718 17.2267 17.8558C17.1489 17.7398 17.047 17.6418 16.9282 17.5683C16.8093 17.4949 16.676 17.4477 16.5374 17.43L15.2774 17.5C15.2774 17.5 15.2774 17.4125 15.1724 17.5C15.0674 17.5875 15.1724 17.675 15.1724 17.6575C15.1724 17.64 15.6449 17.08 15.9074 16.975C16.2737 16.8217 16.6655 16.7385 17.0624 16.73C17.7589 16.7313 18.4546 16.778 19.1449 16.87C19.2232 16.8824 19.3031 16.879 19.38 16.8601C19.457 16.8411 19.5293 16.807 19.5929 16.7598C19.6565 16.7125 19.71 16.653 19.7502 16.5848C19.7905 16.5166 19.8168 16.441 19.8274 16.3625C19.8482 16.2741 19.8491 16.1822 19.83 16.0935C19.811 16.0047 19.7724 15.9213 19.7171 15.8493C19.6618 15.7773 19.5913 15.7184 19.5105 15.6771C19.4297 15.6357 19.3407 15.6128 19.2499 15.61C18.51 15.4539 17.7623 15.3371 17.0099 15.26C16.4197 15.2127 15.8258 15.278 15.2599 15.4525C14.5107 15.7392 13.8896 16.2858 13.5099 16.9925C13.3525 17.3676 13.3446 17.7886 13.4878 18.1694C13.6309 18.5501 13.9144 18.8616 14.2799 19.04Z" fill="white"/>
</g>
<defs>
<clipPath id="clip0_53_1064">
<rect width="42" height="42" fill="white"/>
</clipPath>
</defs>
</svg>
