<svg width="48" height="48" viewBox="0 0 48 48" fill="none" xmlns="http://www.w3.org/2000/svg">
<path fill-rule="evenodd" clip-rule="evenodd" d="M29.2459 19.7684C27.9398 19.3201 26.5809 19.0436 25.2034 18.9459V18.3334C25.2034 17.8434 25.2909 17.3709 25.3434 16.8809C25.3692 16.7326 25.3361 16.5801 25.2511 16.4559C25.1661 16.3317 25.036 16.2456 24.8884 16.2159C24.7431 16.1938 24.5948 16.2263 24.472 16.307C24.3492 16.3878 24.2607 16.5112 24.2234 16.6534C23.9959 17.3884 23.8734 18.1409 23.6809 18.8759C23.0935 18.8818 22.5079 18.9404 21.9309 19.0509C21.249 19.1427 20.6111 19.4395 20.1017 19.902C19.5923 20.3646 19.2354 20.971 19.0784 21.6409C19.0019 22.0078 19.0093 22.3874 19.1003 22.751C19.1912 23.1147 19.3632 23.4531 19.6034 23.7409C19.9299 24.0997 20.3308 24.3828 20.7783 24.5702C21.2257 24.7576 21.7087 24.8449 22.1934 24.8259H22.8409V26.2259C22.8409 26.6984 22.9459 27.4859 22.9984 28.1159C22.6781 28.1421 22.3562 28.1421 22.0359 28.1159C21.2144 27.9629 20.4227 27.6793 19.6909 27.2759C19.6197 27.2334 19.5408 27.2053 19.4587 27.1933C19.3766 27.1813 19.2929 27.1855 19.2125 27.2058C19.1321 27.2262 19.0564 27.2621 18.9899 27.3117C18.9233 27.3612 18.8672 27.4234 18.8247 27.4946C18.7822 27.5659 18.7541 27.6448 18.7421 27.7269C18.7301 27.809 18.7343 27.8926 18.7546 27.9731C18.775 28.0535 18.8109 28.1291 18.8605 28.1957C18.91 28.2622 18.9722 28.3184 19.0434 28.3609C19.8661 28.9067 20.7783 29.3036 21.7384 29.5334C22.1921 29.6415 22.655 29.7059 23.1209 29.7259C23.1209 30.2684 23.1209 30.8284 23.2609 31.3709C23.2609 31.538 23.3273 31.6982 23.4455 31.8164C23.5636 31.9345 23.7238 32.0009 23.8909 32.0009C24.058 32.0009 24.2183 31.9345 24.3364 31.8164C24.4546 31.6982 24.5209 31.538 24.5209 31.3709C24.5209 30.8109 24.5209 30.2509 24.6259 29.6209H24.7309C26.1053 29.4592 27.3864 28.8433 28.3709 27.8709C28.7655 27.4343 29.0105 26.8832 29.0703 26.2978C29.1301 25.7124 29.0016 25.1232 28.7034 24.6159C28.5079 24.225 28.2324 23.8797 27.8947 23.6023C27.557 23.325 27.1648 23.1217 26.7434 23.0059C26.175 22.8359 25.5865 22.7417 24.9934 22.7259V22.1484C24.9934 21.5359 24.9934 20.9234 25.0809 20.3984C26.3314 20.3815 27.5787 20.5286 28.7909 20.8359C28.861 20.8606 28.9353 20.8712 29.0094 20.8669C29.0836 20.8627 29.1562 20.8438 29.223 20.8112C29.2898 20.7786 29.3494 20.7331 29.3984 20.6772C29.4474 20.6214 29.4848 20.5563 29.5084 20.4859C29.5636 20.3553 29.5673 20.2086 29.5185 20.0754C29.4698 19.9422 29.3724 19.8325 29.2459 19.7684ZM26.7959 25.6834C26.9421 25.9037 26.9982 26.1718 26.9527 26.4322C26.9071 26.6927 26.7633 26.9258 26.5509 27.0834C25.9886 27.5108 25.3457 27.8203 24.6609 27.9934L24.8709 24.9834C25.098 24.9644 25.3263 24.9644 25.5534 24.9834C26.1134 25.1059 26.5509 25.2109 26.7959 25.6834ZM22.2459 22.6734C21.8807 22.7095 21.5134 22.6299 21.1959 22.4459C21.1174 22.3897 21.0572 22.3115 21.023 22.2212C20.9887 22.1309 20.9819 22.0325 21.0034 21.9384C21.0909 21.0284 22.0709 20.7134 23.1734 20.5209H23.2959C23.2084 20.9409 23.0684 21.3434 22.9984 21.7634C22.9284 22.1834 22.9984 22.3934 22.9109 22.7084L22.2459 22.6734Z" fill="white"/>
<path fill-rule="evenodd" clip-rule="evenodd" d="M44.0509 22.0784C43.5941 21.8232 43.0857 21.6737 42.5634 21.6409C42.1662 21.6683 41.773 21.7387 41.3909 21.8509C41.1768 19.2731 40.3938 16.7748 39.0984 14.5359C38.1643 13.0237 36.9809 11.6806 35.5984 10.5634C34.6646 9.84366 33.6554 9.22755 32.5884 8.72588C31.5974 8.26551 30.5665 7.89648 29.5084 7.62338C28.5899 7.41696 27.6497 7.32294 26.7084 7.34338V5.59338C26.6179 4.9402 26.331 4.32993 25.8859 3.84338C25.6117 3.54632 25.2501 3.34409 24.8534 3.26588C24.43 3.19548 23.9952 3.25878 23.6094 3.44696C23.2237 3.63514 22.9061 3.93886 22.7009 4.31588C22.4632 4.75629 22.3089 5.23687 22.2459 5.73338C22.1935 6.23952 22.1935 6.74973 22.2459 7.25588C19.6421 7.3701 17.1189 8.19302 14.9484 9.63588C13.8394 10.3626 12.8126 11.2075 11.8859 12.1559C10.9838 13.0928 10.1642 14.1057 9.43594 15.1834C8.77686 16.2259 8.19208 17.3136 7.68594 18.4384C7.29803 19.4011 7.02205 20.4052 6.86344 21.4309C6.58839 21.3424 6.30777 21.2723 6.02344 21.2209C5.58099 21.1808 5.13498 21.2283 4.71094 21.3609C4.31031 21.4916 3.94853 21.72 3.65828 22.0255C3.36803 22.3311 3.15845 22.7041 3.04844 23.1109C2.94009 23.5579 2.95976 24.0264 3.10522 24.4628C3.25068 24.8992 3.51604 25.2858 3.87094 25.5784C4.32106 25.9099 4.84243 26.1316 5.39344 26.2259C5.87115 26.2605 6.35074 26.2605 6.82844 26.2259C6.79567 29.0028 7.63414 31.7202 9.22594 33.9959C10.0849 35.2583 11.1023 36.4052 12.2534 37.4084C13.4093 38.3733 14.6647 39.2122 15.9984 39.9109C17.2342 40.5716 18.5443 41.0827 19.9009 41.4334C20.5425 41.5452 21.1922 41.6038 21.8434 41.6084C21.8624 41.8612 21.8975 42.1125 21.9484 42.3609C22.1161 42.9703 22.4215 43.5331 22.8409 44.0059C23.063 44.2437 23.3309 44.4342 23.6284 44.5659C24.0479 44.7748 24.5305 44.8187 24.9809 44.6891C25.4312 44.5595 25.8166 44.2658 26.0609 43.8659C26.3461 43.4082 26.531 42.8952 26.6034 42.3609C26.6213 42.122 26.6213 41.8822 26.6034 41.6434C27.3502 41.6686 28.0971 41.598 28.8259 41.4334C30.1181 41.0979 31.3599 40.5918 32.5184 39.9284C33.8192 39.2189 35.0296 38.3552 36.1234 37.3559C37.2269 36.3635 38.1922 35.2275 38.9934 33.9784C40.5016 31.655 41.2591 28.9242 41.1634 26.1559C41.4548 26.1732 41.747 26.1732 42.0384 26.1559C42.3641 26.192 42.6928 26.192 43.0184 26.1559C43.5144 26.0438 43.9663 25.7882 44.318 25.421C44.6696 25.0538 44.9054 24.5912 44.9959 24.0909C45.0583 23.6994 45.0016 23.2981 44.8331 22.9392C44.6645 22.5804 44.392 22.2804 44.0509 22.0784ZM42.7384 24.0384C42.6509 24.1434 42.5984 24.2834 42.4584 24.3534C42.2076 24.481 41.9435 24.5808 41.6709 24.6509C41.36 24.7219 41.0441 24.7687 40.7259 24.7909C40.6276 24.7965 40.5316 24.8228 40.4442 24.868C40.3567 24.9132 40.2798 24.9764 40.2184 25.0534C40.1339 25.1511 40.0846 25.2743 40.0784 25.4034C39.9928 27.5311 39.3403 29.5974 38.1884 31.3884C37.3653 32.7475 36.3843 34.0046 35.2659 35.1334C34.1614 36.2958 32.9285 37.329 31.5909 38.2134C30.625 38.9365 29.5653 39.5253 28.4409 39.9634C27.8281 40.1589 27.1931 40.2765 26.5509 40.3134C26.5465 40.1663 26.4861 40.0263 26.3821 39.9223C26.278 39.8182 26.1381 39.7578 25.9909 39.7534C25.9159 39.7533 25.8416 39.7684 25.7725 39.7976C25.7034 39.8268 25.6409 39.8697 25.5886 39.9235C25.5364 39.9774 25.4955 40.0412 25.4684 40.1112C25.4413 40.1812 25.4286 40.2559 25.4309 40.3309C25.3556 40.7955 25.2384 41.2523 25.0809 41.6959C24.5209 43.1134 24.2934 42.5009 24.1884 42.4134C23.9747 42.2424 23.7861 42.0421 23.6284 41.8184C23.1034 40.8209 23.2609 39.6309 22.4209 39.7009C22.2692 39.7178 22.1288 39.7892 22.0258 39.9019C21.9228 40.0145 21.8642 40.1608 21.8609 40.3134C21.1432 40.2192 20.4386 40.0431 19.7609 39.7884C18.7967 39.3624 17.8715 38.853 16.9959 38.2659C15.6135 37.3972 14.3286 36.3821 13.1634 35.2384C11.9621 34.1338 10.8985 32.8881 9.99594 31.5284C8.85192 29.8413 8.15907 27.8892 7.98344 25.8584C7.98344 25.8584 7.98344 25.7534 7.98344 25.6834V25.5084C7.98344 24.6334 7.26594 25.1934 6.23344 24.7559C5.90529 24.611 5.61709 24.3888 5.39344 24.1084C5.33468 24.0498 5.29119 23.9776 5.26678 23.8983C5.24237 23.819 5.23779 23.7349 5.25344 23.6534C5.26851 23.552 5.30622 23.4553 5.36378 23.3704C5.42134 23.2856 5.49728 23.2148 5.58594 23.1634C5.82502 23.0009 6.10267 22.9044 6.39094 22.8834C6.75125 22.8391 7.11563 22.8391 7.47594 22.8834C7.63585 22.9219 7.80443 22.8981 7.94743 22.8169C8.09044 22.7356 8.19717 22.603 8.24594 22.4459C8.26895 22.3509 8.26821 22.2517 8.24379 22.1571C8.21938 22.0625 8.17203 21.9754 8.10594 21.9034C8.2555 21.1578 8.4843 20.4303 8.78844 19.7334C9.40748 18.5293 10.1651 17.4016 11.0459 16.3734C11.9232 15.2265 12.8886 14.1499 13.9334 13.1534C14.9453 12.1493 16.0531 11.2466 17.2409 10.4584C18.8274 9.43071 20.6191 8.7618 22.4909 8.49838C22.4909 8.49838 22.5784 8.49838 22.6309 8.49838C22.7798 8.49425 22.9217 8.43444 23.0287 8.33076C23.1356 8.22707 23.1997 8.08706 23.2084 7.93838C23.3311 7.4222 23.501 6.91841 23.7159 6.43338C24.5034 4.52588 24.8709 5.36588 25.0459 5.89088C25.3784 7.02838 25.6584 8.42838 26.2359 8.41088C27.2114 8.4509 28.1742 8.64583 29.0884 8.98838C30.0151 9.34682 30.9057 9.79214 31.7484 10.3184C33.9578 11.6755 35.8736 13.4604 37.3834 15.5684C41.9684 22.2359 38.1534 22.1134 42.0559 23.1459C42.3545 23.2303 42.6183 23.4082 42.8084 23.6534C42.9309 23.8284 42.8259 23.9334 42.7384 24.0384Z" fill="white"/>
<path fill-rule="evenodd" clip-rule="evenodd" d="M36.9112 21.3785C36.6962 19.5595 36.0999 17.8063 35.1612 16.2335C34.7121 15.5065 34.1839 14.8316 33.5862 14.221C32.988 13.6083 32.3249 13.0626 31.6087 12.5935C30.1332 11.6824 28.5014 11.0534 26.7962 10.7385C25.6237 10.5285 25.5012 12.4885 25.4662 12.6285C25.429 12.7766 25.3393 12.9061 25.2137 12.993C25.0882 13.0799 24.9354 13.1183 24.7837 13.101C24.6437 13.101 24.5387 12.9785 24.4337 12.8735C24.3506 12.7868 24.2957 12.677 24.2762 12.5585C24.1012 12.5585 24.4162 11.946 24.4162 11.771C24.4455 11.5637 24.4089 11.3525 24.3115 11.1672C24.2142 10.9819 24.061 10.8319 23.8737 10.7385C23.2856 10.5006 22.6408 10.4398 22.0187 10.5635C20.928 10.8106 19.8705 11.1866 18.8687 11.6835C17.8721 12.159 16.9328 12.7461 16.0687 13.4335C15.2179 14.1669 14.4598 15.0014 13.8112 15.9185C12.5526 17.7095 11.6442 19.7224 11.1337 21.851C11.1123 21.9222 11.1053 21.997 11.1132 22.0709C11.121 22.1449 11.1435 22.2165 11.1794 22.2817C11.2152 22.3469 11.2637 22.4042 11.3219 22.4505C11.3802 22.4967 11.4471 22.5309 11.5187 22.551C11.6041 22.5718 11.6934 22.5716 11.7788 22.5502C11.8642 22.5289 11.943 22.4871 12.0087 22.4285C12.3603 22.4306 12.7048 22.5274 13.0062 22.7085C13.2908 22.8627 13.5271 23.0929 13.6887 23.3735V23.741C13.5399 23.9414 13.3213 24.0788 13.0762 24.126C12.3587 24.3185 11.5887 24.3535 10.9587 24.5635C10.0662 24.7035 10.7312 25.2985 11.0987 27.1535C11.2037 27.591 11.3087 28.0285 11.4487 28.4485C11.8495 29.673 12.3897 30.8473 13.0587 31.9485C13.7606 33.0233 14.6154 33.9902 15.5962 34.8185C17.5691 36.5613 20.1412 37.4709 22.7712 37.356C23.6637 37.356 23.1912 36.4635 23.4537 35.7985C23.5465 35.5461 23.6962 35.3186 23.8912 35.1335C23.9962 34.9935 24.2062 34.9935 24.3987 34.9935H24.8187C25.0152 35.1669 25.1604 35.3908 25.2387 35.641C25.3293 35.9718 25.3764 36.313 25.3787 36.656C25.3585 36.8226 25.4038 36.9905 25.505 37.1243C25.6062 37.2581 25.7554 37.3475 25.9212 37.3735C26.812 37.3078 27.6894 37.1194 28.5287 36.8135C29.2987 36.516 29.9987 36.1135 30.6987 35.7635C31.7166 35.2667 32.6887 34.6811 33.6037 34.0135C34.2547 33.502 34.8422 32.9145 35.3537 32.2635C35.9394 31.4592 36.3942 30.5674 36.7012 29.621C36.7012 29.5335 38.1362 24.371 36.6137 24.6335C36.1752 24.5751 35.7624 24.393 35.4237 24.1085C35.1962 23.9685 34.9687 23.7585 35.2312 23.5135C35.4115 23.2617 35.6606 23.0672 35.9487 22.9535C36.9987 22.516 37.4187 21.431 36.9112 21.3785ZM33.7612 22.0085C33.5419 22.1817 33.3615 22.399 33.2316 22.6463C33.1016 22.8937 33.0251 23.1656 33.007 23.4444C32.9888 23.7232 33.0295 24.0027 33.1262 24.2648C33.223 24.527 33.3737 24.7658 33.5687 24.966C34.2447 25.5816 35.1219 25.93 36.0362 25.946C35.889 26.7659 35.6604 27.569 35.3537 28.3435C34.9869 29.2976 34.447 30.1756 33.7612 30.9335C33.3332 31.4432 32.8586 31.9119 32.3437 32.3335C31.5572 33.02 30.7334 33.6627 29.8762 34.2585C29.2827 34.7086 28.6633 35.1235 28.0212 35.501C27.6516 35.7112 27.2579 35.8757 26.8487 35.991C26.8747 35.7116 26.8747 35.4304 26.8487 35.151C26.8026 34.6943 26.6594 34.2528 26.4287 33.856C26.1959 33.5009 25.8711 33.2157 25.4889 33.0308C25.1067 32.8459 24.6815 32.7682 24.2587 32.806C23.8448 32.8393 23.4463 32.9772 23.1004 33.2068C22.7545 33.4364 22.4726 33.7501 22.2812 34.1185C22.1347 34.4826 22.0404 34.8655 22.0012 35.256V35.8685C20.5337 35.615 19.1478 35.015 17.9587 34.1185C16.9332 33.2577 16.0217 32.2698 15.2462 31.1785C14.3605 30.1464 13.5916 29.0196 12.9537 27.8185C12.7676 27.482 12.6096 27.1309 12.4812 26.7685C12.3412 26.436 12.2537 26.1035 12.1312 25.7885C12.6723 25.8974 13.2249 25.9386 13.7762 25.911C14.3252 25.8419 14.8391 25.6033 15.2462 25.2285C15.4886 25.0116 15.6743 24.7389 15.7871 24.4338C15.9 24.1288 15.9365 23.8009 15.8937 23.4785C15.8285 22.9507 15.6024 22.4558 15.2462 22.061C14.7551 21.6095 14.15 21.3008 13.4962 21.1685C13.2277 21.0982 12.9512 21.0629 12.6737 21.0635C13.3282 19.6078 14.1952 18.2572 15.2462 17.056C15.7895 16.4774 16.3743 15.9393 16.9962 15.446C18.4791 14.1667 20.214 13.2128 22.0887 12.646L22.5262 12.506C22.5828 13.0883 22.8505 13.6298 23.2787 14.0285C23.7051 14.4411 24.2778 14.6677 24.8712 14.6585C25.2626 14.662 25.6466 14.5513 25.976 14.34C26.3055 14.1286 26.5662 13.8257 26.7262 13.4685C26.9129 13.0439 27.0083 12.5848 27.0062 12.121C28.2197 12.6718 29.3602 13.3713 30.4012 14.2035C30.9787 14.676 31.5212 15.166 32.0637 15.691C32.5787 16.2062 33.0581 16.7558 33.4987 17.336C34.4088 18.517 35.102 19.8502 35.5462 21.2735H35.3887C34.7855 21.3524 34.2192 21.6081 33.7612 22.0085Z" fill="white"/>
</svg>
