<svg width="48" height="48" viewBox="0 0 48 48" fill="none" xmlns="http://www.w3.org/2000/svg">
<path fill-rule="evenodd" clip-rule="evenodd" d="M7.03145 24.2825C8.78145 25.6125 10.024 24.37 8.67645 22.9L8.53645 22.76C8.24935 22.4847 7.94543 22.2276 7.62645 21.99C7.29395 21.745 6.94395 21.535 6.59395 21.325C5.74734 20.849 4.85649 20.4563 3.93395 20.1525C3.77847 20.0759 3.59893 20.0642 3.43484 20.12C3.27074 20.1758 3.13553 20.2945 3.05895 20.45C2.98237 20.6055 2.97069 20.785 3.02648 20.9491C3.08228 21.1132 3.20097 21.2484 3.35645 21.325C4.10895 21.8325 4.73895 22.48 5.45645 23.075C5.9165 23.484 6.40161 23.8639 6.90895 24.2125L7.03145 24.2825Z" fill="white"/>
<path fill-rule="evenodd" clip-rule="evenodd" d="M23.989 33.82C23.9309 33.6576 23.8108 33.5248 23.6549 33.451C23.499 33.3771 23.3201 33.3682 23.1577 33.4262C22.9953 33.4843 22.8625 33.6044 22.7887 33.7603C22.7148 33.9162 22.7059 34.0951 22.764 34.2575C22.8614 34.768 22.752 35.2963 22.4599 35.7263C22.1678 36.1562 21.717 36.4525 21.2065 36.55C20.8978 36.5583 20.5917 36.4923 20.314 36.3575C20.0148 36.243 19.7413 36.0705 19.509 35.85C19.3539 35.689 19.2078 35.5196 19.0715 35.3425C18.9915 35.2188 18.9324 35.0828 18.8965 34.94C18.8254 34.6071 18.875 34.2597 19.0365 33.96C19.159 33.8375 19.2465 33.715 19.3515 33.5925C19.4966 33.3888 19.681 33.2162 19.894 33.085C20.2788 32.8328 20.7289 32.6984 21.189 32.6984C21.649 32.6984 22.0991 32.8328 22.484 33.085C22.5956 33.1771 22.7377 33.224 22.8822 33.2164C23.0267 33.2087 23.1631 33.147 23.2644 33.0436C23.3656 32.9402 23.4243 32.8025 23.4288 32.6578C23.4334 32.5132 23.3835 32.3721 23.289 32.2625C22.8589 31.8218 22.3201 31.5023 21.7271 31.3364C21.1341 31.1705 20.5078 31.164 19.9115 31.3175C19.9077 31.0448 19.8665 30.7739 19.789 30.5125C19.7295 30.3488 19.6083 30.2149 19.4512 30.1396C19.2941 30.0644 19.1138 30.0537 18.949 30.11C18.8665 30.1374 18.7904 30.1812 18.7252 30.2387C18.66 30.2962 18.607 30.3662 18.5694 30.4446C18.5319 30.523 18.5105 30.6081 18.5065 30.695C18.5026 30.7818 18.5162 30.8685 18.5465 30.95C18.6427 31.2457 18.6427 31.5643 18.5465 31.86C18.0075 32.1691 17.5605 32.616 17.2515 33.155C17.1817 33.1625 17.1112 33.1625 17.0415 33.155C16.738 33.1678 16.4365 33.1015 16.1665 32.9625C15.8297 32.8842 15.5135 32.7351 15.239 32.525C15.0812 32.3713 14.9404 32.2012 14.819 32.0175C14.7272 31.8984 14.6616 31.7612 14.6265 31.615C14.57 31.2461 14.633 30.8688 14.8061 30.5383C14.9793 30.2077 15.2536 29.9411 15.589 29.7775C15.9721 29.5209 16.4228 29.384 16.884 29.384C17.3451 29.384 17.7958 29.5209 18.179 29.7775C18.2903 29.8842 18.4396 29.9424 18.5938 29.9391C18.7481 29.9358 18.8947 29.8714 19.0015 29.76C19.1082 29.6486 19.1663 29.4994 19.163 29.3451C19.1598 29.1909 19.0953 29.0442 18.984 28.9375C18.6291 28.5612 18.1909 28.2733 17.7047 28.097C17.2184 27.9207 16.6975 27.861 16.184 27.9225C16.2464 27.434 16.1738 26.9377 15.974 26.4875C15.9159 26.3251 15.7958 26.1923 15.6399 26.1185C15.484 26.0446 15.3051 26.0357 15.1427 26.0937C14.9803 26.1518 14.8475 26.2719 14.7737 26.4278C14.6998 26.5837 14.6909 26.7626 14.749 26.925C14.8093 27.182 14.8107 27.4492 14.7532 27.7068C14.6956 27.9644 14.5805 28.2057 14.4165 28.4125C14.0758 28.5937 13.7633 28.8237 13.489 29.095C13.3881 29.1459 13.2827 29.1869 13.174 29.2175C12.8718 29.2176 12.5732 29.1519 12.299 29.025C11.9998 28.9105 11.7263 28.738 11.494 28.5175C11.334 28.361 11.1877 28.1912 11.0565 28.01C10.966 27.8857 10.906 27.7418 10.8815 27.59C10.8089 27.2156 10.8688 26.8276 11.0507 26.4924C11.2327 26.1572 11.5255 25.8957 11.879 25.7525C12.2638 25.5003 12.7139 25.3659 13.174 25.3659C13.634 25.3659 14.0841 25.5003 14.469 25.7525C14.582 25.8188 14.7143 25.8447 14.844 25.8259C14.9737 25.8071 15.0932 25.7447 15.1828 25.6491C15.2723 25.5534 15.3267 25.4301 15.3369 25.2994C15.3471 25.1687 15.3126 25.0384 15.239 24.93C14.6862 24.4372 14.0092 24.105 13.2813 23.9693C12.5533 23.8336 11.8021 23.8995 11.109 24.16C10.3788 24.3963 9.7578 24.8869 9.35895 25.5425C8.8551 26.2474 8.63062 27.1141 8.72895 27.975C8.79063 28.3434 8.91492 28.6985 9.09645 29.025C9.34466 29.4143 9.6384 29.7727 9.97145 30.0925C10.4808 30.5307 11.0864 30.8424 11.739 31.0025C12.0059 31.0844 12.2824 31.1315 12.5615 31.1425C12.5263 31.4272 12.5263 31.7152 12.5615 32C12.6263 32.3646 12.7567 32.7144 12.9465 33.0325C13.1833 33.4351 13.4781 33.8007 13.8215 34.1175C14.3289 34.5486 14.9271 34.8596 15.5715 35.0275C15.9873 35.1411 16.4184 35.1884 16.849 35.1675C16.8575 35.2138 16.8575 35.2612 16.849 35.3075C16.9089 35.6789 17.0396 36.0354 17.234 36.3575C17.4712 36.7547 17.766 37.1144 18.109 37.425C18.6094 37.8664 19.2102 38.1788 19.859 38.335C20.4996 38.5169 21.1783 38.5169 21.819 38.335C22.2878 38.1903 22.7229 37.9531 23.0986 37.6375C23.4743 37.3219 23.783 36.9343 24.0065 36.4975C24.1992 36.077 24.2976 35.6194 24.2945 35.1568C24.2915 34.6942 24.1872 34.2379 23.989 33.82Z" fill="white"/>
<path fill-rule="evenodd" clip-rule="evenodd" d="M21.889 14.115C22.127 14.1606 22.3611 14.2249 22.5889 14.3075C23.7964 14.7975 24.4615 13.52 23.5865 12.96C23.1508 12.6995 22.679 12.5049 22.1865 12.3825C21.0935 12.147 19.967 12.1114 18.8614 12.2775C17.8851 12.3435 16.9045 12.2966 15.9389 12.1375L12.3514 10.79C11.5227 10.4413 10.6608 10.1775 9.77895 10.0025C9.70421 10.0087 9.63157 10.0304 9.56563 10.0661C9.49968 10.1018 9.44186 10.1509 9.39581 10.2101C9.34977 10.2693 9.3165 10.3374 9.2981 10.4101C9.27971 10.4828 9.27659 10.5585 9.28895 10.6325C9.30072 10.7631 9.35796 10.8855 9.45071 10.9782C9.54346 11.071 9.66582 11.1282 9.79645 11.14C9.79645 11.14 10.0064 11.245 10.1989 11.35C11.2839 11.91 13.5764 13.345 15.1339 14.1325C15.7738 14.4978 16.4833 14.7244 17.2164 14.7975L19.194 14.395C20.0738 14.1705 20.9818 14.0762 21.889 14.115Z" fill="white"/>
<path fill-rule="evenodd" clip-rule="evenodd" d="M44.8489 9.775C44.7581 9.62451 44.6114 9.5161 44.4409 9.47347C44.2704 9.43084 44.0899 9.45745 43.9389 9.5475L40.824 11.2975C40.2658 11.6175 39.6801 11.8869 39.074 12.1025C38.718 12.2169 38.3452 12.2702 37.9715 12.26C37.3857 12.2511 36.8012 12.2043 36.2215 12.12C35.7064 12.0312 35.1978 11.9084 34.699 11.7525C33.964 11.5075 33.2639 11.1925 32.5289 10.9825C31.9618 10.8107 31.3715 10.7281 30.7789 10.7375C30.3065 10.7595 29.8402 10.8539 29.3965 11.0175C28.7772 11.2234 28.1886 11.5118 27.6465 11.875C27.209 12.1375 23.184 15.865 22.799 16.2675C22.1248 16.9061 21.5365 17.6297 21.049 18.42C20.7126 19.0146 20.5208 19.68 20.489 20.3625C20.4497 20.7616 20.5018 21.1644 20.6412 21.5403C20.7807 21.9163 21.0039 22.2556 21.294 22.5325C21.7055 22.8579 22.185 23.0867 22.697 23.2018C23.2089 23.3169 23.7402 23.3154 24.2514 23.1975C25.1549 23.0168 26.0014 22.6205 26.719 22.0425C27.4339 21.4738 28.1011 20.8475 28.7139 20.17C29.6052 20.5445 30.5503 20.7749 31.5139 20.8525C31.9674 20.9049 32.4255 20.9049 32.879 20.8525C33.3286 20.7874 33.7691 20.6699 34.1915 20.5025C35.157 20.0965 36.0317 19.5015 36.764 18.7525C36.828 18.7105 36.8827 18.6558 36.9247 18.5917C36.9668 18.5277 36.9952 18.4558 37.0083 18.3803C37.0215 18.3049 37.019 18.2275 37.001 18.1531C36.9831 18.0786 36.95 18.0087 36.9039 17.9475C36.8603 17.8854 36.8049 17.8326 36.7408 17.7919C36.6767 17.7513 36.6052 17.7237 36.5305 17.7107C36.4557 17.6977 36.3791 17.6995 36.3051 17.7161C36.231 17.7328 36.161 17.7638 36.0989 17.8075C35.294 18.1488 34.4461 18.3784 33.5789 18.49L32.0564 18.7525C31.7064 18.7525 31.3915 18.875 31.0415 18.8925C30.494 18.9363 29.9439 18.9363 29.3965 18.8925C29.4136 18.8295 29.4136 18.763 29.3965 18.7C29.3442 18.646 29.2817 18.6031 29.2125 18.5738C29.1434 18.5445 29.0691 18.5293 28.9939 18.5293C28.9188 18.5293 28.8445 18.5445 28.7754 18.5738C28.7062 18.6031 28.6437 18.646 28.5914 18.7C27.765 19.5207 26.8756 20.2755 25.9314 20.9575C25.3671 21.346 24.72 21.5976 24.0415 21.6925C23.5718 21.7692 23.0901 21.6827 22.6765 21.4475C22.5119 21.3576 22.3806 21.2173 22.3018 21.0472C22.223 20.877 22.201 20.6861 22.239 20.5025C22.3124 20.102 22.4672 19.7208 22.694 19.3825C23.1297 18.7721 23.6348 18.2142 24.1989 17.72C25.0564 16.8625 25.949 15.97 26.859 15.1125C27.4317 14.5854 28.0462 14.1054 28.6964 13.6775C29.0347 13.4491 29.3918 13.25 29.764 13.0825C30.4533 12.7799 31.2259 12.7243 31.9514 12.925C32.6689 13.0825 33.3514 13.345 34.069 13.555C34.6961 13.7111 35.3335 13.8222 35.9765 13.8875C36.606 13.9223 37.2369 13.9223 37.8665 13.8875C38.4281 13.8712 38.9835 13.7648 39.5115 13.5725C40.2059 13.2816 40.8735 12.9303 41.5065 12.5225L44.534 10.615C44.6848 10.5428 44.8018 10.415 44.8605 10.2584C44.9192 10.1018 44.9151 9.92859 44.8489 9.775Z" fill="white"/>
<path fill-rule="evenodd" clip-rule="evenodd" d="M35.486 27.5027C35.3789 27.1965 35.2503 26.8982 35.101 26.6102C34.606 25.7609 34.0192 24.9687 33.351 24.2477L31.4785 22.1127C31.3835 22.0026 31.2505 21.9324 31.1059 21.916C30.9614 21.8997 30.8161 21.9386 30.6989 22.0248C30.5818 22.111 30.5015 22.2382 30.474 22.381C30.4466 22.5239 30.4741 22.6718 30.551 22.7952L31.9335 25.2802C32.3885 26.0066 32.7863 26.7672 33.1235 27.5552C33.3366 27.9968 33.4784 28.4693 33.5435 28.9552C33.5992 29.2613 33.589 29.5756 33.5135 29.8774C33.4381 30.1792 33.2991 30.4614 33.106 30.7052C32.8606 30.9846 32.5471 31.1956 32.196 31.3177C32.1702 31.2521 32.141 31.1878 32.1085 31.1252C31.7393 30.5764 31.3299 30.0558 30.8835 29.5677L28.3635 26.7152C28.3152 26.644 28.2534 26.5829 28.1816 26.5356C28.1097 26.4882 28.0292 26.4555 27.9447 26.4393C27.7741 26.4064 27.5974 26.4428 27.4535 26.5402C27.3096 26.6377 27.2103 26.7883 27.1775 26.959C27.1447 27.1296 27.181 27.3063 27.2785 27.4502L29.2385 30.7927C29.5718 31.261 29.8814 31.7458 30.166 32.2452C30.3173 32.5033 30.435 32.7797 30.516 33.0677C30.6132 33.268 30.6419 33.4947 30.5977 33.7129C30.5534 33.9311 30.4386 34.1287 30.271 34.2752C30.0207 34.4823 29.7177 34.6156 29.396 34.6602C29.396 34.6602 29.396 34.5552 29.396 34.5027C29.2102 34.1055 28.9813 33.7299 28.7135 33.3827C28.2935 32.8752 27.891 32.3852 27.436 31.9127C26.981 31.4402 26.561 30.9852 26.0885 30.5477C25.9926 30.4305 25.8545 30.3556 25.7039 30.3393C25.5533 30.3229 25.4023 30.3663 25.2835 30.4602C25.1651 30.5592 25.0898 30.7003 25.0734 30.8538C25.0571 31.0072 25.1011 31.161 25.196 31.2827C25.476 31.7027 25.721 32.1052 25.966 32.5427C26.211 32.9802 26.6485 33.8202 26.9635 34.4852L27.4535 35.6752L27.2085 36.0952C27.0904 36.2843 26.9347 36.4471 26.7511 36.5736C26.5674 36.7 26.3598 36.7874 26.141 36.8302C25.7183 36.9427 25.2687 36.8927 24.881 36.6902C24.8086 36.6453 24.7281 36.6151 24.6441 36.6013C24.56 36.5876 24.4741 36.5905 24.3912 36.61C24.3083 36.6296 24.23 36.6652 24.1609 36.715C24.0918 36.7648 24.0332 36.8277 23.9885 36.9002C23.8969 37.0491 23.8676 37.228 23.9069 37.3983C23.9462 37.5686 24.0509 37.7166 24.1985 37.8102C24.761 38.2978 25.4842 38.5597 26.2285 38.5452C26.7134 38.5577 27.1955 38.4692 27.6444 38.2854C28.0933 38.1017 28.4991 37.8266 28.836 37.4777C29.0914 37.215 29.304 36.9139 29.466 36.5852C29.5194 36.4144 29.5546 36.2384 29.571 36.0602C30.1732 36.1022 30.7761 35.9876 31.321 35.7277C31.836 35.4394 32.2489 34.9985 32.5028 34.4656C32.7567 33.9328 32.839 33.3343 32.7385 32.7527C33.3855 32.6314 33.9891 32.3417 34.4885 31.9127C34.8872 31.5495 35.2089 31.1098 35.4344 30.6197C35.6598 30.1297 35.7845 29.5994 35.801 29.0602C35.7609 28.53 35.6551 28.0068 35.486 27.5027Z" fill="white"/>
<path fill-rule="evenodd" clip-rule="evenodd" d="M44.9885 25.3502C44.968 25.2674 44.9314 25.1894 44.8807 25.1207C44.83 25.0521 44.7662 24.9941 44.693 24.9502C44.6198 24.9063 44.5387 24.8773 44.4542 24.8648C44.3698 24.8524 44.2837 24.8568 44.201 24.8777C43.1335 25.0002 42.101 25.0352 41.0685 25.2102C40.3658 25.3231 39.6747 25.4988 39.0035 25.7352C38.2318 26.0263 37.4974 26.4081 36.816 26.8727C35.381 27.4677 36.2385 28.6227 37.586 28.2377L39.2135 27.9052L40.4385 27.6077L41.646 27.2227C42.6085 26.8902 43.5535 26.5227 44.516 26.1377C44.5988 26.1173 44.6768 26.0806 44.7455 26.0299C44.8141 25.9792 44.8721 25.9154 44.916 25.8422C44.9599 25.769 44.9889 25.6879 45.0014 25.6035C45.0138 25.519 45.0094 25.433 44.9885 25.3502Z" fill="white"/>
</svg>
