<svg width="362" height="104" viewBox="0 0 362 104" fill="none" xmlns="http://www.w3.org/2000/svg">
<g filter="url(#filter0_in_459_1232)">
<rect width="362" height="104" rx="52" fill="url(#paint0_linear_459_1232)"/>
<g clip-path="url(#clip0_459_1232)">
<path d="M145.001 43.9561C145.544 45.1141 146.272 46.0399 147.183 46.7349C148.095 47.43 149.103 47.9584 150.207 48.323C151.312 48.6862 152.466 48.8693 153.67 48.8693C155.51 48.8693 157.209 48.4972 158.764 47.753V44.1065C157.694 45.0665 156.188 45.5457 154.246 45.5457C153.46 45.5457 152.703 45.4341 151.975 45.2108C151.248 44.9876 150.586 44.6616 149.993 44.2315C149.399 43.8013 148.927 43.2268 148.576 42.508C148.224 41.7891 148.049 40.966 148.049 40.0402C148.049 38.089 148.655 36.6125 149.867 35.6123C151.08 34.6121 152.54 34.112 154.246 34.112C155.986 34.112 157.45 34.5675 158.638 35.4769V31.9241C157.132 31.18 155.459 30.8079 153.619 30.8079C152.414 30.8079 151.26 30.9939 150.156 31.366C149.052 31.7381 148.052 32.2888 147.158 33.0151C146.263 33.7429 145.543 34.7148 144.999 35.9293C144.456 37.1453 144.183 38.5132 144.183 40.0343C144.185 41.4914 144.457 42.7982 145.001 43.9561Z" fill="white"/>
<path d="M186.664 39.564C186.664 38.6873 186.638 37.894 186.589 37.1826L194.77 48.5195H198.309V31.1547H194.544V40.1102C194.544 40.9868 194.57 41.7802 194.619 42.4916L186.438 31.1547H182.9V48.5195H186.665V39.564H186.664Z" fill="white"/>
<path d="M202.513 38.2497C202.99 38.9612 203.583 39.5029 204.294 39.875C205.005 40.2471 205.775 40.5939 206.603 40.9169C207.43 41.2399 208.2 41.5122 208.911 41.7355C209.622 41.9587 210.216 42.2564 210.692 42.6285C211.17 43.0006 211.408 43.4352 211.408 43.9308C211.408 45.0397 210.312 45.5933 208.121 45.5933C205.845 45.5933 203.77 44.9816 201.896 43.7582V47.305C203.787 48.3468 205.953 48.8678 208.396 48.8678C209.366 48.8678 210.245 48.7814 211.031 48.6073C211.817 48.4332 212.537 48.1563 213.189 47.7768C213.842 47.3973 214.348 46.8674 214.707 46.1887C215.067 45.5115 215.246 44.7003 215.246 43.7582C215.246 42.7997 215.008 41.9558 214.531 41.228C214.053 40.5001 213.46 39.9509 212.749 39.5788C212.038 39.2067 211.269 38.86 210.441 38.537C209.613 38.214 208.844 37.9506 208.132 37.7437C207.421 37.5368 206.827 37.26 206.351 36.9132C205.873 36.5664 205.635 36.16 205.635 35.6972C205.635 34.6553 206.589 34.118 208.496 34.0853C210.621 34.0525 212.427 34.5645 213.917 35.6227V32.1474C212.327 31.2544 210.429 30.8079 208.221 30.8079C206.379 30.8079 204.85 31.2291 203.628 32.073C202.406 32.9169 201.796 34.1403 201.796 35.7448C201.797 36.7033 202.035 37.5383 202.513 38.2497Z" fill="white"/>
<path d="M229.779 41.7965C229.779 44.2776 228.457 45.5175 225.814 45.5175C223.186 45.5175 221.874 44.2776 221.874 41.7965V31.1547H218.109V41.996C218.109 42.9887 218.251 43.8817 218.535 44.675C218.82 45.4683 219.204 46.1217 219.689 46.6352C220.175 47.1487 220.752 47.5774 221.422 47.9256C222.091 48.2724 222.79 48.5165 223.517 48.6579C224.245 48.7978 225.01 48.8693 225.814 48.8693C226.616 48.8693 227.383 48.7993 228.11 48.6579C228.838 48.518 229.537 48.2739 230.206 47.9256C230.875 47.5788 231.451 47.1487 231.938 46.6352C232.423 46.1232 232.808 45.4698 233.092 44.675C233.377 43.8817 233.519 42.9887 233.519 41.996V31.1547H229.779V41.7965Z" fill="white"/>
<path d="M247.121 40.1846L241.098 31.1547H237.61V48.5195H241.375V37.8032L246.017 44.7986H248.2L252.842 37.8285V48.521H256.607V31.1547H253.119L247.121 40.1846Z" fill="white"/>
<path d="M260.874 48.5195H273.396V45.2451H264.637V41.3753H272.492V38.1262H264.637V34.4291H273.245V31.1547H260.872V48.5195H260.874Z" fill="white"/>
<path d="M280.649 42.4425H283.41L288.152 48.5195H292.493L287.248 41.9706C289.808 41.161 291.088 39.4404 291.088 36.8105C291.088 35.7522 290.89 34.8428 290.498 34.0823C290.104 33.3217 289.561 32.7338 288.866 32.3215C288.172 31.9078 287.435 31.6101 286.658 31.4285C285.88 31.2469 285.031 31.1561 284.11 31.1561H276.883V48.521H280.648V42.4425H280.649ZM284.288 34.4291C285.158 34.4291 285.869 34.627 286.422 35.0244C286.974 35.4218 287.249 36.041 287.249 36.8849C287.249 37.7124 286.969 38.3286 286.408 38.7334C285.847 39.1383 285.14 39.3407 284.287 39.3407H280.648V34.4291H284.288Z" fill="white"/>
<path d="M148.125 67.3846H156.156L157.436 70.6338H161.326L154.173 53.2689H150.107L142.93 70.6338H146.82L148.125 67.3846ZM152.14 56.7175C152.224 57.164 152.35 57.6194 152.516 58.0823L154.975 64.3082H149.303L151.737 58.0823C151.906 57.6849 152.04 57.2295 152.14 56.7175Z" fill="white"/>
<path d="M159.645 56.6178H165.04V70.6338H168.779V56.6178H174.174V53.2689H159.645V56.6178Z" fill="white"/>
<path d="M174.827 56.6178H180.222V70.6338H183.962V56.6178H189.357V53.2689H174.826V56.6178H174.827Z" fill="white"/>
<path d="M214.432 64.5552H217.192L221.935 70.6323H226.276L221.031 64.0834C223.591 63.2738 224.871 61.5532 224.871 58.9232C224.871 57.865 224.675 56.9556 224.281 56.1951C223.887 55.4345 223.344 54.8466 222.649 54.4343C221.954 54.0205 221.218 53.7229 220.441 53.5413C219.663 53.3597 218.814 53.2689 217.893 53.2689H210.666V70.6338H214.43V64.5552H214.432ZM218.071 56.5433C218.941 56.5433 219.652 56.7413 220.204 57.1387C220.757 57.5361 221.032 58.1552 221.032 58.9992C221.032 59.8267 220.752 60.4429 220.191 60.8477C219.63 61.2525 218.923 61.455 218.07 61.455H214.43V56.5433H218.071Z" fill="white"/>
<path d="M232.149 61.6782C232.149 60.8016 232.124 60.0083 232.074 59.2968L240.255 70.6338H243.794V53.2689H240.029V62.2245C240.029 63.1011 240.055 63.8944 240.104 64.6059L231.923 53.2689H228.384V70.6338H232.149V61.6782Z" fill="white"/>
<path d="M247.558 70.6337H260.08V67.3593H251.321V63.4895H259.176V60.2404H251.321V56.5448H259.929V53.2704H247.556V70.6337H247.558Z" fill="white"/>
<path d="M271.877 64.4807L278.728 53.2673H274.487L269.995 61.0575L265.502 53.2673H261.261L268.137 64.4807V70.6322H271.877V64.4807Z" fill="white"/>
<path d="M279.895 60.3639C280.372 61.0754 280.965 61.6171 281.676 61.9892C282.387 62.3613 283.157 62.7081 283.984 63.0311C284.812 63.3541 285.582 63.6264 286.293 63.8497C287.004 64.073 287.598 64.3706 288.074 64.7427C288.552 65.1148 288.79 65.5494 288.79 66.045C288.79 67.1539 287.694 67.7076 285.502 67.7076C283.227 67.7076 281.152 67.0958 279.278 65.8724V69.4192C281.169 70.4611 283.335 70.982 285.778 70.982C286.748 70.982 287.627 70.8957 288.413 70.7215C289.198 70.5474 289.918 70.2705 290.571 69.891C291.224 69.5115 291.73 68.9816 292.089 68.3029C292.448 67.6257 292.628 66.8145 292.628 65.8724C292.628 64.9139 292.39 64.07 291.912 63.3422C291.435 62.6144 290.842 62.0651 290.131 61.6931C289.42 61.321 288.651 60.9742 287.823 60.6512C286.995 60.3282 286.225 60.0648 285.514 59.8579C284.803 59.651 284.209 59.3742 283.733 59.0274C283.255 58.6806 283.017 58.2743 283.017 57.8114C283.017 56.7695 283.971 56.2322 285.878 56.1995C288.002 56.1667 289.809 56.6787 291.299 57.737V54.2646C289.709 53.3716 287.811 52.925 285.603 52.925C283.761 52.925 282.231 53.3463 281.01 54.1902C279.788 55.0341 279.177 56.2575 279.177 57.862C279.179 58.8175 279.419 59.6525 279.895 60.3639Z" fill="white"/>
<path fill-rule="evenodd" clip-rule="evenodd" d="M204.471 70.9477C201.92 72.9154 199.642 73.8813 199.652 73.9215C199.64 73.8783 197.378 72.9526 194.808 70.9686C190.856 67.9174 191.143 64.2962 191.143 64.2962C191.143 64.2962 191.143 56.3304 191.143 53.0248C195.817 50.7446 203.465 50.7476 208.133 53.0233C208.133 56.3245 208.133 64.2828 208.133 64.2828C208.133 64.2828 208.422 67.8996 204.471 70.9477ZM204.68 64.1727C204.68 64.1727 204.68 57.2294 204.68 55.2856C201.913 53.9461 197.374 53.9446 194.601 55.2871C194.601 57.2324 194.601 64.1816 194.601 64.1816C194.601 64.1816 194.43 66.3129 196.775 68.1094C198.299 69.2778 199.642 69.8225 199.649 69.8478C199.642 69.824 200.995 69.2555 202.507 68.096C204.853 66.301 204.68 64.1727 204.68 64.1727Z" fill="white"/>
<path fill-rule="evenodd" clip-rule="evenodd" d="M171.092 42.8235C167.308 42.8235 164.239 39.7887 164.239 36.0469C164.239 32.3052 167.306 29.2704 171.092 29.2704C174.878 29.2704 177.945 32.3037 177.945 36.0469C177.945 39.7902 174.876 42.8235 171.092 42.8235ZM171.016 32.7532C169.176 32.7532 167.683 34.2282 167.683 36.0484C167.683 37.8687 169.176 39.3437 171.016 39.3437C172.856 39.3437 174.348 37.8687 174.348 36.0484C174.348 34.2282 172.857 32.7532 171.016 32.7532Z" fill="white"/>
<path d="M178.246 49.2577C177.93 49.2577 177.611 49.1714 177.327 48.9928C175.468 47.8215 173.312 47.2038 171.092 47.2038C168.902 47.2038 166.77 47.8081 164.927 48.9496C164.129 49.4453 163.074 49.2086 162.571 48.4242C162.068 47.6384 162.308 46.601 163.105 46.1054C165.495 44.6244 168.257 43.8416 171.094 43.8416C173.968 43.8416 176.76 44.6438 179.171 46.1619C179.966 46.662 180.198 47.7024 179.689 48.4838C179.36 48.9839 178.809 49.2577 178.246 49.2577Z" fill="white"/>
<path fill-rule="evenodd" clip-rule="evenodd" d="M88.4131 38.1521C88.4131 34.6917 88.4131 31.4753 88.4131 29.7875C81.7589 26.4833 70.8547 26.4803 64.1915 29.7904C64.1915 34.589 64.1915 51.7201 64.1915 51.7201C64.1915 51.7201 63.7799 56.9756 69.4161 61.405C73.0793 64.285 76.3068 65.6304 76.3233 65.6915C76.3083 65.6364 79.1646 64.3996 82.5194 61.8902C83.8667 64.4189 85.7888 66.5919 88.1137 68.2381C88.0448 68.2931 87.9775 68.3482 87.9086 68.4033C81.7799 73.2554 76.3008 75.6383 76.3293 75.7365C76.3008 75.6323 70.8622 73.3462 64.687 68.4554C55.1856 60.9302 55.8787 52.0044 55.8787 52.0044C55.8787 52.0044 55.8787 32.3638 55.8787 24.215C67.1107 18.5934 85.4924 18.5994 96.708 24.2105C96.708 26.9447 96.708 30.9737 96.708 35.1203C93.6556 35.4403 90.8278 36.5149 88.4131 38.1521Z" fill="white"/>
<path fill-rule="evenodd" clip-rule="evenodd" d="M98.5627 69.0076C89.8351 69.0076 82.7588 61.9364 82.7588 53.2145C82.7588 44.4926 89.8336 37.4214 98.5627 37.4214C107.292 37.4214 114.367 44.4926 114.367 53.2145C114.367 61.9364 107.292 69.0076 98.5627 69.0076ZM98.3905 45.536C94.1465 45.536 90.7064 48.9741 90.7064 53.2145C90.7064 57.4549 94.1465 60.893 98.3905 60.893C102.635 60.893 106.075 57.4549 106.075 53.2145C106.073 48.9726 102.633 45.536 98.3905 45.536Z" fill="white"/>
<path d="M114.926 84.3196C114.198 84.3196 113.463 84.1202 112.804 83.7004C108.517 80.9723 103.546 79.53 98.4272 79.53C93.3763 79.53 88.4602 80.9365 84.2102 83.5992C82.3689 84.7527 79.9347 84.2035 78.7745 82.3728C77.6144 80.5421 78.1668 78.122 80.0081 76.9685C85.5171 73.517 91.8868 71.6923 98.4272 71.6923C105.054 71.6923 111.495 73.5617 117.053 77.0995C118.887 78.2664 119.421 80.6895 118.248 82.5112C117.496 83.6811 116.224 84.3196 114.926 84.3196Z" fill="white"/>
</g>
</g>
<defs>
<filter id="filter0_in_459_1232" x="0" y="0" width="362" height="121" filterUnits="userSpaceOnUse" color-interpolation-filters="sRGB">
<feFlood flood-opacity="0" result="BackgroundImageFix"/>
<feBlend mode="normal" in="SourceGraphic" in2="BackgroundImageFix" result="shape"/>
<feColorMatrix in="SourceAlpha" type="matrix" values="0 0 0 0 0 0 0 0 0 0 0 0 0 0 0 0 0 0 127 0" result="hardAlpha"/>
<feMorphology radius="3" operator="erode" in="SourceAlpha" result="effect1_innerShadow_459_1232"/>
<feOffset dy="17"/>
<feGaussianBlur stdDeviation="14.25"/>
<feComposite in2="hardAlpha" operator="arithmetic" k2="-1" k3="1"/>
<feColorMatrix type="matrix" values="0 0 0 0 0.528846 0 0 0 0 0.162722 0 0 0 0 0.186092 0 0 0 0.31 0"/>
<feBlend mode="normal" in2="shape" result="effect1_innerShadow_459_1232"/>
<feTurbulence type="fractalNoise" baseFrequency="0.625 0.625" stitchTiles="stitch" numOctaves="3" result="noise" seed="3160" />
<feComponentTransfer in="noise" result="coloredNoise1">
<feFuncR type="linear" slope="2" intercept="-0.5" />
<feFuncG type="linear" slope="2" intercept="-0.5" />
<feFuncB type="linear" slope="2" intercept="-0.5" />
<feFuncA type="discrete" tableValues="1 1 1 1 1 1 1 1 1 1 1 1 1 1 1 1 1 1 1 1 1 1 1 1 1 1 1 1 1 1 1 1 1 1 1 1 1 1 1 1 1 1 1 1 1 1 1 1 1 1 1 0 0 0 0 0 0 0 0 0 0 0 0 0 0 0 0 0 0 0 0 0 0 0 0 0 0 0 0 0 0 0 0 0 0 0 0 0 0 0 0 0 0 0 0 0 0 0 0 0 "/>
</feComponentTransfer>
<feComposite operator="in" in2="effect1_innerShadow_459_1232" in="coloredNoise1" result="noise1Clipped" />
<feComponentTransfer in="noise1Clipped" result="color1">
<feFuncA type="table" tableValues="0 0.1" />
</feComponentTransfer>
<feMerge result="effect2_noise_459_1232">
<feMergeNode in="effect1_innerShadow_459_1232" />
<feMergeNode in="color1" />
</feMerge>
</filter>
<linearGradient id="paint0_linear_459_1232" x1="192.254" y1="242.667" x2="164.009" y2="-8.17913" gradientUnits="userSpaceOnUse">
<stop stop-color="white"/>
<stop offset="1" stop-color="#D8132A"/>
</linearGradient>
<clipPath id="clip0_459_1232">
<rect width="250" height="64" fill="white" transform="translate(56 20)"/>
</clipPath>
</defs>
</svg>
