<svg width="1158" height="425" viewBox="0 0 1158 425" fill="none" xmlns="http://www.w3.org/2000/svg">
<circle cx="15.5" cy="15.5" r="11.25" fill="#DF4A53" stroke="#FCD0C7" stroke-width="7.5"/>
<circle cx="1120.5" cy="15.5" r="11.25" fill="#DF4A53" stroke="#FCD0C7" stroke-width="7.5"/>
<path d="M220.981 368.838C238.952 379.85 254.853 385.949 280.043 390.685C305.429 394.213 309.542 394.998 338.809 391.908C350.893 390.135 363.094 387.427 372.765 382.39C386.511 374.955 398.214 368.636 404.947 364.917C410.726 361.724 413.946 360.031 417.793 358.003L417.819 357.989C421.801 356.389 426.767 354.105 436.185 354.972C445.16 356.108 451.761 360.374 456.388 365.537C458.671 368.171 460.576 371.148 461.314 374.64C461.654 376.365 461.651 378.313 460.723 379.991C459.813 381.688 457.962 382.737 456.065 383.117C455.248 383.291 454.427 383.198 453.657 382.871C449.585 381.02 447.246 373.662 449.809 366.719C452.293 359.479 460.696 354.82 468.927 353.671C485.869 351.253 502.715 356.405 511.423 358.765C529.291 363.908 547.879 372.433 559.286 377.947C562.717 379.603 565.508 381.003 567.669 382.105C568.586 382.573 569.007 382.806 568.999 382.822C568.999 382.822 568.999 382.822 568.999 382.822C568.988 382.843 568.312 382.528 567.131 381.943C561.444 379.131 553.103 375.118 543.069 370.889C524.031 363.415 522.23 361.41 495.349 355.295C482.906 353.063 471.824 352.369 461.757 356.18C456.824 358.131 452.174 361.76 450.282 367.312C449.345 370.042 449.102 373.166 449.833 376.206C450.526 379.077 452.511 382.961 455.914 382.424C457.784 382.047 459.635 380.957 460.357 379.079C461.97 373.461 458.098 368.606 455.169 365.335C451.963 361.973 448.37 359.653 444.588 358.047C437.013 354.922 428.258 354.347 418.228 358.883L418.262 358.866C411.317 362.645 403.041 367.119 392.409 372.818C384.904 376.842 378.652 380.211 373.191 383.172C348.024 393.487 337.146 395.37 299.91 394.526C253.006 393.974 200.786 361.516 184.842 338.686C182.021 335.325 179.317 331.842 176.524 327.887C163.288 307.18 140.242 277.994 150.213 244.479C151.145 242.695 152.315 241.046 153.997 239.805C155.588 238.581 158.261 237.846 160.142 239.407C163.534 242.802 162.207 247.645 161.042 251.521L160.983 251.645C139.547 282.844 91.3655 273.074 63.3005 255.196C61.4843 254.139 59.6308 253.019 57.7069 251.81C19.543 226.721 13.0104 164.432 10.2179 139.078C7.95707 110.982 7.95808 104.066 8.56105 76.9461C9.08733 61.33 10.779 39.8142 14.2549 22.0412C16.15 13.0876 15.7245 15.0888 14.0531 24.1349C11.7683 37.4766 10.7664 48.3478 10.269 55.3059C9.42276 69.0935 9.13447 74.9735 8.8075 92.4371C8.65073 109.912 9.42181 118.117 10.0612 128.259C11.5565 138.257 7.95492 138.762 19.8089 189.084C28.6574 221.153 43.1487 241.664 58.3175 250.833C66.6928 256.048 73.9052 259.702 80.2874 262.442C95.5019 270.484 141.205 279.894 160.018 251.037L159.959 251.161C160.43 249.734 160.746 248.48 160.944 247.112C161.166 245.477 161.222 243.702 160.621 242.068C160.075 240.442 158.475 239.274 156.672 239.782C153.049 240.844 150.758 245.118 149.608 249.402C147.343 258.061 148.874 268.419 151.68 277.833C157.59 297.241 168.646 314.53 177.518 327.187C180.519 331.432 183.246 334.875 185.693 337.782C203.187 356.985 203.711 356.875 220.981 368.838Z" fill="#DF4A53"/>
<path d="M976.368 287.152C988.357 267.718 999.451 250.328 1026.69 240.32C1028.48 239.766 1030.2 239.332 1031.85 238.991C1054.4 232.809 1060.29 230.158 1083.63 211.143C1095.71 200.421 1106.26 187.848 1113.07 175.727C1119.91 164.289 1122.9 149.324 1114.49 147.14C1114.44 147.122 1114.39 147.103 1114.34 147.085C1107.39 144.606 1104.17 149.52 1103.25 153.706C1102.41 158.114 1101.94 164.281 1107.13 173.008C1115.56 186.052 1129.87 183.609 1139.33 178.307C1143.17 176.265 1146.19 172.672 1148.51 168.355C1159.67 152.616 1156.44 96.0418 1150.72 76.9283C1146.42 57.3981 1138.2 35.7599 1129.6 24.8417C1127.06 21.4755 1124.66 19.028 1122.69 17.3318C1121.87 16.6249 1121.49 16.323 1121.5 16.3056C1121.5 16.3055 1121.5 16.3055 1121.5 16.3055C1121.52 16.2912 1122.14 16.7196 1123.2 17.6448C1128.43 22.1137 1134.55 30.515 1139.62 41.4712C1148.26 62.2108 1149.19 64.745 1154.46 94.6253C1156.81 124.01 1163.71 145.829 1143.52 176.202C1142.35 177.279 1141 178.248 1139.68 178.953C1127.46 185.867 1114.83 184.425 1108.1 175.763C1104.73 171.61 1102.4 166.268 1101.89 159.845C1101.69 156.661 1101.87 153.052 1103.72 149.66C1105.4 146.057 1110.47 144.305 1114.68 146.12C1120.24 147.696 1121.66 154.881 1120.18 160.64C1112.37 185.036 1100.76 194.706 1091.63 204.966C1081.67 214.578 1071.51 224.904 1048.38 235.311C1043.27 237.456 1037.83 239.248 1032.15 240.439C990.677 250.516 968.771 298.768 962.057 325.362C961.084 329.286 959.857 332.785 958.578 335.837C947.537 364.389 909.569 392.564 865.833 391.859C847.22 391.783 826.602 386.114 809.167 373.995C797.951 365.995 785.873 356.627 782.357 342.304C780.692 335.278 784.05 327.146 790.618 323.951C796.81 320.394 806.236 322.328 808.851 329.334C809.462 330.742 809.849 332.25 810.055 333.88C799.676 384.437 724.755 401.181 698.017 406.186C694.395 406.754 691.071 407.164 688.021 407.46C665.105 409.014 655.907 408.294 630.125 403.374C613.342 399.913 590.745 392.572 572.784 383.975C563.763 379.507 565.794 380.534 574.984 384.792C588.413 390.818 599.924 394.732 607.213 396.903C621.803 401.015 628.068 402.76 646.973 405.768C665.966 408.327 675.088 407.682 686.175 406.904C686.798 406.851 687.385 406.798 687.949 406.744C697.07 404.703 701.456 409.313 751.272 389.419C785.114 373.776 810.067 354.546 808.903 334.028C808.17 323.803 797.059 321.456 791.405 324.936C784.96 327.481 780.303 338.234 785.54 347.939C790.253 357.752 799.587 365.913 809.827 373.036C820.55 380.49 832.907 385.727 844.66 388.289C861.539 392.462 889.289 391.73 912.502 380.249C936.099 369.462 952.392 348.787 957.379 335.507C959.02 331.586 960.081 328.125 960.838 325.061C965.784 307.528 967.037 304.616 976.368 287.152Z" fill="#DF4A53"/>
<g filter="url(#filter0_in_518_1788)">
<rect x="387" y="321" width="362" height="104" rx="52" fill="url(#paint0_linear_518_1788)"/>
<g clip-path="url(#clip0_518_1788)">
<path d="M532.001 364.956C532.544 366.114 533.272 367.04 534.183 367.735C535.095 368.43 536.103 368.958 537.207 369.323C538.312 369.686 539.466 369.869 540.67 369.869C542.51 369.869 544.209 369.497 545.764 368.753V365.106C544.694 366.066 543.188 366.546 541.246 366.546C540.46 366.546 539.703 366.434 538.975 366.211C538.248 365.988 537.586 365.662 536.993 365.231C536.399 364.801 535.927 364.227 535.576 363.508C535.224 362.789 535.049 361.966 535.049 361.04C535.049 359.089 535.655 357.613 536.867 356.612C538.08 355.612 539.54 355.112 541.246 355.112C542.986 355.112 544.45 355.567 545.638 356.477V352.924C544.132 352.18 542.459 351.808 540.619 351.808C539.414 351.808 538.26 351.994 537.156 352.366C536.052 352.738 535.052 353.289 534.158 354.015C533.263 354.743 532.543 355.715 531.999 356.929C531.456 358.145 531.183 359.513 531.183 361.034C531.185 362.491 531.457 363.798 532.001 364.956Z" fill="white"/>
<path d="M573.664 360.564C573.664 359.687 573.638 358.894 573.589 358.183L581.77 369.52H585.309V352.155H581.544V361.11C581.544 361.987 581.57 362.78 581.619 363.492L573.438 352.155H569.9V369.52H573.665V360.564H573.664Z" fill="white"/>
<path d="M589.513 359.25C589.99 359.961 590.583 360.503 591.294 360.875C592.005 361.247 592.775 361.594 593.603 361.917C594.43 362.24 595.2 362.512 595.911 362.735C596.622 362.959 597.216 363.256 597.692 363.629C598.17 364.001 598.408 364.435 598.408 364.931C598.408 366.04 597.312 366.593 595.121 366.593C592.845 366.593 590.77 365.982 588.896 364.758V368.305C590.787 369.347 592.953 369.868 595.396 369.868C596.366 369.868 597.245 369.781 598.031 369.607C598.817 369.433 599.537 369.156 600.189 368.777C600.842 368.397 601.348 367.867 601.707 367.189C602.067 366.511 602.246 365.7 602.246 364.758C602.246 363.8 602.008 362.956 601.531 362.228C601.053 361.5 600.46 360.951 599.749 360.579C599.038 360.207 598.269 359.86 597.441 359.537C596.613 359.214 595.844 358.951 595.132 358.744C594.421 358.537 593.827 358.26 593.351 357.913C592.873 357.566 592.635 357.16 592.635 356.697C592.635 355.655 593.589 355.118 595.496 355.085C597.621 355.053 599.427 355.565 600.917 356.623V353.147C599.327 352.254 597.429 351.808 595.221 351.808C593.379 351.808 591.85 352.229 590.628 353.073C589.406 353.917 588.796 355.14 588.796 356.745C588.797 357.703 589.035 358.538 589.513 359.25Z" fill="white"/>
<path d="M616.779 362.797C616.779 365.278 615.457 366.517 612.814 366.517C610.186 366.517 608.874 365.278 608.874 362.797V352.155H605.109V362.996C605.109 363.989 605.251 364.882 605.535 365.675C605.82 366.468 606.204 367.122 606.689 367.635C607.175 368.149 607.752 368.577 608.422 368.926C609.091 369.272 609.79 369.517 610.517 369.658C611.245 369.798 612.01 369.869 612.814 369.869C613.616 369.869 614.383 369.799 615.11 369.658C615.838 369.518 616.537 369.274 617.206 368.926C617.875 368.579 618.451 368.149 618.938 367.635C619.423 367.123 619.808 366.47 620.092 365.675C620.377 364.882 620.519 363.989 620.519 362.996V352.155H616.779V362.797Z" fill="white"/>
<path d="M634.121 361.185L628.098 352.155H624.61V369.52H628.375V358.803L633.017 365.799H635.2L639.842 358.829V369.521H643.607V352.155H640.119L634.121 361.185Z" fill="white"/>
<path d="M647.874 369.52H660.396V366.245H651.637V362.375H659.492V359.126H651.637V355.429H660.245V352.155H647.872V369.52H647.874Z" fill="white"/>
<path d="M667.649 363.442H670.41L675.152 369.519H679.493L674.248 362.971C676.808 362.161 678.088 360.44 678.088 357.81C678.088 356.752 677.89 355.843 677.498 355.082C677.104 354.322 676.561 353.734 675.866 353.322C675.172 352.908 674.435 352.61 673.658 352.428C672.88 352.247 672.031 352.156 671.11 352.156H663.883V369.521H667.648V363.442H667.649ZM671.288 355.429C672.158 355.429 672.869 355.627 673.422 356.024C673.974 356.422 674.249 357.041 674.249 357.885C674.249 358.712 673.969 359.329 673.408 359.733C672.847 360.138 672.14 360.341 671.287 360.341H667.648V355.429H671.288Z" fill="white"/>
<path d="M535.125 388.385H543.156L544.436 391.634H548.326L541.173 374.269H537.107L529.93 391.634H533.82L535.125 388.385ZM539.14 377.717C539.224 378.164 539.35 378.619 539.516 379.082L541.975 385.308H536.303L538.737 379.082C538.906 378.685 539.04 378.229 539.14 377.717Z" fill="white"/>
<path d="M546.645 377.618H552.04V391.634H555.779V377.618H561.174V374.269H546.645V377.618Z" fill="white"/>
<path d="M561.827 377.618H567.222V391.634H570.962V377.618H576.357V374.269H561.826V377.618H561.827Z" fill="white"/>
<path d="M601.432 385.555H604.192L608.935 391.632H613.276L608.031 385.083C610.591 384.274 611.871 382.553 611.871 379.923C611.871 378.865 611.675 377.956 611.281 377.195C610.887 376.435 610.344 375.847 609.649 375.434C608.954 375.021 608.218 374.723 607.441 374.541C606.663 374.36 605.814 374.269 604.893 374.269H597.666V391.634H601.43V385.555H601.432ZM605.071 377.543C605.941 377.543 606.652 377.741 607.204 378.139C607.757 378.536 608.032 379.155 608.032 379.999C608.032 380.827 607.752 381.443 607.191 381.848C606.63 382.253 605.923 382.455 605.07 382.455H601.43V377.543H605.071Z" fill="white"/>
<path d="M619.149 382.678C619.149 381.802 619.124 381.008 619.074 380.297L627.255 391.634H630.794V374.269H627.029V383.224C627.029 384.101 627.055 384.894 627.104 385.606L618.923 374.269H615.384V391.634H619.149V382.678Z" fill="white"/>
<path d="M634.558 391.634H647.08V388.359H638.321V384.49H646.176V381.24H638.321V377.545H646.929V374.27H634.556V391.634H634.558Z" fill="white"/>
<path d="M658.877 385.481L665.728 374.267H661.487L656.995 382.057L652.502 374.267H648.261L655.137 385.481V391.632H658.877V385.481Z" fill="white"/>
<path d="M666.895 381.364C667.372 382.075 667.965 382.617 668.676 382.989C669.387 383.361 670.157 383.708 670.984 384.031C671.812 384.354 672.582 384.626 673.293 384.85C674.004 385.073 674.598 385.371 675.074 385.743C675.552 386.115 675.79 386.549 675.79 387.045C675.79 388.154 674.694 388.708 672.502 388.708C670.227 388.708 668.152 388.096 666.278 386.872V390.419C668.169 391.461 670.335 391.982 672.778 391.982C673.748 391.982 674.627 391.896 675.413 391.722C676.198 391.547 676.918 391.271 677.571 390.891C678.224 390.511 678.73 389.982 679.089 389.303C679.448 388.626 679.628 387.815 679.628 386.872C679.628 385.914 679.39 385.07 678.912 384.342C678.435 383.614 677.842 383.065 677.131 382.693C676.42 382.321 675.651 381.974 674.823 381.651C673.995 381.328 673.225 381.065 672.514 380.858C671.803 380.651 671.209 380.374 670.733 380.027C670.255 379.681 670.017 379.274 670.017 378.811C670.017 377.77 670.971 377.232 672.878 377.199C675.002 377.167 676.809 377.679 678.299 378.737V375.265C676.709 374.372 674.811 373.925 672.603 373.925C670.761 373.925 669.231 374.346 668.01 375.19C666.788 376.034 666.177 377.258 666.177 378.862C666.179 379.818 666.419 380.652 666.895 381.364Z" fill="white"/>
<path fill-rule="evenodd" clip-rule="evenodd" d="M591.471 391.948C588.92 393.915 586.642 394.881 586.652 394.922C586.64 394.878 584.378 393.953 581.808 391.969C577.856 388.917 578.143 385.296 578.143 385.296C578.143 385.296 578.143 377.33 578.143 374.025C582.817 371.745 590.465 371.748 595.133 374.023C595.133 377.324 595.133 385.283 595.133 385.283C595.133 385.283 595.422 388.9 591.471 391.948ZM591.68 385.173C591.68 385.173 591.68 378.229 591.68 376.286C588.913 374.946 584.374 374.945 581.601 376.287C581.601 378.232 581.601 385.182 581.601 385.182C581.601 385.182 581.43 387.313 583.775 389.109C585.299 390.278 586.642 390.823 586.649 390.848C586.642 390.824 587.995 390.255 589.507 389.096C591.853 387.301 591.68 385.173 591.68 385.173Z" fill="white"/>
<path fill-rule="evenodd" clip-rule="evenodd" d="M558.092 363.824C554.308 363.824 551.239 360.789 551.239 357.047C551.239 353.305 554.306 350.27 558.092 350.27C561.878 350.27 564.945 353.304 564.945 357.047C564.945 360.79 561.876 363.824 558.092 363.824ZM558.016 353.753C556.176 353.753 554.683 355.228 554.683 357.048C554.683 358.869 556.176 360.344 558.016 360.344C559.856 360.344 561.348 358.869 561.348 357.048C561.348 355.228 559.857 353.753 558.016 353.753Z" fill="white"/>
<path d="M565.246 370.258C564.93 370.258 564.611 370.171 564.327 369.993C562.468 368.821 560.312 368.204 558.092 368.204C555.902 368.204 553.77 368.808 551.927 369.95C551.129 370.445 550.074 370.209 549.571 369.424C549.068 368.638 549.308 367.601 550.105 367.105C552.495 365.624 555.257 364.842 558.094 364.842C560.968 364.842 563.76 365.644 566.171 367.162C566.966 367.662 567.198 368.702 566.689 369.484C566.36 369.984 565.809 370.258 565.246 370.258Z" fill="white"/>
<path fill-rule="evenodd" clip-rule="evenodd" d="M475.413 359.152C475.413 355.692 475.413 352.475 475.413 350.787C468.759 347.483 457.855 347.48 451.192 350.79C451.192 355.589 451.192 372.72 451.192 372.72C451.192 372.72 450.78 377.976 456.416 382.405C460.079 385.285 463.307 386.63 463.323 386.691C463.308 386.636 466.165 385.4 469.519 382.89C470.867 385.419 472.789 387.592 475.114 389.238C475.045 389.293 474.977 389.348 474.909 389.403C468.78 394.255 463.301 396.638 463.329 396.736C463.301 396.632 457.862 394.346 451.687 389.455C442.186 381.93 442.879 373.004 442.879 373.004C442.879 373.004 442.879 353.364 442.879 345.215C454.111 339.593 472.492 339.599 483.708 345.211C483.708 347.945 483.708 351.974 483.708 356.12C480.656 356.44 477.828 357.515 475.413 359.152Z" fill="white"/>
<path fill-rule="evenodd" clip-rule="evenodd" d="M485.563 390.008C476.835 390.008 469.759 382.936 469.759 374.215C469.759 365.493 476.834 358.421 485.563 358.421C494.292 358.421 501.367 365.493 501.367 374.215C501.367 382.936 494.292 390.008 485.563 390.008ZM485.391 366.536C481.147 366.536 477.706 369.974 477.706 374.215C477.706 378.455 481.147 381.893 485.391 381.893C489.635 381.893 493.075 378.455 493.075 374.215C493.073 369.973 489.633 366.536 485.391 366.536Z" fill="white"/>
<path d="M501.926 405.32C501.198 405.32 500.463 405.12 499.804 404.7C495.517 401.972 490.546 400.53 485.427 400.53C480.376 400.53 475.46 401.937 471.21 404.599C469.369 405.753 466.935 405.204 465.775 403.373C464.614 401.542 465.167 399.122 467.008 397.969C472.517 394.517 478.887 392.692 485.427 392.692C492.054 392.692 498.495 394.562 504.053 398.1C505.887 399.266 506.421 401.689 505.248 403.511C504.496 404.681 503.224 405.32 501.926 405.32Z" fill="white"/>
</g>
</g>
<defs>
<filter id="filter0_in_518_1788" x="387" y="321" width="362" height="121" filterUnits="userSpaceOnUse" color-interpolation-filters="sRGB">
<feFlood flood-opacity="0" result="BackgroundImageFix"/>
<feBlend mode="normal" in="SourceGraphic" in2="BackgroundImageFix" result="shape"/>
<feColorMatrix in="SourceAlpha" type="matrix" values="0 0 0 0 0 0 0 0 0 0 0 0 0 0 0 0 0 0 127 0" result="hardAlpha"/>
<feMorphology radius="3" operator="erode" in="SourceAlpha" result="effect1_innerShadow_518_1788"/>
<feOffset dy="17"/>
<feGaussianBlur stdDeviation="14.25"/>
<feComposite in2="hardAlpha" operator="arithmetic" k2="-1" k3="1"/>
<feColorMatrix type="matrix" values="0 0 0 0 0.528846 0 0 0 0 0.162722 0 0 0 0 0.186092 0 0 0 0.31 0"/>
<feBlend mode="normal" in2="shape" result="effect1_innerShadow_518_1788"/>
<feTurbulence type="fractalNoise" baseFrequency="0.625 0.625" stitchTiles="stitch" numOctaves="3" result="noise" seed="3160" />
<feComponentTransfer in="noise" result="coloredNoise1">
<feFuncR type="linear" slope="2" intercept="-0.5" />
<feFuncG type="linear" slope="2" intercept="-0.5" />
<feFuncB type="linear" slope="2" intercept="-0.5" />
<feFuncA type="discrete" tableValues="1 1 1 1 1 1 1 1 1 1 1 1 1 1 1 1 1 1 1 1 1 1 1 1 1 1 1 1 1 1 1 1 1 1 1 1 1 1 1 1 1 1 1 1 1 1 1 1 1 1 1 0 0 0 0 0 0 0 0 0 0 0 0 0 0 0 0 0 0 0 0 0 0 0 0 0 0 0 0 0 0 0 0 0 0 0 0 0 0 0 0 0 0 0 0 0 0 0 0 0 "/>
</feComponentTransfer>
<feComposite operator="in" in2="effect1_innerShadow_518_1788" in="coloredNoise1" result="noise1Clipped" />
<feComponentTransfer in="noise1Clipped" result="color1">
<feFuncA type="table" tableValues="0 0.1" />
</feComponentTransfer>
<feMerge result="effect2_noise_518_1788">
<feMergeNode in="effect1_innerShadow_518_1788" />
<feMergeNode in="color1" />
</feMerge>
</filter>
<linearGradient id="paint0_linear_518_1788" x1="579.254" y1="563.667" x2="551.009" y2="312.821" gradientUnits="userSpaceOnUse">
<stop stop-color="white"/>
<stop offset="1" stop-color="#D8132A"/>
</linearGradient>
<clipPath id="clip0_518_1788">
<rect width="250" height="64" fill="white" transform="translate(443 341)"/>
</clipPath>
</defs>
</svg>
