<svg width="33" height="33" viewBox="0 0 33 33" fill="none" xmlns="http://www.w3.org/2000/svg">
<g clip-path="url(#clip0_53_1686)">
<path d="M27.814 5.18625C24.792 2.16431 20.7739 0.5 16.5002 0.5C12.9414 0.5 9.55322 1.6575 6.77341 3.79319L6.7866 3.2385C6.79879 2.72094 6.38941 2.29125 5.87154 2.279C5.35348 2.2675 4.92454 2.67619 4.91204 3.19406L4.85929 5.41794C4.84223 6.13962 5.37029 6.74531 6.08754 6.82688L8.54235 7.09931C9.01279 7.09931 9.4186 6.74581 9.47279 6.26725C9.53116 5.75288 9.16154 5.2885 8.64685 5.23012L8.06847 5.16444C10.4929 3.3545 13.4243 2.375 16.5002 2.375C20.2732 2.375 23.8203 3.84425 26.488 6.51219C29.156 9.17994 30.6252 12.7271 30.6252 16.5C30.6252 18.2744 30.3008 20.0044 29.6606 21.6416C29.4721 22.1238 29.7101 22.6675 30.1923 22.856C30.3044 22.8999 30.4199 22.9207 30.5334 22.9207C30.9081 22.9207 31.2621 22.6944 31.407 22.3242C32.1323 20.4685 32.5002 18.5091 32.5002 16.5C32.5002 12.2263 30.8359 8.20825 27.814 5.18625Z" fill="#DF4A53"/>
<path d="M26.9927 26.1885L24.5059 25.8975C23.9917 25.8375 23.5259 26.2056 23.4656 26.7198C23.4055 27.234 23.7737 27.6998 24.2878 27.7598L24.9465 27.837C22.5434 29.646 19.6072 30.625 16.5 30.625C12.7271 30.625 9.17994 29.1558 6.51219 26.4878C3.84425 23.8201 2.375 20.2729 2.375 16.5C2.375 14.1719 2.95312 11.8645 4.04713 9.82738C4.292 9.37131 4.12087 8.80294 3.66456 8.55806C3.2085 8.31294 2.63987 8.48406 2.395 8.94038C1.15525 11.2493 0.5 13.8633 0.5 16.5C0.5 20.7737 2.16431 24.7918 5.18625 27.8138C8.20819 30.8358 12.2263 32.5 16.5 32.5C20.0603 32.5 23.4248 31.3631 26.1687 29.2635L26.1594 29.7026C26.1487 30.2202 26.5593 30.649 27.0772 30.6597C27.0837 30.66 27.0906 30.66 27.0972 30.66C27.6057 30.66 28.0232 30.253 28.0342 29.742L28.0823 27.4397C28.0959 26.8006 27.6274 26.2625 26.9927 26.1885Z" fill="#DF4A53"/>
<path d="M18.7556 20.395L20.0156 19.135C20.1853 18.9674 20.4 18.8527 20.6337 18.8048C20.8673 18.7568 21.1099 18.7778 21.3319 18.865L22.8675 19.4781C23.0918 19.5692 23.2842 19.7246 23.4203 19.9248C23.5564 20.125 23.6303 20.3611 23.6325 20.6031V23.4156C23.6312 23.5803 23.5966 23.7431 23.5307 23.894C23.4649 24.045 23.3691 24.181 23.2493 24.294C23.1295 24.407 22.9881 24.4946 22.8335 24.5515C22.6789 24.6084 22.5145 24.6334 22.35 24.625C11.5894 23.9556 9.41812 14.8431 9.00749 11.3556C8.98843 11.1844 9.00585 11.011 9.05859 10.847C9.11134 10.6829 9.19822 10.5319 9.31353 10.4039C9.42883 10.2758 9.56994 10.1736 9.72758 10.104C9.88521 10.0344 10.0558 9.99897 10.2281 10H12.945C13.1874 10.0007 13.4241 10.074 13.6246 10.2103C13.8251 10.3466 13.9802 10.5398 14.07 10.765L14.6831 12.3006C14.7733 12.5217 14.7963 12.7645 14.7492 12.9986C14.7022 13.2327 14.5873 13.4478 14.4187 13.6169L13.1587 14.8769C13.1587 14.8769 13.8844 19.7875 18.7556 20.395Z" fill="#DF4A53"/>
</g>
<defs>
<clipPath id="clip0_53_1686">
<rect width="32" height="32" fill="white" transform="translate(0.5 0.5)"/>
</clipPath>
</defs>
</svg>
